<svg width="400" height="400" viewBox="0 0 400 400" fill="none" xmlns="http://www.w3.org/2000/svg">
<g clip-path="url(#clip0_225_625)">
<path d="M260 60H140C121.615 60 103.41 63.6212 86.4243 70.6569C69.4387 77.6925 54.0053 88.0048 41.005 101.005C28.0048 114.005 17.6925 129.439 10.6569 146.424C3.62121 163.41 0 181.615 0 200C0 218.385 3.62121 236.59 10.6569 253.576C17.6925 270.561 28.0048 285.995 41.005 298.995C54.0053 311.995 69.4387 322.307 86.4243 329.343C103.41 336.379 121.615 340 140 340H260C278.385 340 296.59 336.379 313.576 329.343C330.561 322.307 345.995 311.995 358.995 298.995C371.995 285.995 382.307 270.561 389.343 253.576C396.379 236.59 400 218.385 400 200C400 181.615 396.379 163.41 389.343 146.424C382.307 129.439 371.995 114.005 358.995 101.005C345.995 88.0048 330.561 77.6925 313.576 70.6569C296.59 63.6212 278.385 60 260 60V60ZM260 300C233.476 299.997 208.039 289.458 189.285 270.701C170.532 251.943 159.997 226.504 160 199.98C160.003 173.456 170.542 148.019 189.299 129.265C208.057 110.512 233.496 99.9773 260.02 99.98C273.154 99.9813 286.158 102.569 298.291 107.597C310.425 112.624 321.449 119.992 330.735 129.279C340.021 138.567 347.386 149.593 352.411 161.727C357.436 173.861 360.021 186.866 360.02 200C360.019 213.134 357.431 226.138 352.403 238.271C347.376 250.405 340.008 261.429 330.721 270.715C321.433 280.001 310.407 287.366 298.273 292.391C286.139 297.416 273.134 300.001 260 300V300Z" fill="#DC4BEE"/>
<circle cx="260" cy="200" r="100" fill="white"/>
</g>
<defs>
<clipPath id="clip0_225_625">
<rect width="400" height="400" fill="white"/>
</clipPath>
</defs>
</svg>
