<svg width="677" height="1155" viewBox="0 0 677 1155" fill="none" xmlns="http://www.w3.org/2000/svg">
<g clip-path="url(#clip0_225_462)" filter="url(#filter0_i_225_462)">
<path d="M362.906 591.994L370.3 597.478L286.253 727.334L269.743 735.936L362.906 591.994Z" fill="#2C0365" stroke="#2C0365" stroke-width="1.12412" stroke-miterlimit="10"/>
<path d="M0 562.807L291.108 205.031L320.711 225.41L32.8086 587.716L0 562.807Z" fill="#D0B4F5"/>
<path d="M205.387 370.539L236.833 389.957L180.092 457.513L151.462 438.398L205.387 370.539Z" fill="#7331CE"/>
<path d="M216.617 414.025L315.366 575.541L276.716 577.903L194.41 436.939L216.617 414.025Z" fill="#7331CE"/>
<path d="M379.92 574.129H90.8682V587.716H379.92V574.129Z" fill="#7331CE"/>
<path d="M142.718 601.036H106.535V1071H142.718V601.036Z" fill="#7331CE"/>
<path d="M442.871 601.036H409.155V1071H442.871V601.036Z" fill="#7331CE"/>
<path d="M541.551 584.902H20.1045V612.83H541.551V584.902Z" fill="#B28AEA"/>
<path d="M471.616 196.36C509.935 196.36 540.999 164.737 540.999 125.728C540.999 86.7181 509.935 55.0947 471.616 55.0947C433.296 55.0947 402.232 86.7181 402.232 125.728C402.232 164.737 433.296 196.36 471.616 196.36Z" fill="#B937C9"/>
<path d="M515.513 259.629C512.859 258.474 509.894 258.241 507.093 258.969C504.291 259.696 501.815 261.342 500.06 263.642C493.897 271.473 485.488 288.658 488.716 322.368L501.219 452.927L503.209 584.529C503.209 584.529 522.015 645.203 549.552 644.631C577.089 644.058 526.746 586.514 526.746 586.514C526.746 586.514 533.727 482.11 530.858 452.146C528.183 424.212 554.662 276.964 515.513 259.629Z" fill="#FFB8B8"/>
<path d="M481.562 199.896L465.776 243.448L488.342 250.543L491.51 313.745L435.562 283.066L407.383 251.457L403.867 227.201C403.867 227.201 425.597 223.365 433.498 174.515L481.562 199.896Z" fill="#FFB8B8"/>
<path d="M587.492 563.756C587.492 563.756 686.205 664.652 660.768 717.852C635.332 771.051 511.195 957.281 511.195 957.281L477.986 914.226C477.986 914.226 510.629 890.067 525.831 833.448C541.033 776.829 575.442 737.724 585.597 723.806C595.753 709.888 490.244 612.492 499.564 587.642C508.883 562.792 587.492 563.756 587.492 563.756Z" fill="#FFB8B8"/>
<path opacity="0.1" d="M587.492 563.756C587.492 563.756 686.205 664.652 660.768 717.852C635.332 771.051 511.195 957.281 511.195 957.281L477.986 914.226C477.986 914.226 510.629 890.067 525.831 833.448C541.033 776.829 575.442 737.724 585.597 723.806C595.753 709.888 490.244 612.492 499.564 587.642C508.883 562.792 587.492 563.756 587.492 563.756Z" fill="black"/>
<path d="M525.467 926.539C525.467 926.539 535.779 947.296 532.673 955.579C529.566 963.863 513.276 1011.68 513.276 1011.68C513.276 1011.68 530.621 1080.95 518.037 1079.41C505.454 1077.87 459.913 1031.14 461.932 1014.06L467.736 964.953L453.638 976.222L435.693 948.033L460.703 916.441C460.703 916.441 487.559 887.241 495.948 888.268C504.337 889.296 525.467 926.539 525.467 926.539Z" fill="#2C3242"/>
<path d="M505.856 588.413L512.478 604.386L540.293 729.087C540.293 729.087 551.363 743.439 547.908 790.667C544.454 837.895 603.711 1020.6 603.711 1020.6L605.714 1057.66L570.06 1053.3L545.745 1007C545.745 1007 536.615 958.228 509.95 913.809C483.286 869.39 483.319 761.096 483.319 761.096L411.557 594.191L468.026 566.452L505.856 588.413Z" fill="#FFB8B8"/>
<path d="M591.554 997.447C591.554 997.447 602.293 996.596 603.885 1001.12C605.478 1005.65 637.583 1094.06 637.583 1094.06C637.583 1094.06 698.64 1153.52 668.773 1154.19C638.906 1154.86 588.824 1146.56 580.356 1128.2C571.888 1109.83 562.08 1084.81 562.08 1084.81L559.052 1110.43L535.399 1094.54C535.399 1094.54 522.17 1008.44 537.608 1003.84C553.046 999.228 591.554 997.447 591.554 997.447Z" fill="#2C3242"/>
<path d="M555.544 510.027C555.544 510.027 580.538 532.582 578.189 534.46C575.839 536.338 592.365 540.528 589.258 548.812C586.151 557.095 603.261 574.352 594.872 573.325C586.482 572.297 553.935 559.647 517.934 594.225L511.642 593.454L512.478 604.386C512.478 604.386 486.396 573.034 419.014 621.096C419.014 621.096 396.701 611.865 399.808 603.582C402.914 595.298 363.571 586.147 384.813 532.434C406.054 478.721 471.827 480.279 471.827 480.279L555.544 510.027Z" fill="#181F30"/>
<path d="M420.14 233.526C420.14 233.526 409.323 217.039 402.778 218.403C396.234 219.768 360.453 218.945 354.745 231.241C349.036 243.538 376.221 371.1 371.852 390.059C367.484 409.017 344.286 551.295 364.249 562.404C384.213 573.514 407.552 520.057 407.552 520.057C407.552 520.057 470.313 493.089 523.581 510.443C576.849 527.797 560.497 504.135 560.497 504.135C560.497 504.135 522.336 466.971 528.14 417.865C533.944 368.759 536.545 364.746 526.737 339.719C526.737 339.719 524.988 300.517 526.249 289.842C527.511 279.166 535.317 267.127 529.53 262.086C523.743 257.045 463.678 243.19 463.678 243.19C463.678 243.19 494.128 255.584 480.283 264.718C466.437 273.852 420.14 233.526 420.14 233.526Z" fill="#2C3242"/>
<path d="M473.519 211.534C501.519 211.534 524.217 188.427 524.217 159.923C524.217 131.419 501.519 108.312 473.519 108.312C445.519 108.312 422.821 131.419 422.821 159.923C422.821 188.427 445.519 211.534 473.519 211.534Z" fill="#FFB8B8"/>
<path d="M366.955 225.265C369.635 224.171 372.605 224.007 375.39 224.799C378.174 225.59 380.613 227.292 382.315 229.632C388.303 237.603 396.329 254.976 392.354 288.603L376.962 418.842L372.056 550.365C372.056 550.365 375.224 613.566 347.707 612.362C320.19 611.157 348.481 551.809 348.481 551.809C348.481 551.809 343.815 447.271 347.348 417.381C350.641 389.515 327.432 241.696 366.955 225.265Z" fill="#FFB8B8"/>
<path d="M435.4 0C440.601 7.58264 448.376 13.0238 457.284 15.3149C472.587 19.4865 457.409 42.8965 457.409 42.8965C457.409 42.8965 462.928 34.3838 454.968 25.3686C447.007 16.3533 434.196 10.1898 435.4 0Z" fill="#B937C9"/>
<path d="M460.121 68.1968C470.8 68.1968 479.457 59.3837 479.457 48.5122C479.457 37.6407 470.8 28.8276 460.121 28.8276C449.441 28.8276 440.784 37.6407 440.784 48.5122C440.784 59.3837 449.441 68.1968 460.121 68.1968Z" fill="#B937C9"/>
<path d="M435.433 65.0111C451.196 58.9415 477.444 55.8639 490.947 57.9676L489.095 44.2012C476.113 51.0315 449.986 54.2413 433.581 51.2446L435.433 65.0111Z" fill="#3F3D56"/>
<path d="M465.935 69.939C465.935 69.939 485.691 103.391 531.629 115.914C577.568 128.437 532.005 198.713 532.005 198.713C532.005 198.713 548.573 173.158 524.675 146.095C500.778 119.031 462.32 100.529 465.935 69.939Z" fill="#B937C9"/>
<path d="M464.368 67.9062C464.368 67.9062 445.389 113.854 424.553 118.199C403.717 122.543 405.298 195.145 437.882 206.033C437.882 206.033 414.122 163.47 434.431 134.925C454.74 106.38 467.568 83.8145 464.368 67.9062Z" fill="#B937C9"/>
</g>
<defs>
<filter id="filter0_i_225_462" x="0" y="0" width="677" height="1158.23" filterUnits="userSpaceOnUse" color-interpolation-filters="sRGB">
<feFlood flood-opacity="0" result="BackgroundImageFix"/>
<feBlend mode="normal" in="SourceGraphic" in2="BackgroundImageFix" result="shape"/>
<feColorMatrix in="SourceAlpha" type="matrix" values="0 0 0 0 0 0 0 0 0 0 0 0 0 0 0 0 0 0 127 0" result="hardAlpha"/>
<feOffset dy="4"/>
<feGaussianBlur stdDeviation="2"/>
<feComposite in2="hardAlpha" operator="arithmetic" k2="-1" k3="1"/>
<feColorMatrix type="matrix" values="0 0 0 0 0 0 0 0 0 0 0 0 0 0 0 0 0 0 0.25 0"/>
<feBlend mode="normal" in2="shape" result="effect1_innerShadow_225_462"/>
</filter>
<clipPath id="clip0_225_462">
<rect width="677" height="1154.23" fill="white"/>
</clipPath>
</defs>
</svg>
