<svg width="300" height="300" viewBox="0 0 300 300" fill="none" xmlns="http://www.w3.org/2000/svg">
<path d="M150 281.25C115.19 281.25 81.8064 267.422 57.1922 242.808C32.5781 218.194 18.75 184.81 18.75 150C18.75 115.19 32.5781 81.8064 57.1922 57.1922C81.8064 32.5781 115.19 18.75 150 18.75C184.81 18.75 218.194 32.5781 242.808 57.1922C267.422 81.8064 281.25 115.19 281.25 150C281.25 184.81 267.422 218.194 242.808 242.808C218.194 267.422 184.81 281.25 150 281.25ZM150 300C189.782 300 227.936 284.196 256.066 256.066C284.196 227.936 300 189.782 300 150C300 110.218 284.196 72.0644 256.066 43.934C227.936 15.8035 189.782 0 150 0C110.218 0 72.0644 15.8035 43.934 43.934C15.8035 72.0644 0 110.218 0 150C0 189.782 15.8035 227.936 43.934 256.066C72.0644 284.196 110.218 300 150 300V300Z" fill="#B937C9"/>
<path d="M87.1146 87.1124C87.9855 86.2393 89.02 85.5467 90.159 85.074C91.2979 84.6014 92.519 84.3582 93.7521 84.3582C94.9852 84.3582 96.2063 84.6014 97.3452 85.074C98.4842 85.5467 99.5188 86.2393 100.39 87.1124L150.002 136.744L199.615 87.1124C200.486 86.2408 201.521 85.5493 202.66 85.0776C203.799 84.6059 205.019 84.3631 206.252 84.3631C207.485 84.3631 208.705 84.6059 209.844 85.0776C210.983 85.5493 212.018 86.2408 212.89 87.1124C213.761 87.9841 214.453 89.0189 214.924 90.1577C215.396 91.2966 215.639 92.5172 215.639 93.7499C215.639 94.9826 215.396 96.2032 214.924 97.3421C214.453 98.481 213.761 99.5158 212.89 100.387L163.258 150L212.89 199.612C213.761 200.484 214.453 201.519 214.924 202.658C215.396 203.797 215.639 205.017 215.639 206.25C215.639 207.483 215.396 208.703 214.924 209.842C214.453 210.981 213.761 212.016 212.89 212.887C212.018 213.759 210.983 214.45 209.844 214.922C208.705 215.394 207.485 215.637 206.252 215.637C205.019 215.637 203.799 215.394 202.66 214.922C201.521 214.45 200.486 213.759 199.615 212.887L150.002 163.256L100.39 212.887C99.518 213.759 98.4832 214.45 97.3443 214.922C96.2054 215.394 94.9848 215.637 93.7521 215.637C92.5194 215.637 91.2988 215.394 90.1599 214.922C89.021 214.45 87.9863 213.759 87.1146 212.887C86.243 212.016 85.5515 210.981 85.0798 209.842C84.6081 208.703 84.3653 207.483 84.3653 206.25C84.3653 205.017 84.6081 203.797 85.0798 202.658C85.5515 201.519 86.243 200.484 87.1146 199.612L136.746 150L87.1146 100.387C86.2415 99.5166 85.5489 98.482 85.0762 97.343C84.6036 96.2041 84.3604 94.983 84.3604 93.7499C84.3604 92.5168 84.6036 91.2957 85.0762 90.1568C85.5489 89.0178 86.2415 87.9833 87.1146 87.1124Z" fill="#B937C9"/>
</svg>
