<svg width="1423" height="1240" viewBox="0 0 1423 1240" fill="none" xmlns="http://www.w3.org/2000/svg">
<g clip-path="url(#clip0_225_488)" filter="url(#filter0_i_225_488)">
<path d="M459.021 1188.26C457.668 1188.33 456.329 1187.97 455.185 1187.25C454.041 1186.52 453.148 1185.46 452.625 1184.22C452.103 1182.97 451.977 1181.59 452.265 1180.26C452.553 1178.94 453.241 1177.74 454.235 1176.82C454.402 1176.16 454.521 1175.68 454.687 1175.02C454.628 1174.88 454.568 1174.73 454.508 1174.59C453.145 1171.37 450.862 1168.63 447.945 1166.7C445.027 1164.78 441.606 1163.76 438.111 1163.77C434.616 1163.78 431.203 1164.83 428.3 1166.78C425.397 1168.72 423.134 1171.48 421.796 1174.71C416.446 1187.6 409.634 1200.5 407.957 1214.12C407.218 1220.14 407.53 1226.25 408.878 1232.16C396.311 1204.76 389.786 1174.97 389.744 1144.82C389.742 1137.25 390.162 1129.69 391.003 1122.17C391.699 1116.01 392.664 1109.89 393.898 1103.81C400.633 1070.84 415.094 1039.94 436.093 1013.65C446.256 1008.1 454.475 999.577 459.643 989.218C461.515 985.495 462.838 981.52 463.571 977.417C462.424 977.567 461.259 977.661 460.113 977.736C459.755 977.755 459.38 977.774 459.022 977.793L458.888 977.799C457.628 977.855 456.378 977.546 455.29 976.909C454.201 976.272 453.32 975.334 452.752 974.208C452.184 973.082 451.954 971.816 452.089 970.562C452.225 969.308 452.72 968.12 453.514 967.141C454.009 966.532 454.505 965.923 455 965.315C455.752 964.375 456.523 963.454 457.275 962.515C457.361 962.425 457.443 962.331 457.519 962.233C458.384 961.161 459.248 960.109 460.113 959.038C458.534 956.589 456.412 954.537 453.91 953.043C445.246 947.97 433.292 951.484 427.033 959.32C420.756 967.156 419.572 978.15 421.752 987.94C423.896 996.271 427.442 1004.18 432.24 1011.32C431.77 1011.92 431.281 1012.5 430.811 1013.1C422.222 1024.15 414.735 1036 408.46 1048.51C409.986 1034.5 408.164 1020.33 403.145 1007.16C398.058 994.895 388.523 984.56 380.126 973.953C370.04 961.211 349.358 966.772 347.581 982.924C347.564 983.08 347.547 983.236 347.531 983.393C348.778 984.096 349.999 984.843 351.193 985.633C352.694 986.635 353.857 988.068 354.529 989.742C355.202 991.417 355.353 993.255 354.962 995.017C354.572 996.779 353.658 998.381 352.341 999.615C351.024 1000.85 349.365 1001.66 347.582 1001.93L347.399 1001.96C347.843 1006.45 348.629 1010.91 349.748 1015.28C352.993 1027.5 358.726 1038.91 366.588 1048.81C374.451 1058.7 384.273 1066.87 395.439 1072.79C396.172 1073.16 396.886 1073.54 397.619 1073.9C391.314 1091.76 387.359 1110.37 385.854 1129.26C385.001 1140.4 385.052 1151.59 386.004 1162.73L385.948 1162.33C383.542 1149.95 376.936 1138.78 367.246 1130.7C352.855 1118.88 332.522 1114.53 316.997 1105.03C315.347 1103.97 313.428 1103.41 311.467 1103.4C309.506 1103.4 307.585 1103.95 305.93 1105C304.275 1106.05 302.955 1107.56 302.126 1109.33C301.296 1111.11 300.993 1113.09 301.25 1115.03C301.271 1115.17 301.292 1115.31 301.314 1115.45C303.628 1116.39 305.882 1117.47 308.061 1118.7C309.308 1119.4 310.529 1120.15 311.724 1120.94C313.224 1121.94 314.387 1123.37 315.06 1125.05C315.732 1126.72 315.883 1128.56 315.493 1130.32C315.102 1132.08 314.189 1133.69 312.872 1134.92C311.555 1136.15 309.896 1136.96 308.112 1137.24L307.929 1137.26C307.798 1137.28 307.685 1137.3 307.554 1137.32C311.508 1146.76 317.059 1155.45 323.962 1163.01C332.489 1172.16 342.796 1179.47 354.25 1184.49C365.704 1189.52 378.063 1192.15 390.571 1192.23H390.59C393.985 1206.98 398.905 1221.34 405.269 1235.08H457.707C457.895 1234.49 458.064 1233.89 458.233 1233.31C453.379 1233.62 448.507 1233.32 443.723 1232.45C447.614 1227.67 451.504 1222.86 455.395 1218.09C455.482 1218 455.563 1217.91 455.639 1217.81C457.613 1215.36 459.605 1212.94 461.579 1210.5L461.58 1210.49C461.685 1203 460.825 1195.53 459.022 1188.27L459.021 1188.26Z" fill="#B28AEA"/>
<path d="M634.758 180.07C634.758 215.393 617.085 251.337 581.756 251.337C546.428 251.337 497.685 225.754 508.651 170.933C515.579 136.296 535.462 116.112 570.79 116.112C587.756 116.112 604.026 122.851 616.022 134.845C628.019 146.84 634.758 163.107 634.758 180.07V180.07Z" fill="#2C3242"/>
<path d="M486.56 684.742C488.485 682.607 489.919 680.076 490.76 677.327C491.601 674.578 491.829 671.678 491.428 668.831C491.026 665.985 490.006 663.26 488.438 660.851C486.869 658.441 484.792 656.405 482.352 654.885L497.816 586.737L463.824 599.525L454.35 662.279C452.068 666.547 451.431 671.504 452.56 676.211C453.689 680.917 456.506 685.046 460.476 687.815C464.446 690.584 469.295 691.801 474.102 691.234C478.91 690.668 483.342 688.358 486.56 684.742V684.742Z" fill="#FFB8B8"/>
<path d="M558.714 443.194L534.988 445.609C534.988 445.609 541.193 480.75 531.489 488.666C521.786 496.581 525.697 496.544 525.754 502.41C525.81 508.276 521.992 518.091 514.226 524.032C506.459 529.973 490.307 635.785 490.307 635.785L455.104 636.123C456.154 627.022 456.065 617.826 454.841 608.747C452.754 595.078 442.203 560.646 446.059 554.742C449.914 548.838 447.884 537.982 447.772 526.249C447.659 514.517 464.446 527.481 464.258 507.926C464.07 488.372 485.601 365.671 483.477 348.091C481.352 330.511 502.715 314.661 502.715 314.661L522.272 314.474L558.714 443.194Z" fill="#8040D8"/>
<path d="M810.583 278.173C811.175 280.832 811.177 283.588 810.588 286.247C809.999 288.907 808.835 291.405 807.176 293.565C805.517 295.726 803.405 297.497 800.987 298.753C798.57 300.009 795.907 300.72 793.185 300.835L774.152 364.252L752.081 337.854L773.539 281.68C773.648 277.095 775.435 272.71 778.562 269.355C781.688 265.999 785.937 263.907 790.503 263.475C795.069 263.043 799.636 264.3 803.337 267.009C807.037 269.718 809.616 273.69 810.583 278.173V278.173Z" fill="#FFB8B8"/>
<path d="M609.642 298.828C609.642 298.828 655.654 281.579 680.6 376.042L713.715 410.334L741.536 360.07L737.858 348.146L759.359 299.409L796.224 320.562L787.149 354.023L788.682 370.564L779.873 380.852L765.452 434.025L756.431 451.397C756.431 451.397 745.055 473.64 725.196 477.304C719.902 478.295 714.485 478.449 709.143 477.76C698.685 476.394 687.225 471.575 675.447 460.939C631.751 421.479 605.908 391.039 605.908 391.039L609.642 298.828Z" fill="#8040D8"/>
<path d="M831.465 318.92L749.557 239.882C749.11 239.451 748.846 238.865 748.819 238.245C748.791 237.625 749.003 237.019 749.41 236.55C749.816 236.082 750.387 235.787 751.005 235.727C751.623 235.667 752.24 235.846 752.729 236.227L839.578 303.879L831.465 318.92Z" fill="#181F30"/>
<path d="M865.2 327.68C861.092 329.123 856.827 330.075 852.495 330.518C850.29 330.735 848.079 330.812 845.886 330.839C845.116 330.865 844.336 330.869 843.572 330.878C841.75 330.905 839.927 330.932 838.088 330.953C836.537 330.983 834.969 331.006 833.425 331.019C831.151 331.054 828.654 331.007 827.024 329.41C826.334 328.604 825.832 327.656 825.554 326.633C825.276 325.61 825.228 324.538 825.414 323.494C825.777 321.312 826.438 319.189 827.379 317.187C829.345 312.459 831.327 307.737 833.292 303.008L832.986 300.361C836.594 299.839 840.266 299.952 843.835 300.695C845.293 301.067 846.661 301.73 847.857 302.645C849.052 303.559 850.05 304.706 850.79 306.017C851.101 306.606 851.348 307.226 851.527 307.868C852.296 310.686 851.743 313.813 852.074 316.761C852.15 317.374 852.263 317.982 852.413 318.582C852.835 320.354 853.643 322.012 854.78 323.437C855.917 324.861 857.354 326.017 858.989 326.823C860.939 327.681 863.09 327.978 865.2 327.68V327.68Z" fill="#CCCCCC"/>
<path d="M870.96 325.389C869.25 326.601 867.275 327.387 865.2 327.68C867.157 327.013 869.079 326.248 870.96 325.389V325.389Z" fill="#E6E6E6"/>
<path d="M865.2 327.68C861.092 329.123 856.827 330.076 852.495 330.518C850.29 330.735 848.079 330.812 845.887 330.839C845.117 330.865 844.336 330.869 843.572 330.878C841.75 330.905 839.927 330.932 838.088 330.953C838.178 330.029 838.316 329.111 838.502 328.203C840.221 319.719 845.211 312.506 850.79 306.017C851.101 306.606 851.348 307.227 851.527 307.868C852.296 310.686 851.743 313.813 852.074 316.761C852.15 317.374 852.263 317.982 852.413 318.582C852.835 320.355 853.643 322.012 854.78 323.437C855.917 324.861 857.354 326.017 858.989 326.823C860.939 327.681 863.09 327.978 865.2 327.68V327.68Z" fill="#B937C9"/>
<path d="M547.926 457.004L544.671 472.512L541.904 529.716L653.091 514.664L661.628 448.426L649.827 429.038L547.926 457.004Z" fill="#FFB6B6"/>
<path d="M630.165 223.036C644.105 197.539 634.733 165.571 609.232 151.633C583.732 137.695 551.759 147.065 537.819 172.562C523.879 198.059 533.251 230.027 558.751 243.965C584.252 257.903 616.225 248.533 630.165 223.036Z" fill="#FFB7B7"/>
<path d="M504.713 385.717L490.244 348.128C490.237 332.392 495.563 317.117 505.353 304.796C515.144 292.475 528.822 283.835 544.155 280.286L544.353 280.239L554.759 266.221L597.034 270.45L604.782 286.283L635.415 304.521L670.254 345.31C681.226 353.187 687.745 363.287 689.63 375.334C693.634 400.907 675.726 426.495 673.596 429.429L668.107 460.335L541.202 478.519L540.233 478.641L504.713 385.717Z" fill="#8040D8"/>
<path d="M528.921 211.592C529.398 211.517 529.875 211.417 530.352 211.341C538.56 209.886 546.768 208.455 554.951 206.974L555.704 188.427L565.619 205.042C588.236 212.546 609.396 208.304 629.302 198.943C635.868 195.826 642.238 192.315 648.379 188.427C652.661 162.302 641.858 141.713 614.115 139.085C613.254 139.003 612.635 138.282 611.881 137.905C611.878 137.905 611.875 137.905 611.872 137.903C611.869 137.902 611.866 137.9 611.864 137.898C611.861 137.896 611.859 137.893 611.858 137.89C611.857 137.887 611.856 137.883 611.856 137.88C610.576 137.278 609.271 136.7 607.966 136.173C597.747 132.181 586.604 131.169 575.833 133.257C565.062 135.345 555.105 140.447 547.12 147.969C531.055 163.304 523.825 188.628 528.921 211.592Z" fill="#2C3242"/>
<path d="M625.435 1104.73L655.623 1118.6L723.494 1008.77L678.938 988.303L625.435 1104.73Z" fill="#FFB6B6"/>
<path d="M624.791 1086.4L673.822 1105.48L664.426 1125.92L695.398 1178.1C696.928 1180.68 697.594 1183.68 697.299 1186.66C697.004 1189.64 695.763 1192.45 693.758 1194.68C691.753 1196.9 689.088 1198.43 686.153 1199.04C683.217 1199.64 680.165 1199.3 677.442 1198.04L620.626 1171.94L620.127 1147.22L607.01 1165.68L585.588 1155.84L624.791 1086.4Z" fill="#2C3242"/>
<path d="M493.465 1172.87H526.689L542.495 1044.74L493.459 1044.74L493.465 1172.87Z" fill="#FFB6B6"/>
<path d="M475.397 909.955L475.396 909.612L487.875 888.109L475.132 860.119L474.228 690.009C469.208 567.079 540.537 507.986 541.098 507.405L542.645 505.798L657.037 502.999C657.037 502.999 717.16 679.473 764.924 838.485C767.747 847.882 775.731 857.152 773.248 866.455C753.553 940.254 730.177 1023.78 715.173 1026.14L667.654 1000.56L676.486 872.656L671.056 858.737C661.329 856.945 636.043 758.826 636.043 758.826C631.804 753.795 632.023 740.116 632.023 740.116L598.902 705.347L568.374 865.609L575.923 913.41L569.676 929.846L542.923 1065.54L542.639 1067.72L492.201 1062.69L475.397 909.955Z" fill="#181F30"/>
<path d="M482.214 1156.49L534.734 1153.35V1175.85L584.667 1210.33C587.133 1212.03 588.991 1214.48 589.968 1217.31C590.946 1220.15 590.992 1223.22 590.1 1226.08C589.208 1228.94 587.425 1231.44 585.01 1233.22C582.596 1234.99 579.677 1235.95 576.68 1235.95H514.153L503.375 1213.7L499.167 1235.95H475.592L482.214 1156.49Z" fill="#2C3242"/>
<path d="M549.083 136.573V136.618C549.089 139.372 548.738 142.115 548.038 144.778C547.927 145.245 547.793 145.734 547.638 146.201V146.223C546.146 150.98 543.572 155.326 540.119 158.921C536.666 162.517 532.427 165.264 527.734 166.947C527.045 167.213 526.333 167.436 525.621 167.636C524.122 168.071 522.59 168.383 521.04 168.57C519.648 168.767 518.243 168.864 516.837 168.859C515.738 168.863 514.639 168.811 513.546 168.703C510.986 168.444 508.469 167.869 506.051 166.991C505.673 166.881 505.301 166.747 504.939 166.591C504.758 166.526 504.579 166.452 504.405 166.368C500.371 164.68 496.722 162.189 493.68 159.048C490.637 155.906 488.265 152.179 486.708 148.093C485.15 144.007 484.439 139.647 484.618 135.278C484.797 130.909 485.862 126.621 487.749 122.676L487.771 122.654C489.352 119.344 491.497 116.335 494.109 113.76C499.936 107.956 502.503 93.4125 511.354 93.4125C511.777 93.4051 512.2 93.4199 512.622 93.4568C518.559 93.657 529.535 106.467 534.205 109.491C537.674 111.682 540.681 114.529 543.056 117.873C545.537 121.314 547.306 125.214 548.26 129.347C548.806 131.717 549.082 134.141 549.083 136.573V136.573Z" fill="#2C3242"/>
<path d="M509.684 125.346C504.676 131.176 496.836 133.442 489.763 136.475C477.28 141.95 466.321 150.388 457.837 161.055C449.352 171.722 443.599 184.298 441.074 197.692C439.119 208.601 439.375 219.894 436.286 230.529C433.215 241.165 425.613 251.599 414.702 253.444C407.318 254.705 399.916 251.855 392.971 249.041C389.151 247.506 385.331 245.964 381.512 244.417C385.496 234.422 389.474 224.426 393.446 214.43C387.062 223.864 379.638 232.549 371.314 240.324C357.625 234.805 343.923 229.287 330.21 223.768C363.948 223.896 358.191 191.15 365.739 158.294C369.888 140.239 405.216 128.014 412.143 110.837C415.886 101.52 422.22 93.4705 430.396 87.6407C438.571 81.8108 448.246 78.4449 458.275 77.9412C468.305 77.4375 478.268 79.8171 486.987 84.7985C495.706 89.7799 502.815 97.1544 507.472 106.049C514.399 108.809 514.6 119.59 509.684 125.346Z" fill="#2C3242"/>
<path d="M652.982 511.052C660.745 513.076 667.904 516.945 673.85 522.33C679.796 527.715 684.353 534.457 687.133 541.981C688.633 546.309 689.571 551.439 686.99 555.555C686.201 557.03 684.904 558.169 683.34 558.762C681.776 559.355 680.049 559.362 678.481 558.78C675.11 557.393 672.79 553.948 671.076 550.895C668.806 546.581 666.855 542.106 665.238 537.507C662.591 530.567 656.944 518.982 665.007 513.556C671.788 508.992 680.765 510.765 688.395 510.452C696.64 510.114 705.804 506.957 708.733 498.413C711.581 490.103 704.903 482.287 697.704 479.128C693.375 477.333 688.673 476.627 684.008 477.072C679.344 477.516 674.859 479.097 670.947 481.676C663.216 487.035 657.695 495.019 655.412 504.144C655.247 504.836 655.357 505.564 655.719 506.177C656.081 506.789 656.666 507.237 657.352 507.426C658.038 507.615 658.77 507.53 659.394 507.19C660.019 506.85 660.487 506.28 660.699 505.601C662.963 497.338 667.86 489.563 675.501 485.328C682.654 481.363 692.466 481.119 699.14 486.251C702.441 488.79 705.034 493.015 703.343 497.21C701.792 501.059 697.751 503.349 693.905 504.278C685.206 506.382 676.107 503.66 667.436 506.438C659.168 509.087 654.403 515.85 655.596 524.624C656.498 529.554 657.959 534.365 659.951 538.964C661.644 543.693 663.622 548.314 665.875 552.803C669.318 559.308 675.525 566.35 683.717 564.443C693.053 562.268 695.269 551.37 693.268 543.354C688.706 525.077 672.33 510.437 654.439 505.766C653.747 505.601 653.019 505.711 652.406 506.072C651.794 506.434 651.346 507.019 651.157 507.705C650.968 508.39 651.053 509.123 651.393 509.747C651.734 510.371 652.303 510.839 652.982 511.052V511.052Z" fill="#2C3242"/>
<path d="M735.031 1010.32C731.156 1005.74 725.626 1002.94 720.254 1000.26L675.176 977.814L673.893 985.814C672.189 980.552 663.823 980.166 660.431 984.534C657.04 988.903 658.125 995.506 661.433 999.939C664.741 1004.37 669.763 1007.14 674.627 1009.77C685.413 1015.61 696.198 1021.44 706.983 1027.28C712.008 1030 717.195 1032.77 722.875 1033.39C728.555 1034.01 734.917 1031.96 737.747 1027C740.721 1021.79 738.907 1014.9 735.031 1010.32Z" fill="#181F30"/>
<path d="M559.675 1052.12C554.16 1049.75 547.964 1049.72 541.961 1049.73C525.175 1049.74 508.388 1049.75 491.601 1049.77L494.025 1057.5C490.151 1053.55 482.493 1056.94 481.41 1062.36C480.327 1067.79 484.247 1073.21 489.186 1075.7C494.126 1078.19 499.855 1078.42 505.382 1078.6C517.639 1079.01 529.896 1079.41 542.153 1079.82C547.864 1080.01 553.743 1080.17 559.102 1078.19C564.461 1076.21 569.24 1071.54 569.555 1065.84C569.887 1059.84 565.189 1054.49 559.675 1052.12Z" fill="#181F30"/>
<path d="M842.719 698.59C768.859 698.59 688.597 683.874 608.875 655.577C510.287 620.583 419.892 567.765 347.464 502.829L349.609 498.528C421.688 563.15 511.682 615.727 609.862 650.574C698.586 682.068 787.975 696.66 868.332 692.809L868.472 697.979C859.986 698.388 851.401 698.592 842.719 698.59Z" fill="#B28AEA"/>
<path d="M181.034 429.088C121.855 350.979 145.324 261.831 110.652 199.639C-22.229 -38.7217 141.396 -16.7611 326.391 29.5922L326.832 34.7344C209.09 52.9021 131.656 113.491 114.384 200.963C100.961 268.943 125.593 348.651 183.742 425.402L181.034 429.088Z" fill="#B28AEA"/>
<path d="M752.018 706.352C678.158 706.352 593.275 624.402 518.174 663.339C290.788 781.229 322.089 583.958 256.763 510.591L258.907 506.29C330.987 570.911 420.981 623.489 519.161 658.336C607.885 689.829 697.274 704.422 777.632 700.571L777.771 705.741C769.285 706.15 760.701 706.354 752.018 706.352Z" fill="#B28AEA"/>
<path d="M921.461 673.81L920.225 668.908C986.283 638.963 980.607 549.773 1039.71 529.406C1489.92 374.256 1045.51 356.759 945.55 274.692C856.16 201.303 758.74 115.978 634.931 72.0338L635.918 67.0308C760.269 111.169 871.118 183.514 948.042 270.741C1025.35 358.405 1059.23 450.738 1043.44 530.729C1030.98 593.808 988.804 643.284 921.461 673.81Z" fill="#B28AEA"/>
<path d="M314.899 708.514C235.395 578.547 129.766 462.454 0 393.248L3.21499 390.385C60.7494 506.579 171.996 617.879 316.463 703.784L314.899 708.514Z" fill="#B28AEA"/>
<path d="M825.166 858.023C810.196 858.023 794.971 857.575 779.49 856.678L779.656 851.508C893.839 916.462 995.701 901.016 1074.45 797.893L1075.9 802.694C1008.43 839.14 922.447 858.023 825.166 858.023Z" fill="#B28AEA"/>
<path d="M848.566 808.547C857.093 808.547 864.005 799.28 864.005 787.848C864.005 776.416 857.093 767.148 848.566 767.148C840.04 767.148 833.128 776.416 833.128 787.848C833.128 799.28 840.04 808.547 848.566 808.547Z" fill="#7331CE"/>
<path d="M327.004 429.868C328.284 421.439 320.158 413.215 308.853 411.499C297.549 409.784 287.348 415.225 286.068 423.654C284.788 432.083 292.915 440.307 304.219 442.022C315.523 443.738 325.724 438.297 327.004 429.868Z" fill="#E6E6E6"/>
<path d="M255.931 205.271C264.458 205.271 271.37 196.004 271.37 184.572C271.37 173.14 264.458 163.873 255.931 163.873C247.404 163.873 240.492 173.14 240.492 184.572C240.492 196.004 247.404 205.271 255.931 205.271Z" fill="#B28AEA"/>
<path d="M291.013 323.822C270.879 295.765 232.877 281.266 206.133 291.438C179.39 301.61 174.032 332.601 194.167 360.658C214.301 388.715 273.57 432.849 300.314 422.677C327.057 412.505 311.148 351.879 291.013 323.822ZM291.137 410.12C287.845 414.945 279.769 415.169 273.098 410.619C266.427 406.07 263.688 398.47 266.979 393.644C270.271 388.819 278.348 388.595 285.019 393.144C291.69 397.694 294.429 405.294 291.137 410.12V410.12Z" fill="#181F30"/>
<path d="M268.284 351.267C265.777 353.293 263.269 355.32 260.762 357.347C257.684 360.184 254.041 362.338 250.071 363.665C244.62 364.925 238.922 364.586 233.659 362.688C225.987 360.21 219.263 355.433 214.399 349.004L219.819 350.212C216.943 346.884 214.605 343.127 212.889 339.077C211.618 335.319 212.327 331.504 215.758 330.475C219.686 329.297 226.009 331.946 229.306 330.041C235.008 326.748 225.634 314.486 230.83 310.703C233.858 308.498 239.916 310.679 244.966 312.842C251.247 315.234 257.2 318.413 262.683 322.301C271.653 329.227 276.619 340.144 272.956 346.463C271.703 348.335 270.12 349.963 268.284 351.267V351.267Z" fill="#B937C9"/>
<path d="M266.436 372.306C262.051 372.906 256.977 369.535 252.746 366.426L251.669 365.017C250.788 362.318 250.417 359.479 250.576 356.644C250.676 355.331 251.219 354.091 252.117 353.127C253.014 352.163 254.212 351.532 255.515 351.338C258.087 351 261.52 352.109 263.219 350.621C266.504 347.744 258.886 339.814 262.369 337.122C264.324 335.611 268.478 337.548 270.269 340.145C271.731 342.566 272.407 345.382 272.201 348.203C272.259 352.346 272.317 356.489 272.375 360.631C272.56 363.077 272.313 365.537 271.644 367.897C271.276 369.046 270.593 370.069 269.672 370.848C268.751 371.628 267.63 372.133 266.436 372.306V372.306Z" fill="#2F2E41"/>
<path d="M267.536 386.111C261.458 384.316 252.189 378.053 244.294 372.523L241.944 370.478C239.482 367.687 237.396 364.586 235.738 361.254C234.827 358.76 236 357.303 240.036 358.508C243.608 359.574 249.235 362.605 250.899 362.008C254.116 360.853 238.619 348.494 242.227 347.638C244.252 347.157 251.388 351.438 255.435 355.098C258.415 357.741 260.877 360.916 262.694 364.46C265.059 368.758 267.424 373.057 269.789 377.356C271.218 379.502 272.213 381.908 272.719 384.436C272.768 386.266 271.224 387.2 267.536 386.111Z" fill="#7331CE"/>
<path d="M1127.9 50.6867C1130.29 20.504 1150.26 56.1191 1180.45 58.5034C1187.63 59.0676 1194.63 61.0405 1201.05 64.3097C1207.46 67.5788 1213.17 72.08 1217.85 77.5562C1222.53 83.0323 1226.08 89.3761 1228.3 96.2252C1230.53 103.074 1231.38 110.294 1230.81 117.473C1230.25 124.652 1228.27 131.649 1225 138.063C1221.73 144.478 1217.22 150.186 1211.74 154.86C1206.26 159.534 1199.92 163.083 1193.07 165.304C1186.22 167.525 1178.99 168.375 1171.81 167.805C1141.63 165.42 1125.52 80.8694 1127.9 50.6867Z" fill="#B937C9"/>
<path d="M1315.84 340.49C1316.4 333.313 1318.38 326.318 1321.65 319.904C1324.92 313.491 1329.42 307.784 1334.9 303.11C1340.38 298.437 1346.72 294.887 1353.57 292.664C1360.42 290.442 1367.64 289.589 1374.81 290.156C1405 292.541 1425.19 232.603 1422.81 262.785C1420.42 292.968 1396.36 401.842 1366.18 399.458C1359 398.891 1352 396.916 1345.59 393.645C1339.17 390.375 1333.47 385.874 1328.79 380.398C1324.12 374.922 1320.57 368.58 1318.34 361.732C1316.12 354.885 1315.27 347.667 1315.84 340.49V340.49Z" fill="#B937C9"/>
<path d="M1384.65 406.553C1376.39 410.53 1366.86 408.185 1359.74 402.932C1351.63 396.957 1347.64 387.453 1346.32 377.704C1345.04 367.239 1345.92 356.625 1348.88 346.51C1351.7 336.751 1357.74 326.624 1368.52 324.611C1375.71 323.269 1383.39 326.336 1385.38 333.8C1386.14 336.794 1386.11 339.932 1385.3 342.913C1384.49 345.893 1382.93 348.615 1380.76 350.815C1374.31 357.013 1363.95 356.542 1356.46 352.603C1347.65 347.97 1342.78 338.7 1341.18 329.169C1339.27 317.838 1341.94 306.452 1345.73 295.792C1349.85 284.206 1354.98 272.967 1359.7 261.616C1368.89 239.477 1377.53 216.863 1381.19 193.056C1386.79 156.689 1378.08 113.529 1346.19 91.2663C1328.97 79.2484 1307.38 75.844 1286.85 78.4306C1265.19 81.1584 1245.28 90.6606 1227.66 103.243C1218.49 109.905 1209.79 117.179 1201.6 125.017C1199.12 127.568 1195.93 129.324 1192.45 130.061C1188.97 130.799 1185.35 130.485 1182.05 129.159C1165.1 122.262 1170.5 94.6871 1187.97 92.6325C1195.91 91.6989 1204.08 96.1271 1209.47 101.66C1215.34 107.94 1219.17 115.851 1220.46 124.353C1223.45 142.246 1216.82 161.16 1205.29 174.837C1192.27 190.289 1172.48 198.987 1153.22 203.569C1131.29 208.786 1108.74 209.052 1086.32 209.548C1063.38 210.055 1040.17 210.927 1018.02 217.507C1000.2 222.858 983.39 231.12 968.265 241.956C937.791 263.599 914.987 294.366 903.146 329.815C900.363 338.389 898.303 347.182 896.988 356.1C896.47 359.592 901.938 360.009 902.454 356.532C908.218 317.656 929.27 281.906 958.861 256.314C973.623 243.488 990.523 233.352 1008.79 226.366C1030.79 218.02 1054.16 215.903 1077.51 215.222C1101.36 214.526 1125.42 214.905 1148.91 210.131C1169.68 205.911 1190.71 197.633 1205.84 182.302C1219.19 168.784 1227.44 149.445 1226.56 130.333C1225.73 112.549 1215.94 93.5333 1197.79 88.2485C1189.27 85.7688 1180.13 87.3464 1173.81 93.8462C1170.29 97.552 1167.87 102.159 1166.81 107.157C1165.76 112.154 1166.11 117.346 1167.82 122.157C1170.08 127.385 1174.21 131.584 1179.4 133.938C1184.58 136.292 1190.46 136.632 1195.89 134.892C1199.87 133.429 1203.46 131.078 1206.4 128.017C1223.54 111.974 1242.71 97.2512 1265.03 89.2621C1285.84 81.8106 1309.78 80.2822 1330.49 88.876C1369.69 105.145 1381.47 152.362 1375.99 190.823C1372.41 215.993 1362.88 239.826 1353.13 263.141C1348.15 275.047 1342.62 286.877 1338.8 299.225C1335.39 310.28 1333.68 322.143 1336.48 333.533C1338.92 343.475 1344.7 352.611 1353.95 357.427C1362.35 361.802 1373.01 362.556 1381.24 357.354C1393.14 349.833 1395.81 329.066 1382.45 321.498C1373.58 316.476 1362.23 318.943 1354.87 325.538C1346.63 332.932 1343.26 344.004 1341.56 354.6C1338.35 374.623 1340.87 399.279 1360.65 409.99C1368.8 414.403 1378.52 415.595 1387.03 411.489C1387.66 411.158 1388.14 410.595 1388.36 409.92C1388.58 409.244 1388.54 408.509 1388.23 407.868C1387.92 407.228 1387.37 406.733 1386.7 406.487C1386.04 406.242 1385.3 406.265 1384.65 406.553V406.553Z" fill="#3F3D56"/>
<path d="M895.872 342.147C898.401 310.14 854.6 224.559 873.443 201.393C875.78 198.498 878.232 195.697 880.799 192.992C889.107 184.134 898.453 176.311 908.636 169.692C910.358 168.545 912.095 167.454 913.846 166.401C920.068 162.689 926.545 159.422 933.227 156.622C934.439 156.131 935.67 155.642 936.9 155.152C970.598 142.115 1007.83 141.455 1041.97 153.289C1076.11 165.123 1104.94 188.683 1123.33 219.777C1141.73 250.872 1148.49 287.483 1142.43 323.097C1136.36 358.71 1117.85 391.016 1090.19 414.265C1088.74 415.506 1087.25 416.709 1085.72 417.89C1070.61 429.691 1053.39 438.525 1034.99 443.926C1034.97 443.925 1034.97 443.943 1034.95 443.942C1007.36 451.997 978.055 452.128 950.39 444.32L950.353 444.317C949.744 444.14 949.134 443.964 948.526 443.769C880.861 423.778 890.094 415.287 895.872 342.147Z" fill="#B937C9"/>
<path d="M933.155 157.313C933.151 157.081 933.176 156.849 933.228 156.622C934.44 156.132 935.67 155.642 936.9 155.153C937.416 155.36 937.857 155.718 938.164 156.181C938.471 156.644 938.63 157.189 938.621 157.745C938.63 160.515 938.947 163.276 939.565 165.977C944.863 189.418 968.863 203.082 990.291 208.936C1016.51 216.121 1044.68 216.22 1069.14 229.205C1079.19 234.25 1087.86 241.666 1094.4 250.813C1101.2 260.857 1104.06 273.062 1102.41 285.083C1098.68 313.366 1076.9 334.009 1067.93 360.265C1064.23 371.081 1063.32 382.594 1067.53 393.411C1071.09 402.601 1078.13 410.984 1088.25 412.883C1088.66 412.946 1089.05 413.104 1089.38 413.344C1089.72 413.583 1090 413.899 1090.19 414.265C1088.74 415.507 1087.25 416.709 1085.72 417.89C1083.9 417.468 1082.12 416.855 1080.42 416.06C1070.74 411.446 1064.48 402.244 1061.35 392.227C1057.74 380.632 1059.11 368.569 1063.16 357.285C1072.59 330.974 1095.9 309.333 1097.35 280.284C1098.6 255.105 1077.91 237.706 1056.31 229.328C1029.59 218.969 999.643 220.508 973.319 208.878C952.61 199.727 933.251 181.389 933.155 157.313Z" fill="#3F3D56"/>
<path d="M908.636 169.693C910.358 168.546 912.095 167.454 913.846 166.401C914.049 166.656 914.196 166.952 914.275 167.268C914.355 167.584 914.365 167.913 914.306 168.234C911.533 191.727 917.842 215.392 931.941 234.389C938.037 242.724 945.498 249.97 954.008 255.819C962.915 261.893 972.928 265.562 982.815 269.679C992.542 273.729 1002.38 278.483 1009.42 286.537C1016.6 294.748 1019.62 305.343 1019.94 316.074C1020.7 341.503 1006.24 363.678 1003.26 388.427C1001.93 399.467 1003.52 410.426 1009.69 419.876C1015.02 428.033 1023.37 433.972 1033.39 433.59C1036.7 433.448 1036.48 438.271 1033.57 438.975C1033.37 439.023 1033.16 439.05 1032.96 439.055C1021.3 439.491 1011.32 432.324 1005.16 422.892C997.976 411.931 996.201 399.124 998.02 386.308C1001.56 361.511 1016.57 338.592 1014.3 312.934C1013.99 307.549 1012.55 302.29 1010.08 297.497C1007.61 292.704 1004.16 288.484 999.947 285.11C991.277 278.358 980.688 274.791 970.64 270.624C960.599 266.671 951.251 261.143 942.949 254.249C934.843 247.272 927.905 239.045 922.398 229.877C911.39 211.845 906.558 190.716 908.636 169.693V169.693Z" fill="#3F3D56"/>
<path d="M873.443 201.393C875.78 198.498 878.232 195.697 880.798 192.992C877.244 206.952 876.638 221.5 879.018 235.708C881.887 253.584 889.218 270.448 900.335 284.739C905.908 291.856 912.475 298.134 919.835 303.382C928.254 309.363 937.558 314.589 943.134 323.608C955.227 343.187 944.172 366.62 938.228 386.168C935.112 396.37 932.999 407.33 936.45 417.721C939.131 425.778 945.077 433.598 953.861 435.19C957.314 435.811 956.899 441.296 953.429 440.655C952.779 440.531 952.13 440.388 951.483 440.227C941.947 437.714 935.065 429.911 931.722 420.702C927.392 408.683 929.421 396.232 933.059 384.293C939.047 364.657 951.36 338.996 934.375 321.23C927.212 313.735 917.51 309.138 909.684 302.379C902.67 296.35 896.509 289.394 891.371 281.704C875.637 258.084 869.246 229.46 873.443 201.393V201.393Z" fill="#3F3D56"/>
<path d="M978.195 592.695V589.175H919.174V507.056H915.662V589.175H848.02V525.758C846.838 526.688 845.67 527.644 844.518 528.628V589.175H799.842C799.345 590.339 798.867 591.512 798.415 592.695H844.518V661.699H787.275C787.33 662.881 787.411 664.045 787.51 665.219H844.518V720.268H801.809C802.333 721.451 802.884 722.615 803.462 723.77H844.518V770.047H848.02V723.77H915.662V770.047H919.174V723.77H978.195V720.268H919.174C919.172 713.039 920.596 705.88 923.362 699.2C926.128 692.52 930.184 686.451 935.297 681.339C940.41 676.227 946.48 672.172 953.16 669.406C959.841 666.64 967.001 665.217 974.232 665.219H978.195V661.699H919.174V592.695H978.195ZM915.662 720.268H848.02V665.219H915.662V720.268ZM915.662 661.699H848.02V660.318C848.021 651.437 849.771 642.643 853.171 634.438C856.57 626.233 861.553 618.779 867.834 612.499C874.115 606.22 881.572 601.239 889.778 597.841C897.985 594.443 906.78 592.694 915.662 592.695V661.699Z" fill="#2C3242"/>
<path d="M811.231 1238.75L307.26 1239.31C306.683 1239.31 306.129 1239.08 305.721 1238.67C305.313 1238.26 305.084 1237.71 305.084 1237.13C305.084 1236.55 305.313 1236 305.721 1235.59C306.129 1235.19 306.683 1234.96 307.26 1234.96L811.231 1234.39C811.518 1234.39 811.801 1234.45 812.066 1234.56C812.331 1234.67 812.572 1234.83 812.774 1235.03C812.977 1235.23 813.138 1235.47 813.248 1235.74C813.357 1236 813.414 1236.28 813.414 1236.57C813.414 1236.86 813.357 1237.14 813.248 1237.4C813.138 1237.67 812.977 1237.91 812.774 1238.11C812.572 1238.31 812.331 1238.47 812.066 1238.58C811.801 1238.69 811.518 1238.75 811.231 1238.75Z" fill="#CACACA"/>
</g>
<defs>
<filter id="filter0_i_225_488" x="0" y="0" width="1423" height="1243.31" filterUnits="userSpaceOnUse" color-interpolation-filters="sRGB">
<feFlood flood-opacity="0" result="BackgroundImageFix"/>
<feBlend mode="normal" in="SourceGraphic" in2="BackgroundImageFix" result="shape"/>
<feColorMatrix in="SourceAlpha" type="matrix" values="0 0 0 0 0 0 0 0 0 0 0 0 0 0 0 0 0 0 127 0" result="hardAlpha"/>
<feOffset dy="4"/>
<feGaussianBlur stdDeviation="2"/>
<feComposite in2="hardAlpha" operator="arithmetic" k2="-1" k3="1"/>
<feColorMatrix type="matrix" values="0 0 0 0 0 0 0 0 0 0 0 0 0 0 0 0 0 0 0.25 0"/>
<feBlend mode="normal" in2="shape" result="effect1_innerShadow_225_488"/>
</filter>
<clipPath id="clip0_225_488">
<rect width="1423" height="1239.31" fill="white"/>
</clipPath>
</defs>
</svg>
