<svg width="1135" height="368" viewBox="0 0 1135 368" fill="none" xmlns="http://www.w3.org/2000/svg">
<path d="M586.995 117.171C586.347 168.229 632.497 196.719 667.26 213.66C702.977 231.039 714.975 242.185 714.833 257.73C714.567 281.516 686.343 292.014 659.932 292.422C613.853 293.136 587.061 279.982 565.762 270.033L549.163 347.705C570.533 357.552 610.102 366.14 651.135 366.517C747.455 366.517 810.47 318.971 810.811 245.253C811.188 151.696 681.403 146.517 682.29 104.7C682.596 92.0195 694.695 78.4882 721.208 75.0477C734.332 73.3098 770.559 71.9797 811.631 90.8934L827.752 15.744C805.664 7.70144 777.275 0.000276685 741.931 0.000276685C651.273 0.000276685 587.509 48.1934 586.995 117.171V117.171ZM982.653 6.47332C965.065 6.47332 950.243 16.7326 943.628 32.4763L806.041 360.997H902.29L921.443 308.064H1039.06L1050.17 360.997H1135L1060.97 6.47332H982.653V6.47332ZM996.118 102.243L1023.89 235.371H947.823L996.118 102.243V102.243ZM470.298 6.47775L394.43 360.992H486.148L561.98 6.46889H470.298V6.47775ZM334.617 6.46889L239.152 247.776L200.536 42.6027C196.005 19.6987 178.111 6.47332 158.239 6.47332H2.18576L0 16.7681C32.0371 23.72 68.437 34.9326 90.4896 46.9299C103.986 54.2586 107.834 60.6651 112.267 78.0803L185.408 360.997H282.331L430.928 6.47332H334.617" fill="url(#paint0_linear_225_540)"/>
<defs>
<linearGradient id="paint0_linear_225_540" x1="521.805" y1="373.869" x2="532.414" y2="-2.54872" gradientUnits="userSpaceOnUse">
<stop stop-color="#222357"/>
<stop offset="1" stop-color="#254AA5"/>
</linearGradient>
</defs>
</svg>
