<svg width="611" height="485" viewBox="0 0 611 485" fill="none" xmlns="http://www.w3.org/2000/svg">
<path d="M111.077 481.923V449.867C111.077 437.576 103.74 429.564 91.1649 429.564C84.8782 429.564 78.0665 431.701 73.3504 438.647C69.6844 432.769 64.4455 429.564 56.5861 429.564C51.3448 429.564 46.1084 431.166 41.9149 437.043V430.633H30.9121V481.923H41.9149V453.605C41.9149 444.525 46.631 440.249 53.9678 440.249C61.2998 440.249 64.9706 445.058 64.9706 453.605V481.923H75.9734V453.605C75.9734 444.525 81.2099 440.249 88.0216 440.249C95.3583 440.249 99.0243 445.058 99.0243 453.605V481.923H111.077V481.923ZM274.021 430.633H256.209V415.139H245.206V430.633H235.251V440.782H245.204V464.292C245.204 476.048 249.92 482.991 262.496 482.991C267.212 482.991 272.448 481.39 276.119 479.253L272.973 469.634C269.83 471.771 266.164 472.307 263.543 472.307C258.304 472.307 256.209 469.101 256.209 463.757V440.782H274.021V430.633V430.633ZM367.285 429.562C360.998 429.562 356.807 432.769 354.186 437.043V430.633H343.183V481.923H354.186V453.072C354.186 444.525 357.852 439.716 364.664 439.716C366.759 439.716 369.38 440.251 371.476 440.784L374.619 430.1C372.523 429.564 369.38 429.564 367.285 429.564V429.562ZM226.344 434.906C221.103 431.166 213.768 429.564 205.909 429.564C193.336 429.564 184.953 435.975 184.953 446.126C184.953 454.676 191.24 459.483 202.243 461.087L207.482 461.622C213.246 462.688 216.389 464.292 216.389 466.965C216.389 470.703 212.198 473.375 204.861 473.375C197.527 473.375 191.763 470.703 188.094 468.033L182.856 476.581C188.619 480.854 196.479 482.991 204.336 482.991C219.007 482.991 227.392 476.048 227.392 466.429C227.392 457.346 220.58 452.537 210.1 450.935L204.861 450.4C200.145 449.865 196.479 448.799 196.479 445.593C196.479 441.852 200.145 439.716 205.909 439.716C212.198 439.716 218.484 442.385 221.628 443.989L226.344 434.906V434.906ZM518.705 429.564C512.416 429.564 508.225 432.769 505.605 437.043V430.633H494.602V481.923H505.605V453.072C505.605 444.525 509.273 439.716 516.082 439.716C518.18 439.716 520.801 440.251 522.896 440.784L526.04 430.1C523.944 429.564 520.801 429.564 518.705 429.564V429.564ZM378.287 456.278C378.287 471.771 388.765 482.991 405.009 482.991C412.343 482.991 417.582 481.39 422.821 477.116L417.582 468.033C413.391 471.238 409.2 472.84 404.484 472.84C395.577 472.84 389.29 466.429 389.29 456.278C389.29 446.662 395.577 440.249 404.484 439.716C409.2 439.716 413.391 441.317 417.582 444.525L422.821 435.442C417.582 431.166 412.343 429.564 405.009 429.564C388.765 429.564 378.287 440.784 378.287 456.278ZM479.933 456.278V430.633H468.93V437.043C465.262 432.236 460.023 429.564 453.211 429.564C439.065 429.564 428.062 440.784 428.062 456.278C428.062 471.771 439.065 482.991 453.211 482.991C460.546 482.991 465.787 480.321 468.93 475.512V481.923H479.933V456.278V456.278ZM439.588 456.278C439.588 447.195 445.352 439.716 454.782 439.716C463.689 439.716 469.978 446.662 469.978 456.278C469.978 465.361 463.689 472.84 454.782 472.84C445.352 472.304 439.588 465.361 439.588 456.278V456.278ZM308.08 429.564C293.408 429.564 282.928 440.249 282.928 456.278C282.928 472.307 293.406 482.991 308.602 482.991C315.937 482.991 323.273 480.854 329.037 476.048L323.796 468.033C319.605 471.238 314.366 473.375 309.127 473.375C302.316 473.375 295.504 470.17 293.931 461.084H331.133V456.813C331.658 440.249 322.226 429.564 308.077 429.564H308.08ZM308.08 439.18C314.889 439.18 319.607 443.456 320.653 451.471H294.456C295.504 444.525 300.22 439.18 308.08 439.18ZM581.054 456.278V410.33H570.051V437.043C566.382 432.236 561.144 429.564 554.332 429.564C540.186 429.564 529.183 440.784 529.183 456.278C529.183 471.771 540.186 482.991 554.332 482.991C561.669 482.991 566.907 480.321 570.051 475.512V481.923H581.054V456.278V456.278ZM540.711 456.278C540.711 447.195 546.472 439.716 555.905 439.716C564.812 439.716 571.099 446.662 571.099 456.278C571.099 465.361 564.812 472.84 555.905 472.84C546.472 472.304 540.711 465.361 540.711 456.278V456.278ZM172.9 456.278V430.633H161.898V437.043C158.229 432.236 152.99 429.564 146.179 429.564C132.033 429.564 121.03 440.784 121.03 456.278C121.03 471.771 132.033 482.991 146.179 482.991C153.516 482.991 158.754 480.321 161.898 475.512V481.923H172.9V456.278V456.278ZM132.033 456.278C132.033 447.195 137.797 439.716 147.227 439.716C156.134 439.716 162.423 446.662 162.423 456.278C162.423 465.361 156.134 472.84 147.227 472.84C137.797 472.304 132.033 465.361 132.033 456.278V456.278Z" fill="black"/>
<path d="M222.677 41.1387H387.718V343.543H222.677V41.1387Z" fill="#FF5F00"/>
<path d="M233.156 192.342C233.156 130.9 261.449 76.4024 304.935 41.1388C272.976 15.4937 232.634 0 188.623 0C84.3539 0 0 86.0184 0 192.342C0 298.663 84.3539 384.684 188.62 384.684C232.631 384.684 272.974 369.191 304.935 343.543C261.449 308.815 233.156 253.784 233.156 192.342V192.342Z" fill="#EB001B"/>
<path d="M610.392 192.342C610.392 298.663 526.038 384.684 421.772 384.684C377.761 384.684 337.419 369.191 305.458 343.543C349.469 308.282 377.239 253.784 377.239 192.342C377.239 130.9 348.944 76.4024 305.458 41.1388C337.416 15.4937 377.761 0 421.772 0C526.038 0 610.395 86.5539 610.395 192.342H610.392Z" fill="#F79E1B"/>
</svg>
