<svg width="300" height="300" viewBox="0 0 300 300" fill="none" xmlns="http://www.w3.org/2000/svg">
<path d="M203.906 140.625H159.375V96.0938C159.375 94.8047 158.32 93.75 157.031 93.75H142.969C141.68 93.75 140.625 94.8047 140.625 96.0938V140.625H96.0938C94.8047 140.625 93.75 141.68 93.75 142.969V157.031C93.75 158.32 94.8047 159.375 96.0938 159.375H140.625V203.906C140.625 205.195 141.68 206.25 142.969 206.25H157.031C158.32 206.25 159.375 205.195 159.375 203.906V159.375H203.906C205.195 159.375 206.25 158.32 206.25 157.031V142.969C206.25 141.68 205.195 140.625 203.906 140.625Z" fill="#7331CE"/>
<path d="M150 18.75C77.5195 18.75 18.75 77.5195 18.75 150C18.75 222.48 77.5195 281.25 150 281.25C222.48 281.25 281.25 222.48 281.25 150C281.25 77.5195 222.48 18.75 150 18.75ZM150 258.984C89.8242 258.984 41.0156 210.176 41.0156 150C41.0156 89.8242 89.8242 41.0156 150 41.0156C210.176 41.0156 258.984 89.8242 258.984 150C258.984 210.176 210.176 258.984 150 258.984Z" fill="#7331CE"/>
</svg>
