<svg width="300" height="300" viewBox="0 0 300 300" fill="none" xmlns="http://www.w3.org/2000/svg">
<path d="M150 18.75C77.5195 18.75 18.75 77.5195 18.75 150C18.75 222.48 77.5195 281.25 150 281.25C222.48 281.25 281.25 222.48 281.25 150C281.25 77.5195 222.48 18.75 150 18.75ZM150 258.984C89.8242 258.984 41.0156 210.176 41.0156 150C41.0156 89.8242 89.8242 41.0156 150 41.0156C210.176 41.0156 258.984 89.8242 258.984 150C258.984 210.176 210.176 258.984 150 258.984Z" fill="#B937C9"/>
<path d="M196.875 168.75H103.125C100.639 168.75 98.254 166.775 96.4959 163.258C94.7377 159.742 93.75 154.973 93.75 150C93.75 145.027 94.7377 140.258 96.4959 136.742C98.254 133.225 100.639 131.25 103.125 131.25H196.875C199.361 131.25 201.746 133.225 203.504 136.742C205.262 140.258 206.25 145.027 206.25 150C206.25 154.973 205.262 159.742 203.504 163.258C201.746 166.775 199.361 168.75 196.875 168.75Z" fill="#B937C9"/>
</svg>
