<svg width="254" height="253" viewBox="0 0 254 253" fill="none" xmlns="http://www.w3.org/2000/svg">
<path d="M115.432 8.9125C119.432 -1.6375 134.57 -1.6375 138.582 8.9125L164.457 80.5875C166.27 85.3375 170.882 88.5 176.032 88.5H239.62C251.37 88.5 256.495 103.125 247.257 110.288L202.007 151C199.98 152.558 198.499 154.718 197.776 157.171C197.053 159.623 197.125 162.241 197.982 164.65L214.507 234.688C218.532 245.938 205.507 255.6 195.657 248.675L134.195 209.675C132.09 208.196 129.58 207.402 127.007 207.402C124.434 207.402 121.924 208.196 119.82 209.675L58.3571 248.675C48.5196 255.6 35.4821 245.925 39.5071 234.688L56.0321 164.65C56.8893 162.241 56.9615 159.623 56.2384 157.171C55.5153 154.718 54.034 152.558 52.0071 151L6.75706 110.288C-2.49294 103.125 2.65706 88.5 14.3821 88.5H77.9696C80.4732 88.5083 82.9204 87.7563 84.9873 86.3434C87.0542 84.9305 88.6434 82.9233 89.5446 80.5875L115.42 8.9125H115.432Z" fill="#939393" stroke="#939393" stroke-width="2" stroke-linecap="round" stroke-linejoin="round"/>
</svg>
