<svg width="300" height="300" viewBox="0 0 300 300" fill="none" xmlns="http://www.w3.org/2000/svg">
<path d="M138.427 32.9125C142.427 22.3625 157.564 22.3625 161.577 32.9125L187.452 104.587C189.264 109.337 193.877 112.5 199.027 112.5H262.614C274.364 112.5 279.489 127.125 270.252 134.287L225.002 175C222.975 176.558 221.493 178.718 220.77 181.171C220.047 183.623 220.119 186.241 220.977 188.65L237.502 258.687C241.527 269.937 228.502 279.6 218.652 272.675L157.189 233.675C155.084 232.196 152.574 231.402 150.002 231.402C147.429 231.402 144.919 232.196 142.814 233.675L81.3517 272.675C71.5142 279.6 58.4767 269.925 62.5017 258.687L79.0267 188.65C79.8839 186.241 79.9562 183.623 79.2331 181.171C78.5099 178.718 77.0287 176.558 75.0017 175L29.7517 134.287C20.5017 127.125 25.6517 112.5 37.3767 112.5H100.964C103.468 112.508 105.915 111.756 107.982 110.343C110.049 108.93 111.638 106.923 112.539 104.587L138.414 32.9125H138.427Z" fill="#939393" stroke="#939393" stroke-width="2" stroke-linecap="round" stroke-linejoin="round"/>
<path d="M138.427 32.9125C142.427 22.3625 157.564 22.3625 161.577 32.9125L187.452 104.587C189.264 109.337 193.877 112.5 199.027 112.5H262.614C274.364 112.5 279.489 127.125 270.252 134.287L225.002 175C222.975 176.558 221.493 178.718 220.77 181.171C220.047 183.623 220.119 186.241 220.977 188.65L237.502 258.687C241.527 269.937 228.502 279.6 218.652 272.675L157.189 233.675C155.084 232.196 152.574 231.402 150.002 231.402C147.429 231.402 144.919 232.196 142.814 233.675L81.3517 272.675C71.5142 279.6 58.4767 269.925 62.5017 258.687L79.0267 188.65C79.8839 186.241 79.9562 183.623 79.2331 181.171C78.5099 178.718 77.0287 176.558 75.0017 175L29.7517 134.287C20.5017 127.125 25.6517 112.5 37.3767 112.5H100.964C103.468 112.508 105.915 111.756 107.982 110.343C110.049 108.93 111.638 106.923 112.539 104.587L138.414 32.9125H138.427Z" fill="#FFC700" stroke="#FFC700" stroke-width="2" stroke-linecap="round" stroke-linejoin="round"/>
</svg>
