<svg width="109" height="109" viewBox="0 0 109 109" fill="none" xmlns="http://www.w3.org/2000/svg">
<g clip-path="url(#clip0_59_133)">
<path d="M62.7602 37.2303C64.323 37.699 65.9495 37.9124 67.5762 37.8619C70.8458 37.7625 74.1051 36.6032 76.8038 34.3386C83.1865 28.9829 84.0191 19.4657 78.6634 13.0832C73.3064 6.69904 63.7905 5.8679 57.408 11.2236C54.7165 13.4821 53.0125 16.48 52.3413 19.6702C52.0058 21.2713 51.9297 22.9205 52.122 24.5491" fill="#E1F4F9"/>
<path d="M65.714 38.6822C64.6305 38.5874 63.5583 38.3819 62.5093 38.0673L63.0113 36.3932C64.4866 36.8358 66.0133 37.0361 67.5493 36.9883C70.7654 36.8904 73.7712 35.7428 76.2422 33.6692C79.1503 31.229 80.9341 27.8021 81.265 24.02C81.5959 20.2377 80.4343 16.5531 77.994 13.645C72.9563 7.64135 63.9734 6.85528 57.9698 11.8931C55.5077 13.959 53.8571 16.7105 53.1964 19.8502C52.8784 21.3674 52.8089 22.9141 52.9897 24.4467L51.254 24.6515C51.0509 22.9305 51.1289 21.1943 51.4861 19.4909C52.2281 15.9639 54.0817 12.8738 56.8464 10.554C63.5884 4.89677 73.6757 5.77947 79.3329 12.5213C82.0733 15.7872 83.3777 19.9248 83.0061 24.1721C82.6345 28.4195 80.6313 32.2677 77.3656 35.0081C74.5907 37.3365 71.2148 38.6254 67.6028 38.7354C66.9711 38.7548 66.3407 38.7371 65.714 38.6822Z" fill="#333333"/>
<path d="M77.6411 17.1622C77.3705 17.1386 77.1151 16.9895 76.9655 16.7385C76.6515 16.2109 76.2905 15.703 75.8926 15.2288C75.2407 14.4519 74.4927 13.7674 73.6691 13.1941C73.2731 12.9183 73.1755 12.3736 73.4512 11.9776C73.7271 11.5815 74.2716 11.4841 74.6677 11.7596C75.6179 12.4212 76.4805 13.2104 77.2315 14.1054C77.6895 14.6515 78.1052 15.2364 78.4673 15.8446C78.7142 16.2594 78.5779 16.7958 78.1634 17.0425C77.9998 17.1397 77.8171 17.1776 77.6411 17.1622Z" fill="white"/>
<path d="M74.9734 32.8267C74.7505 32.8072 74.5353 32.7027 74.38 32.5179C74.0697 32.1481 74.1179 31.5969 74.4877 31.2868C78.0664 28.2839 79.4586 23.2959 77.9521 18.8749C77.7965 18.4181 78.0406 17.9216 78.4974 17.7659C78.9546 17.6103 79.4509 17.8544 79.6064 18.3112C80.4524 20.7939 80.5369 23.4497 79.8508 25.9917C79.1486 28.5937 77.6826 30.8876 75.6112 32.6258C75.4264 32.7807 75.1962 32.8462 74.9734 32.8267Z" fill="white"/>
<path d="M57.8839 20.4811C59.3439 20.6088 60.631 19.5288 60.7588 18.0688C60.8865 16.6088 59.8065 15.3217 58.3465 15.1939C56.8865 15.0662 55.5994 16.1462 55.4716 17.6062C55.3439 19.0662 56.4239 20.3533 57.8839 20.4811Z" fill="#F9E33D"/>
<path d="M70.1821 35.1373C71.6421 35.265 72.9292 34.185 73.0569 32.725C73.1847 31.265 72.1047 29.9779 70.6447 29.8502C69.1847 29.7224 67.8976 30.8025 67.7698 32.2625C67.6421 33.7225 68.7221 35.0096 70.1821 35.1373Z" fill="#F9E33D"/>
<path d="M57.8078 21.3517C56.8691 21.2696 56.0187 20.8269 55.4128 20.1051C54.1626 18.6149 54.3577 16.3856 55.8476 15.1354C56.5696 14.5297 57.484 14.2413 58.4226 14.3234C59.3613 14.4055 60.2117 14.8482 60.8174 15.5702C61.423 16.292 61.7115 17.2063 61.6293 18.1452C61.5472 19.0838 61.1044 19.9342 60.3826 20.5401C59.6608 21.1454 58.7464 21.4338 57.8078 21.3517ZM58.2703 16.0644C57.7967 16.0229 57.3354 16.1684 56.9711 16.4741C56.2194 17.1048 56.121 18.2298 56.7517 18.9815C57.0573 19.3456 57.4863 19.5689 57.9601 19.6104C58.4337 19.6518 58.895 19.5064 59.2591 19.2008C59.6234 18.8953 59.8468 18.4663 59.8882 17.9927C59.9296 17.5191 59.7842 17.0577 59.4785 16.6934C59.173 16.3291 58.7437 16.1058 58.2703 16.0644Z" fill="#666666"/>
<path d="M70.1059 36.0063C69.2059 35.9275 68.3362 35.5063 67.711 34.7613C67.1053 34.0393 66.8169 33.1249 66.899 32.1862C66.9812 31.2476 67.424 30.3972 68.1458 29.7915C68.8676 29.1859 69.782 28.8974 70.7206 28.9796C71.6593 29.0617 72.5097 29.5045 73.1155 30.2263C74.3657 31.7163 74.1707 33.9456 72.6807 35.196C71.9358 35.8211 71.0057 36.085 70.1059 36.0063ZM70.5683 30.7207C70.0947 30.6793 69.6334 30.8247 69.2692 31.1302C68.9049 31.4359 68.6816 31.865 68.6402 32.3386C68.5987 32.8122 68.7442 33.2735 69.0499 33.6378C69.6808 34.3895 70.8055 34.4881 71.5573 33.8572C72.309 33.2264 72.4074 32.1015 71.7766 31.3498C71.4711 30.9855 71.042 30.7621 70.5683 30.7207Z" fill="#666666"/>
<path d="M55.5087 31.4145C52.2156 27.4899 52.7293 21.6179 56.6539 18.325L59.1181 16.2573C63.0426 12.9642 68.9144 13.4781 72.2076 17.4025L73.2881 18.6903C76.5812 22.6148 76.0675 28.4868 72.1429 31.7798L69.6788 33.8474C65.7542 37.1405 59.8824 36.6266 56.5893 32.7022L55.5087 31.4145Z" fill="#8FCDF7"/>
<path d="M16.971 28.4138L15.8383 29.3642C15.2171 29.8855 15.1362 30.81 15.6562 31.4299L19.1891 30.6467L16.971 28.4138Z" fill="#F9763D"/>
<path d="M26.3353 77.5979L20.4876 70.6287L23.0394 69.8293L25.5208 72.7865L26.3353 77.5979Z" fill="#F9763D"/>
<path d="M38.2536 65.6304C37.798 66.0323 37.0952 66.6294 36.2026 67.3143L32.4629 62.8575L32.4616 62.856C32.8948 62.3893 33.3135 61.9024 33.7085 61.3962C35.1737 62.8576 36.6887 64.2699 38.2536 65.6304Z" fill="#158ACC"/>
<path d="M32.4629 62.8575L36.2026 67.3143C35.4878 67.865 34.6518 68.4705 33.7258 69.0776L30.2721 64.9616C31.0194 64.3148 31.761 63.6112 32.4616 62.856L32.4629 62.8575Z" fill="#53AEF9"/>
<path d="M30.2722 64.9618L33.726 69.0778C32.9095 69.6127 32.0219 70.1482 31.0868 70.6473L27.8938 66.842C28.6627 66.2828 29.47 65.6546 30.2722 64.9618Z" fill="#53AEF9"/>
<path d="M27.8936 66.8417L31.0866 70.647C30.1755 71.1308 29.2164 71.5812 28.2317 71.9594L25.3539 68.5298C26.0962 68.0768 26.9677 67.5104 27.8936 66.8417Z" fill="#53AEF9"/>
<path d="M25.3537 68.5297L28.2315 71.9593C27.3462 72.3008 26.4379 72.5854 25.5206 72.7864L23.0392 69.8292C23.0394 69.8292 23.9732 69.3755 25.3537 68.5297Z" fill="#53AEF9"/>
<path d="M69.8142 30.0611L67.4839 32.0165C64.7246 34.3318 60.6089 33.9717 58.2935 31.2124L57.2716 29.9945C54.9562 27.2352 55.3163 23.1195 58.0757 20.8041L60.4059 18.8488C63.1653 16.5334 67.281 16.8935 69.5963 19.6528L70.6183 20.8707C72.9336 23.6302 72.5736 27.7457 69.8142 30.0611Z" fill="#D8B86F"/>
<path d="M68.3194 28.2799L65.9892 30.2352C63.2298 32.5506 59.7109 32.9015 58.1311 31.019L57.434 30.1882C55.8542 28.3055 56.811 24.901 59.5704 22.5856L61.9007 20.6303C64.66 18.3149 68.1789 17.964 69.7587 19.8465L70.4559 20.6774C72.0355 22.5598 71.0788 25.9645 68.3194 28.2799Z" fill="#F7D789"/>
<path d="M13.1172 58.0045L11.8868 60.3787L6.03886 53.4094L10.6358 55.0473L13.1172 58.0045Z" fill="#F9763D"/>
<path d="M13.1172 58.0044L10.6358 55.0472C10.9928 54.1789 11.431 53.3337 11.921 52.5211L14.7988 55.9507C13.7262 57.1636 13.1172 58.0044 13.1172 58.0044Z" fill="#53AEF9"/>
<path d="M19.8956 43.7493C20.9637 45.5267 22.0899 47.2651 23.2748 48.9618C22.7078 49.2629 22.1556 49.5908 21.6207 49.9363L21.6195 49.9348L17.8798 45.4779C18.7091 44.7178 19.4207 44.1281 19.8956 43.7493Z" fill="#158ACC"/>
<path d="M14.7988 55.9509L11.9209 52.5211C12.4646 51.6168 13.0744 50.7505 13.7091 49.9374L16.9021 53.7427C16.083 54.5384 15.3738 55.2984 14.7988 55.9509Z" fill="#53AEF9"/>
<path d="M21.6193 49.9346L21.6206 49.9362C20.7552 50.495 19.9335 51.1032 19.1668 51.7268L15.7131 47.6108C16.4717 46.8044 17.2132 46.0862 17.8796 45.4778L21.6193 49.9346Z" fill="#53AEF9"/>
<path d="M16.9023 53.7427L13.7092 49.9374C14.3631 49.103 15.0447 48.3221 15.7132 47.6109L19.167 51.7269C18.3452 52.3965 17.5864 53.0824 16.9023 53.7427Z" fill="#53AEF9"/>
<path d="M62.2837 57.5029C61.9215 57.3267 61.5852 57.0723 61.3087 56.743C60.2577 55.4905 60.4224 53.6215 61.6752 52.5704C62.5607 51.8273 63.7561 51.6908 64.7518 52.1207C65.409 50.501 65.9207 49.0423 66.3164 47.8093C67.1625 45.1618 67.4649 43.5419 67.4649 43.5419C67.5929 43.011 67.6846 42.4688 67.7364 41.9231L67.401 37.554C67.2166 36.8471 66.9708 36.1522 66.658 35.4743L66.6568 35.4728C62.6702 38.5201 56.9518 37.9195 53.692 34.0347C50.4335 30.1514 50.835 24.4155 54.5283 21.0187C53.9161 20.5944 53.2721 20.2287 52.6041 19.9226L48.3595 18.8336C47.8145 18.7914 47.2698 18.7878 46.7197 18.8186C46.7197 18.8186 45.0704 18.8363 42.3188 19.2099C40.8749 19.4048 39.1303 19.6994 37.1599 20.1415L33.3466 21.1156L33.3454 21.1141C28.468 22.5159 22.7308 24.777 16.9712 28.4135L18.1535 29.6026L18.2876 29.7389L19.1894 30.6464C19.1894 30.6464 27.1386 27.0784 32.551 27.4729L32.5379 27.4839L29.5171 30.0187L17.714 39.9226C18.4106 41.2165 19.1369 42.4929 19.8958 43.7493C20.9638 45.5267 22.0901 47.2651 23.275 48.9618C24.8259 51.1858 26.4757 53.3368 28.2166 55.4112C29.9575 57.4859 31.7892 59.484 33.7089 61.3962C35.174 62.8576 36.689 64.27 38.2539 65.6303C39.3597 66.5932 40.4906 67.5301 41.6449 68.4424C41.6461 68.4439 41.6461 68.4439 41.6472 68.4452L53.4503 58.5412L56.4712 56.0065L56.4799 55.9992C55.9273 61.3963 51.0362 68.5999 51.0362 68.5999L51.8841 69.8012L52.8499 71.1721C57.0384 66.5671 60.0891 61.7767 62.2837 57.5029ZM45.6639 49.1242L37.4364 39.3191L46.3502 31.8396L54.5777 41.6448L45.6639 49.1242Z" fill="#44A1E0"/>
<path d="M61.6998 54.9052L61.6986 54.9037L63.3201 51.3175C64.0976 49.4539 64.6904 47.7869 65.1333 46.3988C65.1371 46.3858 65.1421 46.3741 65.1459 46.3611C65.7005 44.628 66.0329 42.8324 66.1477 41.0152L66.4384 36.4062C66.3938 36.1828 66.342 35.9627 66.2808 35.7459C59.982 37.3728 50.0899 32.6253 54.1935 21.3408C53.9891 21.244 53.7802 21.1534 53.5678 21.0706L48.9798 20.5554C47.1703 20.3528 45.3432 20.367 43.5401 20.6123C43.5277 20.6152 43.5142 20.6167 43.5008 20.6181C42.0568 20.813 40.3122 21.1076 38.3419 21.5496L34.5286 22.5238L34.5273 22.5223C29.687 23.9128 24.0014 26.15 18.2874 29.7383L19.1893 30.6459C19.1893 30.6459 27.1385 27.0778 32.5508 27.4724L31.0948 31.0945C31.3287 31.1739 19.2715 41.7785 19.2715 41.7785C19.8482 42.9293 20.4533 44.0611 21.0909 45.173C21.988 46.7469 22.9422 48.28 23.9549 49.7715C25.1131 51.4806 26.3487 53.1348 27.6533 54.7307C27.8395 54.9586 28.0273 55.185 28.2163 55.4105C28.4054 55.6358 28.596 55.8601 28.788 56.083C30.1332 57.6452 31.5478 59.149 33.0297 60.5866C34.3226 61.8429 35.6655 63.0501 37.0594 64.2068C38.044 65.0253 39.0537 65.8177 40.0867 66.5854C40.088 66.587 40.088 66.587 40.0891 66.5883L52.6276 56.0672C52.613 56.3109 56.4814 55.9921 56.4814 55.9921L56.4811 55.9947C56.4809 55.9973 56.4809 55.9973 56.4794 55.9986C56.3803 56.9631 56.1438 57.9839 55.8207 59.0132C55.7801 59.1409 55.7395 59.2684 55.6962 59.3958C55.5982 59.6897 55.4937 59.9818 55.3838 60.2734C55.3208 60.442 55.2567 60.609 55.1913 60.7747C54.4391 62.6712 53.4932 64.4868 52.6944 65.8907C52.6293 66.0067 52.5647 66.1176 52.5031 66.2261C52.3484 66.4936 52.2008 66.7431 52.0618 66.9705C52.0066 67.066 51.9519 67.1563 51.8989 67.2427C51.808 67.3927 51.7224 67.5311 51.6416 67.6579C51.6149 67.7025 51.59 67.7431 51.5637 67.7824C51.5138 67.8636 51.4672 67.9373 51.4223 68.0068C51.1803 68.3873 51.0357 68.5995 51.0357 68.5995L51.7729 69.6453C56.2993 64.6411 59.49 59.4305 61.6998 54.9052ZM45.1294 48.4865L37.9724 39.9571L46.886 32.4776L54.0431 41.0071L45.1294 48.4865Z" fill="#53AEF9"/>
<path d="M38.8655 22.1743L36.148 24.4545L33.3464 21.1158L33.3452 21.1142C34.5096 20.7798 35.6257 20.4932 36.6791 20.2494C36.8417 20.2113 37.0015 20.1758 37.1597 20.1414L38.8655 22.1743Z" fill="#F9E33D"/>
<path d="M62.2836 57.5031C61.9215 57.3268 61.5851 57.0725 61.3087 56.7432C60.2577 55.4907 60.4224 53.6217 61.6751 52.5705C62.5607 51.8274 63.756 51.6909 64.7518 52.1209C64.6132 52.4661 64.4671 52.8202 64.3123 53.1814C63.7359 54.5365 63.0654 55.9879 62.2836 57.5031Z" fill="#F9E33D"/>
<path d="M62.8211 36.8513C60.2277 36.6244 57.7215 35.4108 55.9197 33.2637L54.8392 31.976C51.2364 27.6824 51.7985 21.2581 56.0921 17.6552L58.5563 15.5875C60.633 13.8449 63.2681 13.0156 65.9758 13.2525C65.9759 13.2525 65.9758 13.2525 65.9758 13.2525C68.6834 13.4894 71.1343 14.7636 72.8771 16.8406L73.9576 18.1283C77.5604 22.4221 76.9983 28.8462 72.7047 32.4492L70.2406 34.5168C68.0938 36.3179 65.4138 37.0782 62.8211 36.8513ZM65.8233 14.9938C63.5807 14.7976 61.3988 15.4839 59.6797 16.9265L57.2155 18.9942C53.6602 21.9775 53.1948 27.2972 56.1781 30.8526L57.2586 32.1403C60.2421 35.6958 65.5619 36.1613 69.1169 33.1778L71.5811 31.1101C75.1365 28.1268 75.6019 22.8071 72.6186 19.2518L71.538 17.964C70.0954 16.2449 68.0658 15.19 65.8233 14.9938Z" fill="#666666"/>
<path d="M62.6461 34.388C60.6774 34.2158 58.8939 33.2876 57.624 31.7742L56.6021 30.5563C53.9802 27.4317 54.3893 22.7566 57.5138 20.1347L59.8441 18.1794C61.3576 16.9095 63.2751 16.3049 65.2438 16.4772C67.2125 16.6494 68.9959 17.5777 70.2657 19.0912L71.2876 20.309C73.9094 23.4336 73.5004 28.1088 70.3758 30.7306L68.0455 32.6859C66.5321 33.9557 64.6146 34.5602 62.6461 34.388ZM65.0915 18.2185C63.588 18.0869 62.1235 18.5487 60.9677 19.5185L58.6374 21.4738C56.2511 23.4762 55.9387 27.0467 57.9411 29.433L58.963 30.6509C59.9328 31.8067 61.2949 32.5155 62.7984 32.6471C64.3018 32.7786 65.7663 32.3171 66.9221 31.3472L69.2524 29.3919C71.6387 27.3895 71.9511 23.819 69.9487 21.4327L68.9268 20.2148C67.957 19.0588 66.5949 18.35 65.0915 18.2185Z" fill="#666666"/>
<path d="M13.0408 58.8749C12.8115 58.8548 12.5975 58.7447 12.4476 58.5663L9.96627 55.6089C9.75734 55.3599 9.70378 55.0156 9.82746 54.7148C10.1832 53.8496 10.6358 52.9597 11.1726 52.0697C11.6986 51.195 12.3204 50.2964 13.0203 49.3997C13.6477 48.5995 14.339 47.7968 15.0766 47.0123C15.7776 46.2671 16.5224 45.5338 17.2906 44.8324C18.1485 44.0464 18.8846 43.4379 19.3508 43.0661L20.4406 44.4325C19.9957 44.7873 19.2927 45.3684 18.4701 46.1221C17.7335 46.7947 17.0205 47.4968 16.3498 48.2095C15.6482 48.9559 14.9911 49.7186 14.397 50.4765C13.7416 51.3162 13.1602 52.1561 12.6699 52.9715C12.2784 53.6208 11.9371 54.2665 11.6518 54.8983L13.0914 56.6141C13.3662 56.2748 13.7197 55.852 14.1444 55.3718C14.83 54.594 15.5535 53.8347 16.2936 53.1159C17.0653 52.3711 17.8457 51.6763 18.6148 51.0494C19.4565 50.3647 20.3081 49.7434 21.1467 49.202C21.723 48.8298 22.3012 48.4893 22.865 48.19L23.2727 48.9578L23.8382 49.6301C23.7912 49.6695 23.7388 49.7051 23.6847 49.7337C23.1646 50.0098 22.6298 50.325 22.0948 50.6705C21.3095 51.1774 20.51 51.761 19.7184 52.4049C18.9876 53.0007 18.2441 53.6627 17.5092 54.3719C16.8034 55.0574 16.1114 55.7837 15.4546 56.5289C14.4267 57.6912 13.8308 58.5094 13.825 58.5175C13.667 58.7353 13.4172 58.8683 13.1483 58.8778C13.1121 58.879 13.0764 58.878 13.0408 58.8749Z" fill="#333333"/>
<path d="M62.1563 25.2203C61.9334 25.2008 61.7182 25.0964 61.563 24.9116C61.2527 24.5418 61.3009 23.9905 61.6707 23.6804L64.4762 21.3263C64.846 21.016 65.3971 21.0642 65.7074 21.434C66.0177 21.8038 65.9694 22.355 65.5997 22.6652L62.7941 25.0193C62.6093 25.1744 62.3792 25.2398 62.1563 25.2203Z" fill="#666666"/>
<path d="M64.6377 28.1777C64.4148 28.1582 64.1996 28.0538 64.0443 27.869C63.7341 27.4992 63.7823 26.9479 64.1521 26.6378L66.9576 24.2837C67.3276 23.9736 67.8786 24.0218 68.1888 24.3914C68.4991 24.7612 68.4509 25.3123 68.0811 25.6226L65.2755 27.9767C65.0907 28.1317 64.8604 28.1972 64.6377 28.1777Z" fill="#666666"/>
<path d="M15.5802 32.3003C15.3573 32.2808 15.1419 32.1764 14.9869 31.9914C14.1578 31.0032 14.2879 29.5243 15.2767 28.6945L16.4094 27.7441C16.7574 27.4522 17.271 27.4756 17.5911 27.7976L19.8091 30.0305C20.1492 30.3729 20.1475 30.9263 19.8051 31.2664C19.4626 31.6066 18.9093 31.6047 18.5692 31.2623L16.9173 29.5995L16.4002 30.0334C16.1495 30.2437 16.1162 30.618 16.3257 30.8679C16.636 31.2377 16.5876 31.789 16.218 32.0991C16.0332 32.2543 15.8029 32.3198 15.5802 32.3003Z" fill="#333333"/>
<path d="M52.8497 71.1723L51.717 72.1228C51.0958 72.6441 50.1712 72.5632 49.651 71.9434L51.0358 68.6002L52.8497 71.1723Z" fill="#F9763D"/>
<path d="M50.5694 73.3301C49.9727 73.2779 49.3961 72.9988 48.9819 72.505C48.6716 72.1354 48.7198 71.5842 49.0896 71.2739C49.4592 70.9636 50.0106 71.0117 50.3207 71.3816C50.5307 71.6314 50.9051 71.6634 51.1556 71.4532L51.6727 71.0193L50.322 69.1037C50.0438 68.7094 50.1382 68.1641 50.5325 67.886C50.9267 67.608 51.4722 67.702 51.7503 68.0965L53.5641 70.6688C53.8259 71.04 53.7595 71.5498 53.4117 71.8419L52.279 72.7923C51.7843 73.2073 51.1668 73.3824 50.5694 73.3301Z" fill="#333333"/>
<path d="M52.7738 72.0423C52.5176 72.0199 52.2839 71.8858 52.1355 71.675L50.322 69.1031C50.1122 68.8056 50.109 68.4092 50.3136 68.1081C50.3178 68.102 50.456 67.8983 50.6855 67.5377C50.7299 67.4687 50.7733 67.4004 50.8195 67.325C50.8253 67.3155 50.8314 67.3062 50.8374 67.2971C50.854 67.2722 50.8707 67.2456 50.8866 67.2182C50.8924 67.2082 50.8985 67.1982 50.9048 67.1884C50.9823 67.0668 51.0644 66.934 51.1516 66.79C51.2036 66.7054 51.2544 66.6216 51.3057 66.5331C51.3092 66.5271 51.3129 66.5211 51.3164 66.5151C51.4519 66.2931 51.596 66.0499 51.7468 65.7889L51.8149 65.6699C51.8534 65.6029 51.8927 65.5344 51.932 65.464C52.9403 63.692 53.7625 62.0079 54.3795 60.4526C54.4424 60.2934 54.5045 60.1313 54.5654 59.968C54.6783 59.6684 54.7767 59.3917 54.8674 59.1198C54.9104 58.9929 54.9493 58.8707 54.9883 58.7483C55.0389 58.5871 55.0867 58.4279 55.1316 58.2708L42.2088 69.1144C41.875 69.3943 41.3935 69.3824 41.0746 69.1055C39.9135 68.1872 38.7715 67.2399 37.6798 66.2893C36.1147 64.9286 34.5708 63.4903 33.0914 62.0145C31.3676 60.2973 29.6961 58.4926 28.1234 56.6509C27.9314 56.428 27.7382 56.2009 27.5468 55.9725C27.3553 55.7444 27.1652 55.5149 26.9766 55.2842C25.4389 53.4192 23.9513 51.4592 22.558 49.4614C21.3719 47.7632 20.224 45.9925 19.1464 44.1992C18.3974 42.9589 17.656 41.6587 16.9441 40.3368C16.7477 39.972 16.8343 39.5194 17.1519 39.253L30.0804 28.4046C25.2443 28.911 19.6129 31.4139 19.5469 31.4436C19.2151 31.5923 18.8256 31.5201 18.5692 31.2622L16.3513 29.0297C16.1643 28.8416 16.0728 28.5788 16.1026 28.3153C16.1325 28.0517 16.2801 27.816 16.5044 27.6744C21.5771 24.4718 27.162 21.982 33.1038 20.274C34.2264 19.9515 35.363 19.6567 36.482 19.3976C36.6475 19.3589 36.8118 19.3224 36.9743 19.2872C38.7385 18.8913 40.4992 18.5734 42.2018 18.3437C42.8556 18.255 48.709 17.5126 52.5974 18.8341C53.0167 18.9766 53.2632 19.4103 53.1709 19.8434C52.2523 24.1592 53.3501 28.5707 56.1829 31.9466C59.0094 35.3152 63.1543 37.1635 67.5525 37.0159C67.9982 37.0019 68.3825 37.323 68.4466 37.7636C68.9412 41.1665 67.8139 45.9966 67.1487 48.0752C66.6783 49.541 66.1443 51.0122 65.5614 52.4488C65.4117 52.822 65.2654 53.175 65.1155 53.5249C64.4816 55.0157 63.7896 56.4894 63.0603 57.9032C60.4462 62.994 57.2281 67.6567 53.4962 71.7599C53.3178 71.956 53.0601 72.0605 52.7954 72.044C52.7884 72.0436 52.7811 72.0429 52.7738 72.0423ZM52.0926 68.5815L52.9309 69.7693C56.2516 65.9807 59.1335 61.7249 61.5065 57.1034C62.217 55.7264 62.8902 54.2922 63.5083 52.8388C63.6538 52.4993 63.795 52.1585 63.9409 51.7947C64.5088 50.3952 65.0275 48.9655 65.4844 47.5419C66.1469 45.472 66.9787 41.6051 66.7947 38.7695C62.1614 38.6929 57.843 36.6434 54.8442 33.0699C51.8374 29.4867 50.5712 24.8648 51.3126 20.2768C48.4679 19.5613 44.4807 19.7977 42.4368 20.0756C40.7832 20.2988 39.0724 20.6076 37.3514 20.9939C37.1915 21.0285 37.0362 21.0632 36.878 21.1C35.7869 21.3527 34.68 21.6397 33.5867 21.9539C28.1647 23.5124 23.0499 25.7386 18.3667 28.5776L19.3898 29.6082C21.3296 28.7934 27.8269 26.2521 32.6143 26.6011C32.9622 26.6249 33.2728 26.8654 33.3823 27.2039C33.4918 27.5425 33.3849 27.9135 33.1125 28.1421L18.8225 40.1327C19.4157 41.2141 20.0267 42.2758 20.6437 43.2972C21.7017 45.0583 22.8277 46.7951 23.9911 48.4612C25.3582 50.421 26.8169 52.3434 28.3276 54.1753C28.5138 54.4032 28.699 54.6268 28.8858 54.8493C29.0725 55.0719 29.2607 55.2932 29.4502 55.5131C30.9948 57.3221 32.6343 59.0921 34.3254 60.7768C35.777 62.2249 37.2915 63.6357 38.8271 64.9707C39.7335 65.7598 40.6751 66.5466 41.6335 67.3157L55.9183 55.3295C56.191 55.1007 56.5749 55.0601 56.8894 55.2269C57.2038 55.3935 57.3857 55.7344 57.3493 56.0884C57.2505 57.0502 57.017 58.1222 56.6551 59.2752C56.6117 59.4116 56.5694 59.5445 56.5243 59.6773C56.4281 59.9661 56.3223 60.2637 56.2021 60.5819C56.1384 60.753 56.0723 60.9251 56.0049 61.0958C55.3577 62.7278 54.4998 64.486 53.4545 66.323C53.415 66.3938 53.3723 66.4678 53.3307 66.5403L53.2632 66.6582C53.1038 66.934 52.9544 67.1867 52.8135 67.4173C52.756 67.5164 52.6992 67.6102 52.644 67.7001C52.5554 67.8464 52.4692 67.9857 52.3878 68.1136C52.3594 68.1619 52.3298 68.2087 52.3005 68.2532C52.2502 68.3349 52.2028 68.4096 52.1573 68.4803C52.1349 68.5154 52.1134 68.5491 52.0926 68.5815Z" fill="#333333"/>
<path d="M25.4448 73.6571C25.2174 73.6373 25.0027 73.5286 24.8515 73.3484L22.3699 70.3912C22.1969 70.185 22.1286 69.9104 22.1846 69.6472C22.2408 69.3839 22.4152 69.1612 22.6574 69.0434C22.6661 69.0391 23.5755 68.5945 24.8973 67.7848C25.7458 67.2669 26.5813 66.7115 27.3821 66.1335C28.2059 65.5345 28.987 64.9172 29.7011 64.3005C30.472 63.6334 31.1853 62.9473 31.8209 62.262C32.2539 61.7953 32.6571 61.3232 33.0195 60.8589L34.3976 61.9341C34.0048 62.4375 33.5689 62.9478 33.1024 63.4507C32.4236 64.1825 31.6639 64.9133 30.8443 65.6225C30.0927 66.2717 29.273 66.9195 28.4078 67.5487C27.5684 68.155 26.6947 68.7354 25.8092 69.2759C25.2632 69.6104 24.7859 69.8848 24.4042 70.0963L25.844 71.812C26.5155 71.6407 27.2105 71.4168 27.9172 71.1444C28.8063 70.8027 29.7345 70.376 30.6768 69.8754C31.5246 69.4229 32.3899 68.9082 33.2469 68.3467C34.0661 67.8095 34.8811 67.2292 35.6693 66.622C36.5533 65.9437 37.248 65.3522 37.6754 64.9752L38.8379 66.2803L38.8366 66.2816C38.3839 66.6809 37.6566 67.3003 36.7346 68.0077C35.9127 68.6408 35.0612 69.247 34.2051 69.8085C33.3043 70.3986 32.3935 70.9402 31.4982 71.418C30.4919 71.9525 29.4989 72.4088 28.5451 72.7752C27.5762 73.1489 26.6212 73.4401 25.7077 73.6401C25.6201 73.6595 25.5315 73.6647 25.4448 73.6571Z" fill="#333333"/>
<path d="M11.8106 61.2492C11.582 61.2292 11.3679 61.1196 11.2173 60.9404L5.36952 53.9712C5.11595 53.669 5.09625 53.2344 5.32143 52.9106C5.54644 52.5868 5.96071 52.4539 6.33231 52.5862L10.9292 54.2239L10.3427 55.8704L8.77671 55.3125L11.7141 58.8129L12.3414 57.6023L13.8933 58.4066L12.6629 60.7808C12.5284 61.0403 12.2733 61.2153 11.9829 61.2473C11.925 61.2536 11.8672 61.2542 11.8106 61.2492Z" fill="#333333"/>
<path d="M26.2595 78.4685C26.0342 78.4488 25.819 78.3421 25.666 78.1598L19.8181 71.1905C19.6303 70.9667 19.5668 70.6639 19.6489 70.3834C19.7308 70.103 19.9475 69.8821 20.2263 69.7947L22.7781 68.9953L23.3007 70.6632L21.9995 71.0708L24.9367 74.5714L24.6592 72.9323L26.3826 72.6406L27.1971 77.4521C27.2629 77.841 27.0601 78.2258 26.7021 78.3913C26.5601 78.4568 26.4077 78.4815 26.2595 78.4685Z" fill="#333333"/>
<path d="M20.9499 50.4967L17.2102 46.0396L17.8582 45.496L18.5295 44.8934C18.5357 44.9005 18.5431 44.9088 18.5493 44.916L22.289 49.3731L20.9499 50.4967Z" fill="#333333"/>
<path d="M35.5344 67.8775L31.7934 63.4191L33.1324 62.2957L36.8721 66.7525L35.5344 67.8775Z" fill="#333333"/>
<path d="M18.4986 52.29L15.0437 48.1725L16.3815 47.0475L19.8363 51.1649L18.4986 52.29Z" fill="#333333"/>
<path d="M31.7353 67.6668C31.5124 67.6473 31.2972 67.5428 31.1419 67.358L29.6048 65.5259C29.3003 65.1661 29.3352 64.6263 29.6885 64.31C30.0481 63.988 30.5999 64.0177 30.9218 64.3774C30.928 64.3844 30.9354 64.393 30.9416 64.4L32.4808 66.2346C32.7911 66.6044 32.7429 67.1556 32.3731 67.4657C32.1883 67.6206 31.9582 67.6863 31.7353 67.6668Z" fill="#333333"/>
<path d="M16.8264 54.6144C16.6038 54.5949 16.3889 54.4907 16.234 54.3061L14.4555 52.1864C14.1452 51.8166 14.1934 51.2653 14.5632 50.9552C14.9332 50.6451 15.4842 50.6933 15.7944 51.0629L17.5718 53.1813C17.8821 53.5511 17.8343 54.1029 17.4645 54.4132C17.2795 54.5682 17.049 54.6339 16.8264 54.6144Z" fill="#333333"/>
<path d="M30.4171 71.209L27.2241 67.4037C27.218 67.3965 27.2122 67.3891 27.2063 67.3818L27.9165 66.8225L28.563 66.2801L31.756 70.0854L30.4171 71.209Z" fill="#333333"/>
<path d="M11.251 53.0826L14.1288 56.5122L15.4676 55.3888L12.5898 51.9591L11.251 53.0826Z" fill="#333333"/>
<path d="M24.6844 69.0917L27.5623 72.5215L28.9012 71.398L26.0232 67.9682L24.6844 69.0917Z" fill="#333333"/>
<path d="M36.0719 25.3251C35.849 25.3056 35.6337 25.2012 35.4785 25.0164L32.677 21.6776L34.0158 20.5542L36.2556 23.2234L37.6342 22.0666L36.4902 20.7033L37.8291 19.5798L39.5347 21.6125C39.6837 21.7901 39.756 22.0194 39.7357 22.2504C39.7155 22.4815 39.6044 22.6948 39.427 22.8438L36.7095 25.1241C36.5248 25.2791 36.2947 25.3446 36.0719 25.3251Z" fill="#333333"/>
<path d="M61.9012 58.2886C61.4119 58.0505 60.9873 57.7193 60.6392 57.3046C59.28 55.6848 59.4927 53.2607 61.1134 51.9008C62.2311 50.9631 63.7578 50.7398 65.098 51.3182L64.4055 52.9229C63.6761 52.6082 62.845 52.7295 62.2368 53.2397C61.3544 53.9801 61.2385 55.2996 61.9782 56.1812C62.1675 56.4067 62.3989 56.5872 62.6661 56.717L61.9012 58.2886Z" fill="#333333"/>
<path d="M46.0958 44.187C45.9844 44.1773 45.8767 44.125 45.7991 44.0326C45.6439 43.8478 45.668 43.5722 45.853 43.4171L48.9244 40.8399C49.1092 40.6847 49.385 40.7088 49.5399 40.8938C49.6951 41.0786 49.671 41.3542 49.486 41.5093L46.4146 44.0865C46.3224 44.164 46.2073 44.1968 46.0958 44.187Z" fill="white"/>
<path d="M56.408 56.8656C56.1851 56.8461 55.9698 56.7416 55.8146 56.5568L54.3332 54.7913C54.0229 54.4215 54.0711 53.8703 54.4409 53.5602C54.8109 53.2501 55.3619 53.2983 55.6721 53.6679L57.1535 55.4334C57.4638 55.8031 57.4155 56.3544 57.0458 56.6645C56.8609 56.8196 56.6306 56.885 56.408 56.8656Z" fill="#333333"/>
<path d="M53.2628 53.1173C53.0399 53.0978 52.8246 52.9933 52.6694 52.8085L49.848 49.4461C49.5377 49.0763 49.5859 48.5251 49.9557 48.215C50.3255 47.9048 50.8766 47.9531 51.1869 48.3227L54.0083 51.6851C54.3186 52.0549 54.2703 52.6061 53.9006 52.9162C53.7157 53.0713 53.4856 53.1368 53.2628 53.1173Z" fill="#333333"/>
<path d="M38.1977 35.1635C37.9748 35.144 37.7596 35.0395 37.6043 34.8547L31.8813 28.0342C31.571 27.6645 31.6193 27.1132 31.989 26.8031C32.3588 26.493 32.9099 26.5412 33.2202 26.9108L38.9432 33.7312C39.2535 34.101 39.2053 34.6523 38.8355 34.9624C38.6507 35.1173 38.4206 35.183 38.1977 35.1635Z" fill="#333333"/>
<path d="M54.5777 41.6445L45.6639 49.124L37.4364 39.3189L46.3501 31.8394L54.5777 41.6445Z" fill="#158ACC"/>
<path d="M50.4438 42.3511L47.0776 45.1757C46.4405 45.7103 45.4919 45.6273 44.9574 44.9902L41.385 40.7327C40.8504 40.0956 40.9334 39.147 41.5705 38.6126L44.9367 35.788C45.5738 35.2533 46.5224 35.3363 47.0569 35.9735L50.6293 40.2309C51.1639 40.8679 51.081 41.8165 50.4438 42.3511Z" fill="#DD582A"/>
<path d="M49.3402 41.8862L46.8113 44.0082C46.3326 44.4099 45.62 44.3475 45.2183 43.8689L42.5344 40.6702C42.1327 40.1916 42.1951 39.4789 42.6737 39.0773L45.2027 36.9553C45.6813 36.5536 46.394 36.616 46.7956 37.0946L49.4796 40.2933C49.8812 40.7719 49.8189 41.4846 49.3402 41.8862Z" fill="#F73E3E"/>
<path d="M45.5877 49.9949C45.3649 49.9754 45.1496 49.871 44.9944 49.6861L36.7669 39.881C36.4566 39.5112 36.5048 38.96 36.8746 38.6499L41.6728 34.6237C42.0426 34.3136 42.5937 34.3618 42.904 34.7314C43.2143 35.1012 43.166 35.6524 42.7963 35.9626L38.6674 39.4271L45.7714 47.8933L53.3462 41.5373L46.2422 33.0711L45.0353 34.0838C44.6655 34.3939 44.1144 34.3457 43.8041 33.9761C43.4938 33.6063 43.5421 33.055 43.9118 32.7449L45.7881 31.1706C46.1579 30.8605 46.7089 30.9087 47.0192 31.2783L55.2467 41.0834C55.557 41.4532 55.5088 42.0044 55.139 42.3146L46.2251 49.7942C46.0409 49.9488 45.8106 50.0144 45.5877 49.9949Z" fill="#333333"/>
<path d="M45.9083 45.4378C45.3741 45.3911 44.8577 45.141 44.4866 44.6989L41.5902 41.2471C41.2305 40.8184 41.0592 40.2757 41.1079 39.7185C41.1567 39.1613 41.4196 38.6566 41.8483 38.2969L44.5774 36.0068C45.462 35.2647 46.7852 35.3804 47.5275 36.2649L50.4239 39.7167C51.1661 40.6011 51.0503 41.9247 50.1658 42.6668L47.4366 44.957C46.9945 45.3279 46.4427 45.4846 45.9083 45.4378ZM45.9536 37.266C45.8653 37.2583 45.7739 37.2841 45.7008 37.3456L42.9716 39.6357C42.8758 39.7161 42.8536 39.8175 42.8489 39.8708C42.8442 39.9241 42.8485 40.0278 42.9289 40.1236L45.8255 43.5754C45.9481 43.7216 46.167 43.7407 46.3133 43.6181L49.0426 41.328C49.1887 41.2053 49.2079 40.9865 49.0852 40.8401L46.1888 37.3883C46.1274 37.3151 46.042 37.2737 45.9536 37.266Z" fill="#333333"/>
<path d="M46.9806 28.1441C46.9613 28.1424 46.9418 28.1401 46.9225 28.137C46.4456 28.0632 46.1186 27.6169 46.1923 27.14L47.4739 18.8465C47.5475 18.3696 47.9928 18.0422 48.4709 18.1163C48.9479 18.1899 49.2748 18.6365 49.2011 19.1134L47.9195 27.4069C47.849 27.8644 47.4352 28.1838 46.9806 28.1441Z" fill="#333333"/>
<path d="M46.275 32.7096C46.2557 32.7079 46.2362 32.7057 46.2168 32.7026C45.7399 32.6287 45.413 32.1824 45.4867 31.7055L45.672 30.5053C45.7457 30.0284 46.1922 29.7013 46.6691 29.7752C47.146 29.849 47.4729 30.2953 47.3993 30.7723L47.2139 31.9724C47.1434 32.4299 46.7296 32.7494 46.275 32.7096Z" fill="#333333"/>
<path d="M17.6364 40.7933C17.2013 40.7552 16.8539 40.3967 16.8402 39.9494C16.8254 39.467 17.2045 39.0639 17.6869 39.0492L30.2498 38.6646C30.7308 38.6498 31.1352 39.0289 31.15 39.5113C31.1648 39.9936 30.7857 40.3968 30.3033 40.4114L17.7404 40.7961C17.7054 40.7972 17.6705 40.7963 17.6364 40.7933Z" fill="#333333"/>
<path d="M33.7469 40.3003C33.3118 40.2622 32.9644 39.9038 32.9507 39.4564C32.9359 38.974 33.315 38.5709 33.7974 38.5562L37.4097 38.4456C37.8914 38.4314 38.295 38.8099 38.3098 39.2923C38.3247 39.7746 37.9455 40.1778 37.4632 40.1924L33.8509 40.3031C33.8157 40.3042 33.781 40.3033 33.7469 40.3003Z" fill="#333333"/>
<path d="M54.5009 42.5147C54.0463 42.4749 53.6945 42.0885 53.7043 41.6257C53.7145 41.1432 54.114 40.7602 54.5965 40.7705L62.2158 40.9318C62.699 40.9425 63.0812 41.3416 63.071 41.8241C63.0607 42.3065 62.6612 42.6895 62.1788 42.6792L54.5594 42.5179C54.5396 42.5174 54.5202 42.5164 54.5009 42.5147Z" fill="#333333"/>
<path d="M64.9848 42.7367C64.5302 42.6969 64.1783 42.3105 64.1881 41.8476C64.1984 41.3652 64.5979 40.9822 65.0803 40.9925L67.5746 41.0453C68.0571 41.0568 68.44 41.455 68.4297 41.9375C68.4194 42.4199 68.02 42.8029 67.5375 42.7926L65.0433 42.7398C65.0236 42.7394 65.0041 42.7383 64.9848 42.7367Z" fill="#333333"/>
<path d="M41.5696 69.3131C41.5354 69.3101 41.501 69.305 41.4667 69.2979C40.9942 69.1996 40.6908 68.7369 40.7892 68.2644L42.098 61.9737C42.1963 61.5013 42.659 61.1981 43.1315 61.2962C43.604 61.3946 43.9074 61.8573 43.809 62.3298L42.5002 68.6204C42.4091 69.0585 42.0045 69.3511 41.5696 69.3131Z" fill="#333333"/>
<path d="M43.5302 59.8904C43.496 59.8874 43.4616 59.8823 43.4273 59.8752C42.9548 59.7769 42.6514 59.3142 42.7498 58.8417L44.8085 48.9463C44.9069 48.4738 45.3689 48.1705 45.8421 48.2688C46.3145 48.3671 46.6179 48.8298 46.5196 49.3023L44.4608 59.1977C44.3695 59.6357 43.9651 59.9284 43.5302 59.8904Z" fill="#333333"/>
</g>
<defs>
<clipPath id="clip0_59_133">
<rect width="100" height="100" fill="white" transform="translate(9) rotate(5)"/>
</clipPath>
</defs>
</svg>
