<svg width="40" height="40" viewBox="0 0 40 40" fill="none" xmlns="http://www.w3.org/2000/svg">
<g clip-path="url(#clip0_40_179)">
<path d="M37.475 18.2917L20 28.7783L2.525 18.2917C2.14596 18.0643 1.6921 17.9967 1.26327 18.1039C0.834434 18.2111 0.465753 18.4843 0.23833 18.8634C0.0109072 19.2424 -0.0566288 19.6962 0.0505795 20.1251C0.157788 20.5539 0.430958 20.9226 0.809997 21.15L19.1433 32.15C19.4025 32.3057 19.6993 32.388 20.0017 32.388C20.3041 32.388 20.6008 32.3057 20.86 32.15L39.1933 21.15C39.5724 20.9226 39.8455 20.5539 39.9527 20.1251C40.0599 19.6962 39.9924 19.2424 39.765 18.8634C39.5376 18.4843 39.1689 18.2111 38.74 18.1039C38.3112 17.9967 37.8574 18.0643 37.4783 18.2917H37.475Z" fill="white"/>
<path d="M37.475 25.905L20 36.39L2.525 25.905C2.33732 25.7924 2.12929 25.7179 1.91281 25.6856C1.69632 25.6534 1.47561 25.6642 1.26327 25.7172C1.05093 25.7703 0.851131 25.8647 0.675272 25.995C0.499413 26.1253 0.35094 26.289 0.238332 26.4767C0.125724 26.6643 0.0511842 26.8724 0.0189698 27.0889C-0.0132445 27.3053 -0.00250295 27.5261 0.0505812 27.7384C0.157789 28.1672 0.43096 28.5359 0.809998 28.7633L19.1433 39.7633C19.4025 39.9191 19.6993 40.0014 20.0017 40.0014C20.3041 40.0014 20.6008 39.9191 20.86 39.7633L39.1933 28.7633C39.5724 28.5359 39.8455 28.1672 39.9527 27.7384C40.0599 27.3096 39.9924 26.8557 39.765 26.4767C39.5376 26.0976 39.1689 25.8245 38.74 25.7172C38.3112 25.61 37.8574 25.6776 37.4783 25.905H37.475Z" fill="white"/>
<path d="M20 24.6217C19.101 24.6212 18.219 24.3763 17.4483 23.9133L0.80833 13.9283C0.56191 13.7802 0.358015 13.5708 0.216465 13.3205C0.074915 13.0702 0.000524521 12.7876 0.000524521 12.5C0.000524521 12.2125 0.074915 11.9298 0.216465 11.6795C0.358015 11.4293 0.56191 11.2199 0.80833 11.0717L17.4483 1.08668C18.219 0.623727 19.101 0.37915 20 0.37915C20.899 0.37915 21.781 0.623727 22.5517 1.08668L39.1917 11.0717C39.4381 11.2199 39.642 11.4293 39.7835 11.6795C39.9251 11.9298 39.9995 12.2125 39.9995 12.5C39.9995 12.7876 39.9251 13.0702 39.7835 13.3205C39.642 13.5708 39.4381 13.7802 39.1917 13.9283L22.5517 23.9133C21.781 24.3763 20.899 24.6212 20 24.6217ZM4.90666 12.5L19.1667 21.055C19.4185 21.2057 19.7065 21.2852 20 21.2852C20.2935 21.2852 20.5815 21.2057 20.8333 21.055L35.0933 12.5L20.8333 3.94501C20.5815 3.79435 20.2935 3.71479 20 3.71479C19.7065 3.71479 19.4185 3.79435 19.1667 3.94501L4.90666 12.5Z" fill="white"/>
</g>
<defs>
<clipPath id="clip0_40_179">
<rect width="40" height="40" fill="white"/>
</clipPath>
</defs>
</svg>
