<svg width="622" height="469" viewBox="0 0 622 469" fill="none" xmlns="http://www.w3.org/2000/svg">
<g clip-path="url(#clip0_195_21)">
<path d="M230.097 124.83C256.889 107.519 293.789 114.245 319.893 132.587C328.411 138.655 336.235 145.644 343.222 153.429C347.298 157.904 351.161 162.602 354.856 167.462C355.766 168.654 356.672 169.858 357.561 171.075C358.169 171.897 358.772 172.725 359.369 173.558C366.863 183.988 373.734 194.959 380.46 205.832C397.25 232.972 414.478 260.92 440.06 279.975C445.331 283.9 452.684 287.435 458.084 283.687C462.77 280.432 462.971 273.588 461.905 267.98C457.94 247.201 443.638 229.981 428.444 215.282C413.251 200.582 396.431 187.106 384.951 169.344C373.471 151.582 368.226 127.869 378.281 109.266C386.947 93.2351 405.593 84.243 423.792 83.8242C441.99 83.4093 459.672 90.4919 475.068 100.217C490.464 109.947 504.001 122.292 518.129 133.786C526.646 140.721 538.537 147.602 547.819 141.731C555.658 136.769 556.27 124.857 551.598 116.837C546.925 108.816 538.586 103.776 530.592 99.0755C505.771 84.4764 480.95 69.8785 456.128 55.282C448.513 50.8077 440.732 46.1902 435.11 39.3675C429.488 32.5487 426.367 22.9651 429.466 14.6848C432.523 6.52481 441.062 1.34329 449.702 0.261948C458.336 -0.816902 467.044 1.57999 475.12 4.82668C505.387 16.9965 576.653 96.6134 595.647 110.226C607.853 118.968 620.676 130.036 621.91 145.011C623.448 163.653 604.921 179.123 586.325 180.932C567.732 182.746 549.711 174.651 533.097 166.093C516.484 157.535 499.529 148.099 480.881 146.911C462.233 145.724 441.311 155.704 436.891 173.879C433.047 189.694 442.82 206.014 455.549 216.133C465.514 224.056 477.208 229.333 488.503 235.266C491.64 236.908 494.744 238.607 497.771 240.422C505.522 245.08 512.766 250.533 519.388 256.693C526.339 263.15 532.579 270.335 538 278.124C542.326 284.33 546.101 290.904 549.28 297.77C549.765 298.819 550.235 299.883 550.692 300.961C551.124 301.991 551.543 303.035 551.94 304.09C557.125 317.764 559.144 333.088 552.521 345.853C545.914 358.583 531.604 366.122 517.315 367.167C509.05 367.661 500.767 366.565 492.914 363.939C487.138 362.061 481.547 359.655 476.211 356.752C451.472 343.457 431.887 322.376 414 300.703C396.117 279.032 379.278 256.214 358.048 237.818C336.819 219.417 310.217 205.506 282.138 205.718C254.06 205.925 225.115 223.054 217.14 250.007C205.517 229.954 197.657 207.093 198.694 183.933C199.732 160.773 210.641 137.404 230.097 124.83Z" fill="#3C3A59"/>
<path d="M339.03 199.759C340.734 199.759 342.115 198.376 342.115 196.67C342.115 194.964 340.734 193.582 339.03 193.582C337.326 193.582 335.945 194.964 335.945 196.67C335.945 198.376 337.326 199.759 339.03 199.759Z" fill="#7331CE"/>
<path d="M222.776 204.175C225.41 204.175 227.546 202.037 227.546 199.399C227.546 196.762 225.41 194.624 222.776 194.624C220.142 194.624 218.007 196.762 218.007 199.399C218.007 202.037 220.142 204.175 222.776 204.175Z" fill="#B937C9"/>
<path d="M567.495 161.923C568.468 161.923 569.257 161.133 569.257 160.159C569.257 159.184 568.468 158.394 567.495 158.394C566.522 158.394 565.733 159.184 565.733 160.159C565.733 161.133 566.522 161.923 567.495 161.923Z" fill="#B937C9"/>
<path d="M531.839 67.0969C532.813 67.0969 533.602 66.3069 533.602 65.3325C533.602 64.358 532.813 63.5681 531.839 63.5681C530.866 63.5681 530.077 64.358 530.077 65.3325C530.077 66.3069 530.866 67.0969 531.839 67.0969Z" fill="#B937C9"/>
<path d="M486.496 239.375C486.996 237.929 487.671 236.549 488.504 235.266C491.641 236.908 494.744 238.607 497.772 240.422C505.522 245.08 512.767 250.533 519.388 256.693C516.723 260.319 512.848 262.869 508.465 263.878C504.083 264.887 499.484 264.29 495.504 262.195C491.524 260.099 488.427 256.644 486.774 252.457C485.121 248.27 485.023 243.628 486.496 239.375L486.496 239.375Z" fill="#B937C9"/>
<path d="M261.752 181.955C262.748 181.955 263.555 181.147 263.555 180.15C263.555 179.154 262.748 178.346 261.752 178.346C260.757 178.346 259.95 179.154 259.95 180.15C259.95 181.147 260.757 181.955 261.752 181.955Z" fill="#F0F0F0"/>
<path d="M482.562 48.4479C483.557 48.4479 484.364 47.64 484.364 46.6434C484.364 45.6468 483.557 44.8389 482.562 44.8389C481.567 44.8389 480.76 45.6468 480.76 46.6434C480.76 47.64 481.567 48.4479 482.562 48.4479Z" fill="#F0F0F0"/>
<path d="M466.335 16.3057C467.33 16.3057 468.137 15.4978 468.137 14.5012C468.137 13.5046 467.33 12.6967 466.335 12.6967C465.339 12.6967 464.532 13.5046 464.532 14.5012C464.532 15.4978 465.339 16.3057 466.335 16.3057Z" fill="#F0F0F0"/>
<path d="M593.952 136.118C594.948 136.118 595.754 135.31 595.754 134.313C595.754 133.317 594.948 132.509 593.952 132.509C592.957 132.509 592.15 133.317 592.15 134.313C592.15 135.31 592.957 136.118 593.952 136.118Z" fill="#F0F0F0"/>
<path d="M499.282 138.71C500.277 138.71 501.084 137.902 501.084 136.906C501.084 135.909 500.277 135.101 499.282 135.101C498.286 135.101 497.479 135.909 497.479 136.906C497.479 137.902 498.286 138.71 499.282 138.71Z" fill="#F0F0F0"/>
<path d="M449.044 310.822C450.04 310.822 450.847 310.015 450.847 309.018C450.847 308.021 450.04 307.214 449.044 307.214C448.049 307.214 447.242 308.021 447.242 309.018C447.242 310.015 448.049 310.822 449.044 310.822Z" fill="#F0F0F0"/>
<path d="M392.41 141.555C393.406 141.555 394.212 140.747 394.212 139.75C394.212 138.754 393.406 137.946 392.41 137.946C391.415 137.946 390.608 138.754 390.608 139.75C390.608 140.747 391.415 141.555 392.41 141.555Z" fill="#F0F0F0"/>
<path d="M389.88 107.434C390.875 107.434 391.682 106.626 391.682 105.629C391.682 104.633 390.875 103.825 389.88 103.825C388.885 103.825 388.078 104.633 388.078 105.629C388.078 106.626 388.885 107.434 389.88 107.434Z" fill="#F0F0F0"/>
<path d="M488.679 316.693C491.65 308.081 496.624 300.3 503.189 293.991C504.056 293.16 504.947 292.358 505.863 291.583C514.939 283.896 526.161 279.196 538 278.124C542.326 284.33 546.101 290.904 549.281 297.77C549.765 298.819 550.235 299.883 550.692 300.961C551.124 301.991 551.543 303.035 551.94 304.09C557.125 317.764 559.145 333.088 552.521 345.853C545.915 358.583 531.605 366.122 517.316 367.167C509.05 367.661 500.768 366.565 492.914 363.939C488.66 356.385 486.16 347.968 485.599 339.314C485.527 338.225 485.493 337.135 485.482 336.039C485.436 329.455 486.517 322.911 488.679 316.693Z" fill="#7331CE"/>
<path d="M464.825 305.26C467.72 296.909 478.55 291.993 495.325 291.411C498.682 291.293 502.373 292.691 505.863 291.583C522.793 286.207 538.153 289.72 550.692 300.96C551.124 301.991 551.543 303.035 551.94 304.09C551.773 304.027 551.605 303.969 551.437 303.91C534.494 298.023 517.676 294.587 503.189 293.991C500.512 293.883 497.318 292.332 495.412 293.957C480.097 307.006 469.739 301.539 467.228 306.095C463.56 312.749 470.067 323.118 481.842 333.103C483.007 334.092 484.22 335.071 485.482 336.039C485.493 337.135 485.527 338.225 485.598 339.314C483.699 337.908 481.899 336.486 480.199 335.048C467.39 324.187 461.932 313.607 464.825 305.26Z" fill="#E4E4E4"/>
<path d="M528.28 364.409C529.275 364.409 530.082 363.601 530.082 362.604C530.082 361.608 529.275 360.8 528.28 360.8C527.284 360.8 526.478 361.608 526.478 362.604C526.478 363.601 527.284 364.409 528.28 364.409Z" fill="#F0F0F0"/>
<path d="M496.393 341.2C497.388 341.2 498.195 340.392 498.195 339.396C498.195 338.399 497.388 337.591 496.393 337.591C495.398 337.591 494.591 338.399 494.591 339.396C494.591 340.392 495.398 341.2 496.393 341.2Z" fill="#F0F0F0"/>
<path d="M520.789 346.104C530.468 346.104 538.315 338.248 538.315 328.557C538.315 318.865 530.468 311.009 520.789 311.009C511.109 311.009 503.263 318.865 503.263 328.557C503.263 338.248 511.109 346.104 520.789 346.104Z" fill="#F0F0F0"/>
<path opacity="0.3" d="M245.427 134.568C249.524 134.761 257.998 136.798 267.18 139.431C276.357 142.067 286.311 145.284 296.138 148.465C313.34 154.029 330.542 159.591 347.742 165.152C350.107 165.915 352.478 166.685 354.856 167.462C355.767 168.654 356.673 169.858 357.561 171.075C355.471 170.335 353.373 169.619 351.28 168.937C342.342 166.029 334.585 164.111 325.91 161.465C312.559 157.396 298.474 152.053 284.814 147.077C271.155 142.097 255.484 136.737 245.427 134.568Z" fill="#F0F0F0"/>
<path opacity="0.3" d="M551.294 99.2427L589.986 163.552L553.476 97.9637C553.434 97.7554 553.342 97.5603 553.209 97.3945C553.076 97.2288 552.906 97.0971 552.712 97.0104C552.518 96.9238 552.306 96.8847 552.094 96.8964C551.882 96.908 551.676 96.9701 551.493 97.0775C551.31 97.1849 551.155 97.3345 551.041 97.5139C550.927 97.6932 550.857 97.8972 550.838 98.1089C550.818 98.3206 550.849 98.5339 550.929 98.731C551.008 98.9282 551.133 99.1036 551.294 99.2427Z" fill="#F0F0F0"/>
<path d="M532.422 289.033C533.418 289.033 534.225 288.225 534.225 287.228C534.225 286.232 533.418 285.424 532.422 285.424C531.427 285.424 530.62 286.232 530.62 287.228C530.62 288.225 531.427 289.033 532.422 289.033Z" fill="#F0F0F0"/>
<path d="M216.305 283.077C222.686 283.077 227.859 277.898 227.859 271.509C227.859 265.12 222.686 259.941 216.305 259.941C209.924 259.941 204.751 265.12 204.751 271.509C204.751 277.898 209.924 283.077 216.305 283.077Z" fill="#7331CE"/>
<path d="M209.46 265.157C208.295 264.838 207.214 264.267 206.293 263.485C205.373 262.702 204.635 261.727 204.131 260.628C203.627 259.529 203.371 258.332 203.379 257.123C203.387 255.914 203.66 254.721 204.178 253.629L183.257 233.007L198.178 229.82L215.757 249.891C217.532 250.885 218.881 252.496 219.549 254.419C220.217 256.342 220.157 258.443 219.381 260.325C218.605 262.207 217.166 263.738 215.338 264.628C213.509 265.519 211.418 265.707 209.46 265.157L209.46 265.157Z" fill="#FFB8B8"/>
<path d="M109.429 104.667L121.096 112.367L134.753 115.57C134.753 115.57 145.585 193.075 150.907 197.724C156.23 202.373 151.745 202.814 153.187 209.226C154.629 215.639 157.967 228.758 157.967 228.758C125.546 248.879 96.5821 251.336 71.8707 232.065C71.4849 230.795 71.5442 229.432 72.0387 228.2C72.5332 226.968 73.4333 225.943 74.5897 225.293C78.7679 222.695 69.7052 212.514 73.1256 210.475C76.5459 208.436 70.5018 193.186 70.5018 193.186L71.5565 160.435L68.6201 155.411L72.7567 123.165L83.42 118.42L87.071 107.584L109.429 104.667Z" fill="#7331CE"/>
<path d="M114.485 107.386L133.723 113.8C133.723 113.8 155.005 111.55 155.867 143.269C156.729 174.987 152.763 192.008 152.763 192.008C152.763 192.008 197.032 281.139 149.079 254.814L135.066 199.569L120.623 112.809L114.485 107.386Z" fill="#3C3A59"/>
<path d="M133.778 177.511L143.757 176.131C143.757 176.131 144.721 191.194 149.494 193.477C154.267 195.76 152.658 196.136 153.221 198.552C153.784 200.969 148.976 207.665 152.758 209.33C156.539 210.995 189.586 252.71 189.586 252.71L209.084 234.635C207.744 231 201.295 233.958 200.891 230.104C200.382 224.277 190.176 208.36 188.004 206.319C185.832 204.278 186.691 200.68 185.565 195.847C184.439 191.014 185.221 195.495 183.345 187.44C181.468 179.385 156.042 138.339 155.158 130.901C154.274 123.463 143.923 119.085 143.923 119.085L135.877 120.964L133.778 177.511Z" fill="#3C3A59"/>
<path d="M49.5244 445.371L61.2691 448.458L78.754 404.571L61.42 400.014L49.5244 445.371Z" fill="#FFB8B8"/>
<path d="M45.8931 457.529L82.0096 467.024L82.1296 466.567C83.1085 462.834 82.5663 458.865 80.6225 455.533C78.6786 452.2 75.4922 449.777 71.7641 448.796L71.7632 448.796L66.4806 442.05L52.8572 443.825L49.7045 442.997L45.8931 457.529Z" fill="#3C3A59"/>
<path d="M109.732 454.168L121.874 454.167L127.651 407.272L109.729 407.274L109.732 454.168Z" fill="#FFB8B8"/>
<path d="M109.304 466.851L146.645 466.849V466.377C146.645 462.517 145.114 458.816 142.388 456.087C139.662 453.358 135.966 451.825 132.111 451.825H132.11L125.289 446.644L112.563 451.826L109.304 451.826L109.304 466.851Z" fill="#3C3A59"/>
<path d="M79.3608 229.76C76.4275 233.431 77.8941 245.913 77.8941 245.913C77.8941 245.913 72.7609 286.294 74.9608 289.966C77.1608 293.637 73.4942 296.573 71.2942 301.713C69.0942 306.852 66.8943 319.334 66.8943 319.334C54.4278 329.613 55.1612 376.603 55.1612 376.603L50.7612 418.453C52.2279 422.859 72.7609 423.593 75.6942 422.859C78.6275 422.124 107.227 318.6 107.227 318.6C107.227 318.6 105.76 418.453 105.76 422.859C105.76 427.264 125.56 425.061 129.96 425.061C134.36 425.061 162.226 245.178 162.226 245.178V234.899L158.56 229.76C158.56 229.76 82.2941 226.089 79.3608 229.76Z" fill="#3C3A59"/>
<path d="M86.3218 109.555L68.3134 121.043L59.603 128.353L71.1571 202.1C71.1571 202.1 53.6029 269.134 81.2669 265.002C108.931 260.869 107.38 200.626 107.38 200.626L86.3218 109.555Z" fill="#3C3A59"/>
<path d="M110.418 214.316C109.379 214.932 108.217 215.313 107.015 215.431C105.813 215.549 104.6 215.402 103.461 215C102.322 214.597 101.285 213.95 100.423 213.103C99.5606 212.257 98.8944 211.231 98.471 210.098L69.1211 210.808L77.21 197.857L103.841 199.168C105.788 198.582 107.883 198.732 109.728 199.589C111.572 200.446 113.039 201.95 113.849 203.817C114.66 205.684 114.759 207.784 114.126 209.719C113.494 211.654 112.174 213.29 110.418 214.316Z" fill="#FFB8B8"/>
<path d="M95.7754 99.5826C108.585 99.5826 118.969 89.1856 118.969 76.3604C118.969 63.5352 108.585 53.1383 95.7754 53.1383C82.9658 53.1383 72.5815 63.5352 72.5815 76.3604C72.5815 89.1856 82.9658 99.5826 95.7754 99.5826Z" fill="#FFB8B8"/>
<path d="M69.4672 61.1019C72.0716 57.0678 76.959 54.3792 81.6969 55.1347C82.1379 52.1073 83.4 49.2591 85.3458 46.9002C87.2916 44.5413 89.8465 42.762 92.7323 41.7562C95.6181 40.7504 98.7242 40.5566 101.712 41.1959C104.701 41.8351 107.456 43.283 109.68 45.3818C110.411 44.8664 111.262 44.5487 112.152 44.4595C113.042 44.3704 113.94 44.5128 114.758 44.8729C116.389 45.6152 117.808 46.7553 118.884 48.1888C121.603 51.5833 123.352 55.6524 123.944 59.9629C124.536 64.2734 123.95 68.6641 122.247 72.6674C122.826 70.5599 120.717 68.5771 118.585 68.1041C116.454 67.6312 114.218 68.0786 112.057 67.7707C109.286 67.376 106.796 65.7669 104.021 65.4048C101.689 65.1005 99.3444 65.6991 97.0704 66.2992C94.7964 66.8991 92.4575 67.511 90.1223 67.2333C87.7869 66.9557 84.7788 75.8165 84.8192 82.0575C84.8269 83.2402 84.5835 84.7587 83.4291 85.0097C82.0074 85.3187 81.1836 83.3542 79.8304 82.8189C79.2068 82.6399 78.5381 82.7103 77.9653 83.0153C77.3925 83.3203 76.9604 83.8359 76.7599 84.4537C76.5893 85.0817 76.5711 85.7414 76.7066 86.3779C76.8421 87.0144 77.1275 87.6093 77.5391 88.113C78.3709 89.1117 79.3583 89.9693 80.4632 90.6527L79.9059 91.1168C78.9789 92.3429 77.056 92.3961 75.7198 91.6374C74.4421 90.7711 73.4074 89.5915 72.7142 88.2111C70.2422 84.0945 68.0738 79.7084 67.2014 74.9851C66.3291 70.2618 66.863 65.136 69.4672 61.1019Z" fill="#2F2E41"/>
<path d="M77.6563 130.522L67.2338 121.58C67.2338 121.58 55.0644 125.381 53.001 133.374C36.7593 154.167 28.0123 178.451 25.6631 205.715C46.8675 213.733 72.8319 216.578 100.764 217.283L94.9874 195.593L55.2703 188.363L77.6563 130.522Z" fill="#3C3A59"/>
<path d="M40.7278 456.627L35.1602 447.669L34.0481 452.788C33.8531 453.685 33.6582 454.596 33.4776 455.5C31.8962 454.147 30.2136 452.897 28.5673 451.697C23.5124 448.024 18.4599 444.346 13.4097 440.663L14.9911 449.846C15.966 455.5 16.9843 461.269 19.3961 466.439C19.6634 467.024 19.9522 467.603 20.2628 468.167H43.7609C43.9499 467.643 44.0807 467.1 44.1508 466.547C44.1567 466.511 44.159 466.475 44.1579 466.439C44.5264 462.932 42.5909 459.628 40.7278 456.627Z" fill="#E5E5E5"/>
<path d="M248.39 446.336L258.923 429.389L261.027 439.073C261.396 440.769 261.765 442.493 262.106 444.202C265.098 441.644 268.281 439.278 271.396 437.008C280.959 430.059 290.517 423.101 300.072 416.135L297.08 433.506C295.235 444.202 293.309 455.118 288.746 464.897C288.24 466.005 287.694 467.1 287.106 468.167H242.652C242.294 467.176 242.047 466.148 241.914 465.103C241.903 465.035 241.898 464.966 241.901 464.897C241.203 458.263 244.865 452.013 248.39 446.336Z" fill="#E5E5E5"/>
<path d="M240.127 468.528H191.761C189.557 468.526 187.444 467.648 185.886 466.088C184.327 464.527 183.451 462.412 183.448 460.205V290.315C183.451 288.109 184.327 285.993 185.886 284.433C187.444 282.872 189.557 281.995 191.761 281.992H240.127C242.331 281.995 244.444 282.872 246.002 284.433C247.561 285.993 248.437 288.109 248.44 290.315V460.205C248.437 462.412 247.561 464.527 246.002 466.088C244.444 467.648 242.331 468.526 240.127 468.528Z" fill="#E5E5E5"/>
<path d="M228.706 286.33H203.904C203.075 286.329 202.281 285.999 201.695 285.413C201.11 284.826 200.78 284.031 200.779 283.202V274.276C200.78 273.446 201.11 272.651 201.695 272.065C202.281 271.478 203.075 271.148 203.904 271.147H228.706C229.535 271.148 230.329 271.478 230.915 272.065C231.5 272.651 231.83 273.446 231.831 274.276V283.202C231.83 284.031 231.5 284.826 230.915 285.413C230.329 285.999 229.535 286.329 228.706 286.33Z" fill="#3F3D56"/>
</g>
<defs>
<clipPath id="clip0_195_21">
<rect width="622" height="469" fill="white"/>
</clipPath>
</defs>
</svg>
