<svg width="40" height="40" viewBox="0 0 40 40" fill="none" xmlns="http://www.w3.org/2000/svg">
<path d="M26.6667 3.33331C22.0667 3.33331 18.3334 7.06665 18.3334 11.6666C18.3334 16.2666 22.0667 20 26.6667 20C31.2667 20 35 16.2666 35 11.6666C35 7.06665 31.2667 3.33331 26.6667 3.33331ZM26.6667 16.6666C23.9 16.6666 21.6667 14.4333 21.6667 11.6666C21.6667 8.89998 23.9 6.66665 26.6667 6.66665C29.4334 6.66665 31.6667 8.89998 31.6667 11.6666C31.6667 14.4333 29.4334 16.6666 26.6667 16.6666ZM31.6667 26.6666H28.3334C28.3334 24.6666 27.0834 22.8666 25.2167 22.1666L14.95 18.3333H1.66669V36.6666H11.6667V34.2666L23.3334 37.5L36.6667 33.3333V31.6666C36.6667 28.9 34.4334 26.6666 31.6667 26.6666ZM8.33335 33.3333H5.00002V21.6666H8.33335V33.3333ZM23.2834 34.0166L11.6667 30.8333V21.6666H14.35L24.05 25.2833C24.6167 25.5 25 26.05 25 26.6666C25 26.6666 21.6667 26.5833 21.1667 26.4166L17.2 25.1L16.15 28.2666L20.1167 29.5833C20.9667 29.8666 21.85 30 22.75 30H31.6667C32.3167 30 32.9 30.4 33.1667 30.95L23.2834 34.0166Z" fill="white"/>
</svg>
