<svg width="589" height="846" viewBox="0 0 589 846" fill="none" xmlns="http://www.w3.org/2000/svg">
<g clip-path="url(#clip0_85_9)">
<path d="M555.912 273.53C550.679 263.486 544.873 253.792 538.526 244.502C534.079 237.985 529.38 231.685 524.429 225.603H524.416C515.458 214.592 505.715 204.332 495.274 194.914C493.137 192.983 490.971 191.092 488.777 189.24C468.966 172.473 446.997 158.816 423.542 148.686L423.75 185.152L425.994 600.849H231.457L220.516 185.937L221.331 150.053C125.956 192.729 58.9881 293.069 58.9881 410.057C58.9704 434.204 61.8659 458.253 67.6039 481.615C70.0274 491.491 72.9616 501.217 76.393 510.748C77.6318 514.208 78.9387 517.637 80.3137 521.035C80.9764 522.689 81.6516 524.33 82.3515 525.964C83.2496 528.099 84.1849 530.228 85.145 532.33C85.8882 533.984 86.6521 535.627 87.4367 537.259C88.4463 539.401 89.4889 541.525 90.5646 543.631C91.3946 545.285 92.2494 546.926 93.1165 548.56C107.106 574.887 124.971 598.659 146.031 618.972C152.033 624.765 158.278 630.256 164.768 635.447C210.682 672.153 266.561 692 323.994 692C381.427 692 437.306 672.153 483.221 635.447C486.751 632.626 490.209 629.711 493.595 626.702C495.844 624.712 498.055 622.684 500.229 620.62C500.805 620.073 501.381 619.526 501.951 618.972C521.367 600.246 538.077 578.571 551.539 554.65C556.483 545.879 560.966 536.824 564.968 527.526C566.027 525.075 567.053 522.601 568.046 520.106C572.617 508.665 576.462 496.911 579.554 484.923C580.031 483.071 580.492 481.213 580.936 479.348V479.342C581.01 479.019 581.09 478.689 581.165 478.366C581.623 476.403 582.063 474.426 582.484 472.449V472.442C583.847 466.07 584.997 459.621 585.934 453.095C586.052 452.258 586.169 451.421 586.281 450.584C586.324 450.281 586.368 449.978 586.399 449.675V449.668C587.068 444.627 587.611 439.548 588.028 434.432C588.672 426.399 588.996 418.274 589 410.057C589.07 362.294 577.682 315.302 555.912 273.53V273.53Z" fill="url(#paint0_linear_85_9)"/>
<path d="M529.887 580.25C545.572 557.702 551.605 525.941 539.403 501.073C527.96 529.044 507.587 551.808 481.887 565.336C471.958 570.515 460.408 575.175 455.812 585.876C452.952 592.534 453.497 600.396 455.795 607.296C458.094 614.196 462.005 620.335 465.873 626.389L466.077 628.203C490.434 617.46 514.201 602.799 529.887 580.25Z" fill="url(#paint1_linear_85_9)"/>
<path d="M538.883 501.273C538.18 524.48 530.622 546.861 517.282 565.238C514.477 569.249 511.094 572.764 507.26 575.653C503.439 578.34 499.012 579.889 494.438 580.14C490.178 580.464 485.785 580.272 481.673 581.693C479.578 582.453 477.659 583.676 476.039 585.282C474.42 586.887 473.138 588.838 472.278 591.008C470.001 596.354 469.666 602.251 469.527 608.031C469.372 614.448 469.307 621.115 466.462 626.949C466.117 627.656 467.168 628.183 467.512 627.478C472.462 617.329 469.248 605.46 472.198 594.792C473.574 589.813 476.369 585.246 481.04 583.251C485.125 581.507 489.656 581.701 493.972 581.412C498.437 581.237 502.794 579.902 506.663 577.522C510.623 574.849 514.127 571.479 517.024 567.556C523.68 558.833 529.005 549.052 532.805 538.569C537.204 526.631 539.651 513.981 540.041 501.165C540.065 500.372 538.907 500.485 538.883 501.273V501.273Z" fill="white"/>
<path d="M521.905 559.59C525.107 561.553 528.86 562.24 532.495 561.531C536.129 560.821 539.408 558.76 541.746 555.715C542.217 555.097 541.337 554.289 540.865 554.908C538.693 557.747 535.639 559.667 532.253 560.321C528.867 560.974 525.373 560.319 522.402 558.472C521.756 558.072 521.263 559.192 521.905 559.59Z" fill="white"/>
<path d="M496.619 580.278C494.592 572.536 495.382 564.266 498.832 557.116C499.174 556.408 498.123 555.88 497.781 556.587C494.204 564.034 493.398 572.643 495.524 580.694C495.728 581.461 496.821 581.041 496.619 580.278H496.619Z" fill="white"/>
<path d="M535.664 526.689C534.277 526.204 533.024 525.36 532.019 524.233C531.013 523.106 530.287 521.731 529.905 520.231C529.711 519.462 528.618 519.883 528.81 520.648C529.24 522.302 530.044 523.82 531.152 525.068C532.26 526.316 533.639 527.256 535.167 527.806C535.307 527.871 535.465 527.877 535.609 527.822C535.753 527.767 535.871 527.656 535.941 527.512C536.006 527.364 536.014 527.194 535.962 527.04C535.91 526.886 535.803 526.759 535.664 526.689V526.689Z" fill="white"/>
<path d="M452.09 481.283C452.198 481.767 452.306 482.251 452.408 482.744C453.831 489.262 454.754 495.892 455.168 502.569C455.208 503.085 455.241 503.608 455.267 504.124C456.103 520.223 454.122 536.346 449.426 551.675C447.552 557.773 445.245 563.711 442.524 569.436C438.767 577.343 434.101 585.598 433.049 594.114C432.93 595.001 432.862 595.895 432.847 596.791L463.981 628.327C464.085 628.361 464.183 628.403 464.288 628.437L465.477 629.757C465.637 629.472 465.797 629.173 465.957 628.888C466.05 628.723 466.136 628.551 466.229 628.386C466.289 628.274 466.349 628.162 466.409 628.064C466.429 628.027 466.449 627.989 466.463 627.96C466.523 627.862 466.569 627.765 466.622 627.675C467.52 626.006 468.409 624.327 469.288 622.638C469.295 622.631 469.295 622.631 469.295 622.616C475.962 609.732 481.677 596.143 485.272 582.063C485.38 581.639 485.495 581.208 485.589 580.77C487.176 574.414 488.272 567.93 488.867 561.384C489.181 557.798 489.325 554.198 489.298 550.597C489.21 541.292 487.747 532.06 484.962 523.24C479.409 505.656 468.632 490.158 453.269 481.901C452.876 481.691 452.489 481.486 452.09 481.283Z" fill="url(#paint2_linear_85_9)"/>
<path d="M451.783 481.774C464.355 500.754 470.986 523.466 470.735 546.684C470.764 551.683 470.052 556.656 468.626 561.419C467.096 566.012 464.438 570.084 460.928 573.214C457.71 576.202 454.093 578.863 451.614 582.631C450.372 584.58 449.532 586.786 449.147 589.105C448.763 591.424 448.844 593.803 449.384 596.087C450.592 601.813 453.662 606.737 456.821 611.441C460.329 616.663 464.05 622.029 465.079 628.509C465.204 629.294 466.342 629.042 466.217 628.258C464.426 616.984 455.144 609.567 451.461 599.159C449.743 594.303 449.39 588.866 451.991 584.28C454.265 580.271 457.993 577.524 461.275 574.529C464.742 571.529 467.465 567.672 469.207 563.294C470.856 558.623 471.747 553.688 471.84 548.699C472.218 537.471 470.935 526.25 468.037 515.447C464.794 503.097 459.589 491.429 452.647 480.947C452.217 480.298 451.356 481.13 451.783 481.774V481.774Z" fill="white"/>
<path d="M471.229 539.213C474.897 538.729 478.283 536.874 480.783 533.979C483.283 531.084 484.735 527.338 484.878 523.409C484.905 522.614 483.745 522.533 483.719 523.329C483.591 526.988 482.238 530.477 479.905 533.168C477.572 535.858 474.411 537.573 470.994 538.002C470.251 538.096 470.491 539.306 471.229 539.213H471.229Z" fill="white"/>
<path d="M462.747 571.928C456.747 567.045 452.698 559.935 451.407 552.017C451.279 551.232 450.141 551.484 450.269 552.268C451.627 560.505 455.855 567.894 462.109 572.961C462.705 573.444 463.34 572.408 462.747 571.928V571.928Z" fill="white"/>
<path d="M463.596 504.129C462.214 504.631 460.737 504.76 459.296 504.504C457.855 504.248 456.497 503.615 455.343 502.663C454.753 502.173 454.119 503.209 454.705 503.696C455.985 504.742 457.486 505.439 459.077 505.725C460.667 506.012 462.3 505.88 463.832 505.34C463.98 505.302 464.11 505.205 464.193 505.07C464.277 504.934 464.309 504.769 464.283 504.609C464.251 504.449 464.161 504.309 464.033 504.219C463.904 504.129 463.747 504.097 463.596 504.129Z" fill="white"/>
<path d="M42.3715 453.962C28.4603 430.132 24.8739 397.954 38.9345 374.224C48.203 403.092 66.7705 427.542 91.3518 443.247C100.852 449.268 112.009 454.911 115.772 465.974C118.114 472.857 116.97 480.646 114.152 487.324C111.333 494.003 106.967 499.783 102.649 505.483L102.307 507.274C78.852 494.459 56.2827 477.792 42.3715 453.962Z" fill="url(#paint3_linear_85_9)"/>
<path d="M39.438 374.468C38.3658 397.659 44.1891 420.62 56.0809 440.089C58.571 444.329 61.6737 448.125 65.2747 451.337C68.8776 454.345 73.1719 456.271 77.7114 456.917C81.9328 457.609 86.326 457.796 90.3157 459.568C92.3452 460.507 94.1652 461.892 95.6564 463.632C97.1476 465.372 98.2762 467.428 98.9682 469.665C100.829 475.19 100.712 481.097 100.41 486.869C100.074 493.278 99.6297 499.93 102.02 505.99C102.309 506.724 101.221 507.159 100.932 506.426C96.7741 495.883 100.884 484.332 98.7591 473.443C97.7675 468.362 95.3307 463.568 90.8271 461.176C86.8889 459.084 82.3587 458.886 78.0789 458.225C73.6418 457.665 69.4011 455.957 65.7274 453.251C61.9843 450.245 58.7493 446.582 56.1611 442.421C50.1936 433.152 45.6331 422.943 42.6466 412.166C39.174 399.888 37.7013 387.068 38.2922 374.26C38.329 373.468 39.4746 373.68 39.438 374.468L39.438 374.468Z" fill="white"/>
<path d="M51.905 434.06C48.5638 435.739 44.7704 436.1 41.2021 435.079C37.6339 434.057 34.5232 431.719 32.4255 428.482C32.0032 427.826 32.9422 427.097 33.3651 427.754C35.3131 430.772 38.211 432.949 41.5356 433.894C44.8601 434.838 48.3925 434.487 51.495 432.903C52.1696 432.56 52.5758 433.719 51.905 434.06V434.06Z" fill="white"/>
<path d="M75.5277 456.866C78.1393 449.325 77.9834 441.013 75.0911 433.589C74.804 432.854 75.8917 432.419 76.1785 433.153C79.1747 440.885 79.3204 449.534 76.5865 457.375C76.3254 458.122 75.268 457.609 75.5277 456.866V456.866Z" fill="white"/>
<path d="M40.7045 400.078C42.1245 399.715 43.4376 398.982 44.5257 397.946C45.6138 396.909 46.4429 395.602 46.9385 394.14C47.1905 393.39 48.2477 393.904 47.9973 394.65C47.4426 396.262 46.5253 397.705 45.3255 398.853C44.1257 400.001 42.6799 400.819 41.1145 401.235C40.97 401.287 40.8122 401.279 40.6732 401.212C40.5341 401.145 40.4242 401.025 40.3658 400.875C40.3122 400.721 40.3178 400.551 40.3812 400.402C40.4446 400.253 40.5608 400.137 40.7045 400.078V400.078Z" fill="white"/>
<path d="M127.471 362.049C127.326 362.522 127.182 362.995 127.042 363.477C125.126 369.85 123.699 376.379 122.777 382.998C122.698 383.509 122.625 384.028 122.56 384.54C120.497 400.512 121.239 416.754 124.749 432.438C126.151 438.678 127.997 444.795 130.271 450.737C133.413 458.943 137.432 467.574 137.83 476.152C137.881 477.047 137.88 477.944 137.827 478.838L104.387 507.578C104.281 507.603 104.18 507.636 104.072 507.661L102.787 508.874C102.649 508.576 102.513 508.264 102.375 507.966C102.295 507.794 102.222 507.615 102.141 507.443C102.09 507.326 102.039 507.209 101.987 507.106C101.97 507.067 101.953 507.028 101.942 506.997C101.889 506.895 101.851 506.794 101.804 506.7C101.037 504.958 100.279 503.208 99.5322 501.449C99.526 501.441 99.526 501.441 99.5273 501.426C93.866 488.009 89.2078 473.97 86.7005 459.626C86.6252 459.194 86.5434 458.755 86.4833 458.31C85.3869 451.838 84.7895 445.281 84.6971 438.705C84.6574 435.104 84.7891 431.503 85.0916 427.916C85.89 418.65 88.0535 409.575 91.5026 401.024C98.3806 383.979 110.306 369.464 126.248 362.563C126.656 362.387 127.057 362.217 127.471 362.049Z" fill="url(#paint4_linear_85_9)"/>
<path d="M127.739 362.565C113.759 380.395 105.415 402.458 103.892 425.621C103.481 430.601 103.81 435.619 104.868 440.49C106.042 445.2 108.381 449.489 111.64 452.912C114.619 456.168 118.02 459.132 120.203 463.102C121.292 465.152 121.962 467.424 122.168 469.769C122.374 472.113 122.111 474.477 121.398 476.706C119.757 482.31 116.321 486.952 112.813 491.367C108.918 496.269 104.799 501.295 103.278 507.664C103.094 508.436 101.979 508.087 102.163 507.316C104.81 496.235 114.628 489.644 119.093 479.589C121.177 474.897 121.944 469.509 119.702 464.714C117.741 460.521 114.236 457.461 111.193 454.192C107.967 450.902 105.548 446.822 104.146 442.308C102.859 437.51 102.348 432.514 102.636 427.534C103.117 416.311 105.253 405.238 108.967 394.72C113.143 382.692 119.222 371.513 126.941 361.665C127.419 361.056 128.214 361.959 127.739 362.565V362.565Z" fill="white"/>
<path d="M103.97 418.132C100.352 417.332 97.1185 415.191 94.8476 412.089C92.5768 408.988 91.4161 405.128 91.5728 401.201C91.5806 401.041 91.6465 400.89 91.7566 400.78C91.8667 400.671 92.0125 400.611 92.1632 400.614C92.3139 400.617 92.4577 400.681 92.5644 400.795C92.6711 400.908 92.7322 401.061 92.735 401.221C92.5827 404.878 93.6643 408.473 95.7844 411.357C97.9046 414.24 100.924 416.222 104.297 416.945C105.03 417.103 104.698 418.289 103.97 418.132V418.132Z" fill="white"/>
<path d="M109.925 451.472C116.278 447.124 120.857 440.388 122.749 432.608C122.936 431.837 124.051 432.186 123.864 432.956C121.881 441.048 117.103 448.048 110.482 452.557C109.851 452.987 109.298 451.899 109.925 451.472V451.472Z" fill="white"/>
<path d="M114.257 383.824C115.597 384.444 117.06 384.7 118.515 384.57C119.97 384.439 121.372 383.926 122.595 383.076C123.221 382.639 123.774 383.727 123.152 384.161C121.797 385.093 120.248 385.658 118.64 385.806C117.033 385.954 115.415 385.681 113.93 385.011C113.785 384.96 113.663 384.853 113.59 384.71C113.517 384.567 113.498 384.401 113.536 384.243C113.58 384.087 113.681 383.955 113.816 383.876C113.951 383.798 114.109 383.779 114.257 383.824V383.824Z" fill="white"/>
<path d="M300.608 210.711C320.941 210.711 337.425 193.174 337.425 171.54C337.425 149.907 320.941 132.369 300.608 132.369C280.274 132.369 263.79 149.907 263.79 171.54C263.79 193.174 280.274 210.711 300.608 210.711Z" fill="url(#paint5_linear_85_9)"/>
<path d="M413.335 169.496C410.018 165.767 406.515 162.23 402.843 158.9C395.67 152.429 387.73 146.926 378.879 143.46C375.546 142.151 372.103 141.186 368.597 140.58C368.176 140.508 367.761 140.435 367.339 140.376C367.309 140.373 367.277 140.373 367.247 140.376C367.182 140.356 367.115 140.343 367.048 140.336C366.187 140.218 365.326 140.125 364.459 140.06C359.789 139.729 355.1 140.178 350.56 141.391C347.926 142.098 345.356 143.05 342.88 144.237C340.399 145.53 337.993 146.98 335.676 148.58C334.432 149.384 333.15 150.121 331.836 150.788C327.999 152.722 323.937 154.105 319.758 154.9C316.935 155.438 314.077 155.738 311.21 155.796C308.72 155.849 306.373 155.941 304.013 156.896C301.494 157.903 299.232 159.523 297.407 161.626C295.582 163.729 294.245 166.257 293.502 169.008C293.443 169.253 293.46 169.511 293.549 169.744C293.638 169.978 293.795 170.175 293.997 170.307C294.635 170.794 295.255 171.348 295.93 171.783C296.526 172.072 297.162 172.257 297.813 172.33C298.878 172.567 299.946 172.798 301.015 173.022C304.948 173.852 308.898 174.588 312.864 175.229C320.842 176.514 328.865 177.419 336.934 177.944C336.983 177.952 337.032 177.956 337.082 177.957C346.198 178.543 355.335 178.637 364.459 178.241C365.84 178.181 367.216 178.109 368.597 178.023C374.351 177.68 380.091 177.14 385.816 176.402C391.112 175.717 396.387 174.867 401.641 173.852C405.395 173.127 409.134 172.319 412.858 171.427C413.039 171.37 413.203 171.264 413.335 171.12C413.466 170.976 413.56 170.798 413.608 170.604C413.656 170.41 413.656 170.206 413.608 170.012C413.561 169.818 413.467 169.64 413.335 169.496V169.496Z" fill="url(#paint6_linear_85_9)"/>
<path d="M336.81 221.727C331.479 215.66 325.607 210.16 319.275 205.305C317.175 203.736 315.013 202.26 312.79 200.909C310.064 199.235 307.232 197.762 304.316 196.501C303.666 196.217 303.01 195.947 302.353 195.69C298.623 194.221 294.754 193.186 290.814 192.606C290.783 192.6 290.752 192.606 290.721 192.6C290.659 192.587 290.591 192.573 290.529 192.56C288.619 192.297 286.694 192.171 284.769 192.185C283.387 192.185 282 192.264 280.625 192.409C278.403 192.641 276.201 193.047 274.034 193.621C272.963 193.905 271.898 194.234 270.851 194.61C269.324 195.144 267.825 195.764 266.36 196.468C266.335 196.481 266.317 196.488 266.292 196.501C263.833 197.781 261.45 199.22 259.157 200.811C259.107 200.844 259.051 200.876 259.002 200.909C256.397 202.567 253.641 203.941 250.776 205.008C248.317 205.923 245.795 206.633 243.232 207.13C240.41 207.67 237.552 207.968 234.685 208.02C232.195 208.073 229.847 208.165 227.494 209.127C224.974 210.133 222.711 211.753 220.885 213.856C219.059 215.959 217.72 218.487 216.976 221.239C216.919 221.483 216.936 221.741 217.025 221.974C217.114 222.207 217.271 222.404 217.472 222.537C218.11 223.025 218.735 223.572 219.404 224.007C219.999 224.298 220.636 224.483 221.287 224.554C222.353 224.791 223.418 225.028 224.489 225.252C228.423 226.082 232.374 226.816 236.345 227.453C241.789 228.329 247.256 229.03 252.746 229.555C255.348 229.812 257.951 230.023 260.557 230.188C267.24 230.616 273.929 230.783 280.625 230.689C282.006 230.669 283.387 230.636 284.769 230.59C292.969 230.333 301.145 229.678 309.296 228.626C318.382 227.457 327.406 225.796 336.333 223.651C336.513 223.594 336.677 223.489 336.808 223.346C336.94 223.203 337.034 223.025 337.082 222.832C337.13 222.638 337.13 222.435 337.082 222.241C337.035 222.047 336.941 221.87 336.81 221.727V221.727Z" fill="url(#paint7_linear_85_9)"/>
<path d="M245.039 116.601L277.474 593.475L212.603 599.601V122.668C220.333 116.244 231.429 115.239 245.039 116.601Z" fill="white"/>
<path d="M405.146 116.601L372.71 593.475L437.581 599.601V122.668C429.851 116.244 418.755 115.239 405.146 116.601Z" fill="white"/>
<path d="M439.108 122.876C437.095 117.625 432.815 114 427.866 114H221.628C214.746 114 209.153 121.025 209.153 129.667V603.641C209.093 608.026 210.634 612.265 213.452 615.465C214.926 617.113 216.792 618.304 218.853 618.912C219.756 619.177 220.69 619.311 221.628 619.308H427.866C428.803 619.311 429.737 619.177 430.641 618.912C436.19 617.325 440.34 611.086 440.34 603.641V129.667C440.346 127.34 439.927 125.034 439.108 122.876V122.876ZM436.203 603.641C436.203 609.413 432.462 614.112 427.866 614.112H221.628C217.818 614.112 214.591 610.884 213.606 606.488C213.396 605.556 213.29 604.6 213.291 603.641V129.667C213.291 123.895 217.032 119.204 221.628 119.204H427.866C428.712 119.204 429.551 119.364 430.343 119.679C433.731 121.001 436.203 124.976 436.203 129.667V603.641Z" fill="white"/>
<path d="M438.272 258.072H211.223V262.477H438.272V258.072Z" fill="white"/>
<path d="M438.272 167.133H211.223V171.538H438.272V167.133Z" fill="white"/>
<path d="M438.272 331.494H211.223V335.899H438.272V331.494Z" fill="white"/>
<path d="M284.902 115.977H280.762V393.903H284.902V115.977Z" fill="white"/>
<path d="M368.733 115.977H364.592V393.903H368.733V115.977Z" fill="white"/>
<path d="M464.15 591.776H192.244C187.304 591.782 182.569 593.873 179.076 597.589C175.583 601.305 173.618 606.343 173.612 611.598C173.61 614.125 174.066 616.629 174.957 618.972C176.34 622.647 178.726 625.798 181.807 628.018C184.888 630.237 188.523 631.425 192.244 631.427H464.15C467.402 631.426 470.598 630.519 473.419 628.796C476.24 627.074 478.587 624.596 480.229 621.608C480.696 620.764 481.102 619.883 481.443 618.972C482.333 616.629 482.79 614.125 482.787 611.598C482.78 606.342 480.814 601.304 477.32 597.588C473.826 593.872 469.09 591.782 464.15 591.776Z" fill="white"/>
<path d="M438.271 383.624H212.603V398.309H438.271V383.624Z" fill="white"/>
<path d="M323.367 379.219H327.508C329.521 379.219 331.452 380.07 332.875 381.584C334.299 383.099 335.099 385.153 335.099 387.295V387.295H315.776C315.776 386.235 315.972 385.184 316.353 384.204C316.735 383.225 317.294 382.334 317.999 381.584C318.704 380.834 319.541 380.239 320.462 379.834C321.383 379.428 322.37 379.219 323.367 379.219V379.219Z" fill="#CCCCCC"/>
<path d="M329.418 425.038C353.038 425.038 372.186 404.666 372.186 379.537C372.186 354.408 353.038 334.036 329.418 334.036C305.798 334.036 286.651 354.408 286.651 379.537C286.651 404.666 305.798 425.038 329.418 425.038Z" fill="#FFB8B8"/>
<path d="M281.71 335.765C282.033 330.54 285.281 325.193 295.6 322.399C295.6 322.399 313.309 298.306 337.374 310.941C337.374 310.941 349.04 308.805 357.691 321.683C357.691 321.683 366.268 316.301 369.887 325.841C369.887 325.841 379.946 345.299 376.243 365.146C372.54 384.993 370.644 387.47 370.644 387.47C370.644 387.47 375.365 346.416 348.176 349.263C320.987 352.11 299.097 341.937 292.94 364.21C287.827 382.704 288.471 392.309 288.471 392.309C288.471 392.309 271.374 373.86 277.187 359.332C280.16 351.901 281.211 343.823 281.71 335.765Z" fill="#2F2E41"/>
<path d="M213.117 628.198H449.675C448.094 609 447.061 535.615 447.061 530.785C447.061 509.482 430.677 486.234 430.677 486.234L424.812 482.785L375.836 466.528L363.162 449.013C361.835 447.173 360.125 445.686 358.166 444.669C356.207 443.651 354.054 443.131 351.874 443.149L311.837 443.468C308.313 443.497 304.927 444.925 302.342 447.472L277.549 471.941L241.186 490.415L241.124 490.35L240.745 490.65L235.348 494.785L231.877 497.454C231.877 497.454 222.771 509.078 215.493 543.94C214.397 549.184 213.629 617.063 213.117 628.198Z" fill="url(#paint8_linear_85_9)"/>
<path d="M504.429 618.972C503.859 619.526 503.283 620.073 502.707 620.62C500.526 622.682 498.315 624.71 496.073 626.702C492.685 629.707 489.227 632.622 485.698 635.447H167.245C160.76 630.267 154.515 624.776 148.509 618.972H504.429Z" fill="white"/>
<path d="M387.698 622.926H270.634L273.111 610.406H385.221L387.698 622.926Z" fill="#2F2E41"/>
<path d="M493.608 568.89H463.146C462.459 568.888 461.779 569.046 461.155 569.353C460.531 569.661 459.978 570.11 459.535 570.669C459.111 570.582 458.679 570.538 458.247 570.537C457.297 570.536 456.357 570.735 455.48 571.12C454.602 571.506 453.805 572.072 453.133 572.786C452.462 573.5 451.929 574.348 451.565 575.281C451.202 576.214 451.015 577.214 451.015 578.224C451.015 579.234 451.202 580.235 451.565 581.168C451.929 582.101 452.462 582.949 453.133 583.663C453.805 584.376 454.602 584.943 455.48 585.328C456.357 585.714 457.297 585.912 458.247 585.911C459.338 585.911 460.414 585.645 461.393 585.134L461.901 591.776L463.92 618.03C464.016 618.358 464.145 618.674 464.304 618.972C464.713 619.77 465.315 620.435 466.049 620.899C466.782 621.363 467.62 621.608 468.473 621.608H488.281C489.135 621.607 489.973 621.362 490.707 620.898C491.442 620.434 492.046 619.769 492.456 618.972C492.611 618.672 492.737 618.356 492.833 618.03L498.16 575.447C498.379 574.689 498.428 573.887 498.303 573.105C498.178 572.324 497.882 571.584 497.439 570.947C496.996 570.309 496.419 569.79 495.753 569.433C495.088 569.076 494.353 568.89 493.608 568.89ZM458.247 583.717C456.879 583.715 455.567 583.136 454.6 582.106C453.633 581.076 453.09 579.68 453.09 578.224C453.09 576.769 453.633 575.373 454.6 574.343C455.567 573.313 456.879 572.733 458.247 572.732C458.34 572.732 458.426 572.758 458.519 572.765C458.315 573.649 458.341 574.576 458.594 575.447L460.774 582.986C460.006 583.46 459.135 583.712 458.247 583.717V583.717Z" fill="url(#paint9_linear_85_9)"/>
<path d="M424.806 429.563H231.978C230.321 429.565 228.733 430.267 227.561 431.513C226.39 432.759 225.731 434.449 225.728 436.212V574.649C225.729 576.412 226.388 578.103 227.56 579.349C228.732 580.596 230.321 581.297 231.978 581.298H424.806C426.463 581.297 428.052 580.596 429.223 579.349C430.395 578.103 431.054 576.412 431.056 574.649V436.212C431.053 434.449 430.394 432.759 429.222 431.513C428.051 430.267 426.463 429.565 424.806 429.563Z" fill="url(#paint10_linear_85_9)"/>
<path d="M350.108 540.488H304.997C304.359 540.489 303.748 540.76 303.297 541.24C302.846 541.721 302.593 542.373 302.594 543.052V618.867H352.517V543.052C352.517 542.715 352.455 542.381 352.334 542.07C352.213 541.759 352.035 541.477 351.812 541.239C351.588 541 351.322 540.812 351.03 540.683C350.737 540.554 350.424 540.488 350.108 540.488V540.488ZM327.704 583.565C326.294 583.558 324.942 582.959 323.945 581.898C322.947 580.836 322.384 579.399 322.377 577.898V569.154C322.379 567.652 322.941 566.212 323.94 565.15C324.939 564.089 326.292 563.493 327.704 563.493C329.116 563.493 330.47 564.089 331.469 565.15C332.467 566.212 333.029 567.652 333.031 569.154V577.898C333.024 579.399 332.461 580.836 331.464 581.898C330.466 582.959 329.115 583.558 327.704 583.565V583.565Z" fill="#1C202A"/>
<path d="M302.439 616.442V623.756C302.44 624.135 302.582 624.499 302.834 624.767C303.086 625.035 303.427 625.186 303.783 625.186H351.328C351.684 625.185 352.024 625.033 352.276 624.765C352.528 624.498 352.67 624.135 352.672 623.756V616.442H302.439Z" fill="#3F3D56"/>
<path d="M420.705 573.202C422.387 573.202 423.75 571.752 423.75 569.963C423.75 568.175 422.387 566.725 420.705 566.725C419.024 566.725 417.661 568.175 417.661 569.963C417.661 571.752 419.024 573.202 420.705 573.202Z" fill="#2F2E41"/>
<path d="M256.32 565.266C256.18 565.266 256.041 565.295 255.912 565.352C255.783 565.409 255.665 565.492 255.566 565.598C255.467 565.703 255.389 565.828 255.335 565.965C255.282 566.103 255.254 566.25 255.254 566.399V572.231C255.255 572.531 255.367 572.819 255.567 573.031C255.767 573.242 256.038 573.362 256.32 573.362C256.602 573.362 256.872 573.242 257.072 573.031C257.272 572.819 257.384 572.531 257.385 572.231V566.399C257.385 566.25 257.357 566.103 257.304 565.965C257.25 565.828 257.172 565.703 257.073 565.598C256.974 565.492 256.857 565.409 256.727 565.352C256.598 565.295 256.459 565.266 256.32 565.266V565.266Z" fill="#2F2E41"/>
<path d="M262.105 565.266C261.965 565.266 261.826 565.295 261.697 565.352C261.568 565.409 261.45 565.492 261.351 565.598C261.252 565.703 261.174 565.828 261.12 565.965C261.067 566.103 261.039 566.25 261.039 566.399V572.231C261.039 572.532 261.152 572.82 261.351 573.032C261.551 573.245 261.822 573.364 262.105 573.364C262.387 573.364 262.658 573.245 262.858 573.032C263.058 572.82 263.17 572.532 263.17 572.231V566.399C263.17 566.25 263.142 566.103 263.089 565.965C263.035 565.828 262.957 565.703 262.858 565.598C262.759 565.492 262.642 565.409 262.512 565.352C262.383 565.295 262.245 565.266 262.105 565.266V565.266Z" fill="#2F2E41"/>
<path d="M267.89 565.266C267.75 565.266 267.611 565.295 267.482 565.352C267.353 565.409 267.235 565.492 267.136 565.598C267.037 565.703 266.959 565.828 266.905 565.965C266.852 566.103 266.824 566.25 266.824 566.399V572.231C266.825 572.531 266.938 572.819 267.137 573.031C267.337 573.242 267.608 573.362 267.89 573.362C268.172 573.362 268.442 573.242 268.642 573.031C268.842 572.819 268.954 572.531 268.955 572.231V566.399C268.955 566.25 268.928 566.103 268.874 565.965C268.82 565.828 268.742 565.703 268.643 565.598C268.544 565.492 268.427 565.409 268.297 565.352C268.168 565.295 268.03 565.266 267.89 565.266Z" fill="#2F2E41"/>
<path d="M273.675 565.266C273.535 565.266 273.396 565.295 273.267 565.352C273.138 565.409 273.02 565.492 272.922 565.598C272.823 565.703 272.744 565.828 272.691 565.965C272.637 566.103 272.609 566.25 272.609 566.399V572.231C272.61 572.531 272.723 572.819 272.922 573.031C273.122 573.242 273.393 573.362 273.675 573.362C273.957 573.362 274.227 573.242 274.427 573.031C274.627 572.819 274.739 572.531 274.74 572.231V566.399C274.74 566.25 274.713 566.103 274.659 565.965C274.606 565.828 274.527 565.703 274.428 565.598C274.329 565.492 274.212 565.409 274.083 565.352C273.953 565.295 273.815 565.266 273.675 565.266V565.266Z" fill="#2F2E41"/>
<path d="M278.291 619.631C287.185 619.631 294.395 611.96 294.395 602.498C294.395 593.035 287.185 585.364 278.291 585.364C269.396 585.364 262.186 593.035 262.186 602.498C262.186 611.96 269.396 619.631 278.291 619.631Z" fill="#FFB8B8"/>
<path d="M390.795 622.926C399.689 622.926 406.899 615.255 406.899 605.793C406.899 596.33 399.689 588.659 390.795 588.659C381.901 588.659 374.691 596.33 374.691 605.793C374.691 615.255 381.901 622.926 390.795 622.926Z" fill="#FFB8B8"/>
<path d="M557.019 398.987C555.428 396.187 553.542 393.197 550.589 392.283C547.169 391.224 543.655 393.328 540.675 395.403C531.764 401.611 523.181 408.339 514.968 415.555L514.977 415.664C521.371 415.195 526.678 433.284 533.073 432.815C537.693 432.476 543.559 413.531 547.642 411.206C549.191 410.324 550.701 409.145 552.457 409.063C554.638 408.961 556.54 410.582 558.034 412.275C566.875 422.291 569.434 437.608 579.352 446.408C573.098 429.998 565.63 414.141 557.019 398.987V398.987Z" fill="white"/>
<path d="M571.299 423.315C575.963 432.278 580.91 441.062 586.14 449.668V449.674C586.109 449.978 586.065 450.281 586.022 450.584C585.39 449.556 584.765 448.523 584.145 447.487C579.45 439.651 574.989 431.667 570.76 423.533C568.753 419.665 566.796 415.766 564.888 411.836C563.414 408.792 561.971 405.73 560.559 402.65C560.156 401.767 559.766 400.884 559.376 399.994C558.459 397.912 557.555 395.816 556.589 393.76C555.486 391.414 554.142 388.963 552.117 387.388C551.195 386.641 550.093 386.189 548.939 386.083C547.313 386.094 545.721 386.579 544.337 387.487C533.859 393.346 524.08 400.521 515.207 408.858C506.324 417.161 498.383 426.54 491.547 436.805C491.336 437.121 490.84 436.818 491.051 436.495C491.887 435.243 492.73 434.011 493.597 432.785C504.344 417.58 517.521 404.505 532.525 394.156C535.046 392.416 537.617 390.758 540.237 389.18C541.556 388.383 542.882 387.599 544.232 386.861C545.524 386.055 546.974 385.577 548.468 385.464C553.609 385.378 556.273 391.573 558.1 395.737C558.67 397.049 559.25 398.358 559.84 399.665C562.064 404.607 564.374 409.51 566.771 414.373C568.246 417.372 569.755 420.352 571.299 423.315Z" fill="white"/>
<path d="M517.438 405.798C517.139 405.444 516.843 405.09 516.542 404.736C514.172 401.947 511.629 399.19 508.374 397.592C506.822 396.805 505.128 396.387 503.409 396.367C501.636 396.419 499.887 396.825 498.254 397.563C497.478 397.893 496.719 398.268 495.972 398.666C495.118 399.124 494.279 399.611 493.444 400.103C491.876 401.026 490.329 401.989 488.802 402.993C485.765 404.991 482.822 407.141 479.974 409.443C478.498 410.637 477.052 411.87 475.637 413.142C474.321 414.324 473.031 415.538 471.768 416.783C471.498 417.048 471.095 416.619 471.365 416.354C471.698 416.024 472.034 415.696 472.371 415.373C473.322 414.458 474.289 413.561 475.27 412.681C477.06 411.074 478.896 409.529 480.779 408.046C483.706 405.739 486.735 403.589 489.864 401.595C491.427 400.599 493.013 399.645 494.619 398.733C495.104 398.458 495.595 398.189 496.092 397.934C497.218 397.329 498.389 396.822 499.592 396.418C501.296 395.831 503.099 395.643 504.878 395.865C506.595 396.131 508.25 396.74 509.755 397.66C512.951 399.561 515.429 402.499 517.841 405.367C518.085 405.658 517.683 406.089 517.438 405.798Z" fill="white"/>
<path d="M494.053 419.216C493.241 419.259 492.438 419.014 491.77 418.52C490.002 417.095 490.048 413.671 491.912 408.053C492.419 406.531 493.214 405.136 494.248 403.953C495.282 402.771 496.533 401.826 497.924 401.179C499.226 400.559 500.636 400.234 502.063 400.225C503.49 400.216 504.903 400.523 506.212 401.126C506.441 401.232 506.666 401.345 506.888 401.467C508.404 402.369 509.825 403.442 511.127 404.666C512.233 405.687 513.414 406.615 514.657 407.44L515.072 407.698L514.679 407.993C504.645 415.508 497.842 419.216 494.053 419.216Z" fill="white"/>
<path d="M532.636 374.492C529.336 374.491 526.139 373.273 523.59 371.044C521.042 368.815 519.299 365.715 518.659 362.271C515.9 362.865 513.369 364.316 511.384 366.439C509.4 368.562 508.051 371.264 507.508 374.202C506.965 377.14 507.252 380.184 508.333 382.948C509.414 385.713 511.241 388.075 513.583 389.737C515.924 391.398 518.676 392.284 521.491 392.283C524.305 392.282 527.057 391.394 529.398 389.731C531.738 388.068 533.564 385.705 534.643 382.939C535.723 380.174 536.008 377.13 535.463 374.192C534.532 374.392 533.585 374.492 532.636 374.492V374.492Z" fill="white"/>
<path opacity="0.74" d="M151.291 398.874C163.032 398.874 172.55 388.748 172.55 376.256C172.55 363.765 163.032 353.638 151.291 353.638C139.55 353.638 130.032 363.765 130.032 376.256C130.032 388.748 139.55 398.874 151.291 398.874Z" fill="#3F3D56"/>
<path opacity="0.74" d="M172.55 398.874C184.291 398.874 193.809 388.748 193.809 376.256C193.809 363.765 184.291 353.638 172.55 353.638C160.809 353.638 151.291 363.765 151.291 376.256C151.291 388.748 160.809 398.874 172.55 398.874Z" fill="#6C63FF"/>
<path opacity="0.74" d="M162.101 380.848C173.842 380.848 183.36 370.721 183.36 358.23C183.36 345.739 173.842 335.612 162.101 335.612C150.359 335.612 140.841 345.739 140.841 358.23C140.841 370.721 150.359 380.848 162.101 380.848Z" fill="#FF6584"/>
<path d="M217.69 351.749L163.084 370L163.456 371.258L218.062 353.006L217.69 351.749Z" fill="#3F3D56"/>
<path d="M218.038 354.803C219.406 354.803 220.516 353.622 220.516 352.167C220.516 350.711 219.406 349.531 218.038 349.531C216.67 349.531 215.561 350.711 215.561 352.167C215.561 353.622 216.67 354.803 218.038 354.803Z" fill="#3F3D56"/>
<path d="M570.276 470.33C573.905 473.051 577.392 475.825 581.381 477.921C581.307 478.244 581.226 478.573 581.152 478.896C580.663 478.653 580.186 478.396 579.709 478.132C575.664 475.878 572.183 472.814 568.387 470.152C566.504 468.768 564.448 467.672 562.279 466.896C560.018 466.173 557.656 465.879 555.299 466.026C545.469 466.54 537.045 472.781 527.909 475.924C523.437 477.466 518.68 478.29 514.016 477.321C509.352 476.353 505.209 473.717 501.09 471.331C497.027 468.972 492.598 466.6 487.853 466.6C483.988 466.606 479.925 468.254 477.856 471.891C477.792 472 477.691 472.078 477.573 472.108C477.456 472.138 477.332 472.119 477.228 472.054C477.124 471.989 477.048 471.883 477.017 471.759C476.985 471.635 476.999 471.503 477.057 471.391C477.52 470.562 478.089 469.805 478.748 469.143C481.449 466.422 485.419 465.348 489.067 465.664C493.787 466.073 498.092 468.445 502.174 470.83C506.503 473.361 510.938 476.082 515.943 476.636C520.885 477.19 525.779 475.812 530.362 473.961C539.238 470.369 547.996 464.386 557.869 465.051C562.527 465.367 566.516 467.516 570.276 470.33Z" fill="white"/>
<path d="M184.031 280.192V281.53C183.614 281.442 183.191 281.398 182.767 281.398H176.288V296.199C176.287 298.39 175.468 300.491 174.012 302.041C172.556 303.59 170.581 304.461 168.521 304.462H158.945V306.742C158.945 307.656 159.116 308.561 159.447 309.405H158.121C157.844 308.548 157.704 307.648 157.706 306.742V304.462H152.442V303.144H157.706V288.344C157.708 286.153 158.526 284.051 159.983 282.502C161.439 280.953 163.414 280.082 165.474 280.08H175.049V277.774H176.288V280.08H182.767C183.19 280.081 183.613 280.118 184.031 280.192V280.192Z" fill="#6C63FF"/>
<path d="M168.521 269.537H151.228C149.168 269.538 147.193 270.409 145.737 271.958C144.28 273.508 143.462 275.609 143.461 277.8V296.199C143.462 298.39 144.28 300.491 145.737 302.041C147.193 303.59 149.168 304.461 151.228 304.462H168.521C170.581 304.461 172.556 303.59 174.012 302.041C175.468 300.491 176.287 298.39 176.288 296.199V277.774C176.281 275.587 175.459 273.493 174.004 271.949C172.548 270.405 170.576 269.538 168.521 269.537V269.537ZM175.049 296.199C175.047 298.04 174.359 299.805 173.135 301.107C171.911 302.409 170.252 303.142 168.521 303.145H151.228C149.497 303.142 147.838 302.409 146.614 301.107C145.39 299.805 144.702 298.04 144.699 296.199V277.8C144.702 275.959 145.39 274.194 146.614 272.892C147.838 271.59 149.497 270.857 151.228 270.855H168.521C170.248 270.857 171.903 271.586 173.126 272.882C174.35 274.178 175.041 275.937 175.049 277.774V296.199Z" fill="white"/>
<path d="M157.706 303.144V304.462H158.945V303.144H157.706ZM157.706 303.144V304.462H158.945V303.144H157.706ZM184.031 280.192C183.613 280.118 183.19 280.081 182.767 280.08H165.474C163.414 280.082 161.439 280.953 159.983 282.502C158.526 284.051 157.708 286.153 157.706 288.344V306.742C157.704 307.648 157.844 308.548 158.121 309.405C158.644 311.038 159.634 312.456 160.953 313.461C162.271 314.465 163.852 315.005 165.474 315.006H182.767C184.827 315.005 186.801 314.134 188.258 312.584C189.714 311.035 190.533 308.934 190.534 306.742V288.344C190.534 286.386 189.88 284.491 188.688 282.998C187.497 281.505 185.847 280.511 184.031 280.192V280.192ZM189.295 306.742C189.293 308.584 188.604 310.349 187.381 311.651C186.157 312.953 184.498 313.686 182.767 313.688H165.474C163.743 313.685 162.084 312.953 160.86 311.651C159.636 310.349 158.948 308.584 158.945 306.742V288.344C158.948 286.503 159.636 284.737 160.86 283.435C162.084 282.133 163.743 281.401 165.474 281.398H182.767C184.498 281.399 186.158 282.131 187.382 283.433C188.607 284.736 189.295 286.502 189.295 288.344V306.742ZM157.706 303.144V304.462H158.945V303.144H157.706Z" fill="white"/>
<path d="M145.474 474.933H72.0139C71.5025 474.933 71.0121 475.149 70.65 475.533C70.2878 475.917 70.0834 476.438 70.0814 476.982V481.615C72.505 491.491 75.4392 501.217 78.8706 510.749H145.474C145.727 510.749 145.977 510.696 146.211 510.593C146.445 510.49 146.657 510.339 146.836 510.149C147.015 509.959 147.157 509.732 147.254 509.484C147.35 509.235 147.4 508.968 147.4 508.699V476.982C147.399 476.439 147.196 475.918 146.835 475.534C146.474 475.15 145.984 474.934 145.474 474.933V474.933Z" fill="#6C63FF"/>
<path d="M138.474 521.035H82.7913C83.454 522.689 84.1292 524.33 84.8291 525.964H138.474C141.497 526.01 141.466 520.989 138.474 521.035Z" fill="white"/>
<path d="M138.474 532.33H87.6226C88.3658 533.984 89.1297 535.627 89.9143 537.259H138.474C141.497 537.305 141.466 532.29 138.474 532.33Z" fill="white"/>
<path d="M138.474 543.631H93.0422C93.8722 545.285 94.7269 546.926 95.5941 548.561H138.474C141.497 548.607 141.466 543.585 138.474 543.631Z" fill="white"/>
<path d="M519.307 239.866H518.954C520.053 239.867 521.136 240.14 522.119 240.662H520.513C518.782 240.664 517.123 241.397 515.899 242.699C514.675 244.001 513.987 245.766 513.985 247.608V266.007C513.987 267.848 514.675 269.614 515.899 270.916C517.123 272.218 518.782 272.95 520.513 272.952H521.537C520.714 273.296 519.838 273.473 518.954 273.474H519.307C521.202 273.472 523.019 272.67 524.359 271.244C525.699 269.818 526.453 267.886 526.455 265.87V247.47C526.453 245.454 525.699 243.521 524.359 242.096C523.019 240.67 521.202 239.868 519.307 239.866V239.866Z" fill="#3F3D56"/>
<path opacity="0.21" d="M519.307 239.866H518.954C520.053 239.867 521.136 240.14 522.119 240.662H520.513C518.782 240.664 517.123 241.397 515.899 242.699C514.675 244.001 513.987 245.766 513.985 247.608V266.007C513.987 267.848 514.675 269.614 515.899 270.916C517.123 272.218 518.782 272.95 520.513 272.952H521.537C520.714 273.296 519.838 273.473 518.954 273.474H519.307C521.202 273.472 523.019 272.67 524.359 271.244C525.699 269.818 526.453 267.886 526.455 265.87V247.47C526.453 245.454 525.699 243.521 524.359 242.096C523.019 240.67 521.202 239.868 519.307 239.866V239.866Z" fill="#DB00FF"/>
<path d="M473.472 239.866H473.119C474.218 239.867 475.301 240.14 476.284 240.662H474.678C472.947 240.664 471.288 241.397 470.064 242.699C468.84 244.001 468.152 245.766 468.15 247.608V266.007C468.152 267.848 468.84 269.614 470.064 270.916C471.288 272.218 472.947 272.95 474.678 272.952H475.702C474.879 273.296 474.003 273.473 473.119 273.474H473.472C475.367 273.472 477.184 272.67 478.524 271.244C479.864 269.818 480.618 267.886 480.62 265.87V247.47C480.618 245.454 479.864 243.521 478.524 242.096C477.184 240.67 475.367 239.868 473.472 239.866V239.866Z" fill="#6C63FF"/>
<path opacity="0.21" d="M473.472 239.866H473.119C474.218 239.867 475.301 240.14 476.284 240.662H474.678C472.947 240.664 471.288 241.397 470.064 242.699C468.84 244.001 468.152 245.766 468.15 247.608V266.007C468.152 267.848 468.84 269.614 470.064 270.916C471.288 272.218 472.947 272.95 474.678 272.952H475.702C474.879 273.296 474.003 273.473 473.119 273.474H473.472C475.367 273.472 477.184 272.67 478.524 271.244C479.864 269.818 480.618 267.886 480.62 265.87V247.47C480.618 245.454 479.864 243.521 478.524 242.096C477.184 240.67 475.367 239.868 473.472 239.866Z" fill="#AFFFFF"/>
<path d="M474.747 273.01C473.016 273.007 471.357 272.275 470.133 270.973C468.909 269.671 468.221 267.906 468.219 266.064V247.665C468.221 245.824 468.909 244.058 470.133 242.756C471.357 241.454 473.016 240.722 474.747 240.72H476.353C475.371 240.197 474.287 239.924 473.189 239.923H455.895C454 239.926 452.183 240.728 450.843 242.153C449.503 243.579 448.749 245.512 448.747 247.528V265.927C448.749 267.943 449.503 269.876 450.843 271.301C452.183 272.727 454 273.529 455.895 273.531H473.189C474.072 273.53 474.948 273.353 475.771 273.009L474.747 273.01Z" fill="#BEFFFF"/>
<path d="M520.582 273.01C518.851 273.007 517.192 272.275 515.968 270.973C514.744 269.671 514.056 267.906 514.054 266.064V247.665C514.056 245.824 514.744 244.058 515.968 242.756C517.192 241.454 518.851 240.722 520.582 240.72H522.188C521.205 240.197 520.122 239.924 519.023 239.923H501.729C499.835 239.926 498.018 240.728 496.678 242.153C495.338 243.579 494.584 245.512 494.582 247.528V265.927C494.584 267.943 495.338 269.876 496.678 271.301C498.018 272.727 499.835 273.529 501.729 273.531H519.023C519.907 273.53 520.783 273.353 521.606 273.009L520.582 273.01Z" fill="#FF85FF"/>
<path d="M538.924 244.801C545.27 254.091 551.077 263.785 556.31 273.829H545.483C543.588 273.826 541.772 273.024 540.432 271.598C539.092 270.173 538.338 268.24 538.335 266.225V247.826C538.335 246.785 538.535 245.756 538.924 244.801V244.801Z" fill="#FFFF83"/>
<path d="M519.294 283.184L513.236 273.53L508.808 266.472C508.549 266.06 508.186 265.734 507.761 265.533C507.336 265.331 506.865 265.261 506.404 265.332C505.943 265.403 505.511 265.612 505.157 265.934C504.803 266.256 504.542 266.678 504.404 267.151L502.539 273.53L498.786 286.347C498.638 286.858 498.639 287.404 498.791 287.914C498.942 288.424 499.236 288.872 499.633 289.199C500.03 289.527 500.512 289.717 501.013 289.746C501.515 289.774 502.013 289.639 502.44 289.359L503.772 288.482C504.04 288.306 504.346 288.206 504.66 288.191C504.975 288.177 505.288 288.247 505.569 288.397C505.851 288.547 506.092 288.771 506.27 289.048C506.447 289.324 506.555 289.645 506.584 289.978L507.804 304.146C507.861 304.797 508.144 305.402 508.598 305.843C509.051 306.284 509.643 306.529 510.257 306.532C510.331 306.532 510.406 306.525 510.486 306.518L512.357 306.341C512.679 306.309 512.993 306.211 513.28 306.05C513.567 305.89 513.821 305.671 514.028 305.406C514.235 305.141 514.391 304.835 514.487 304.506C514.583 304.177 514.617 303.83 514.587 303.487L513.329 288.858C513.299 288.514 513.355 288.168 513.491 287.855C513.627 287.541 513.838 287.272 514.103 287.073C514.368 286.873 514.677 286.752 515 286.721C515.323 286.69 515.649 286.749 515.943 286.894L516.216 287.026C516.704 287.265 517.252 287.328 517.776 287.205C518.301 287.082 518.774 286.78 519.122 286.345C519.471 285.91 519.676 285.366 519.707 284.795C519.738 284.225 519.593 283.659 519.294 283.184V283.184Z" fill="white"/>
</g>
<g filter="url(#filter0_d_85_9)">
<path d="M528.009 826.993C541.811 826.993 553 815.802 553 801.997C553 788.191 541.811 777 528.009 777C514.206 777 503.018 788.191 503.018 801.997C503.018 815.802 514.206 826.993 528.009 826.993Z" fill="url(#paint11_linear_85_9)"/>
<path fill-rule="evenodd" clip-rule="evenodd" d="M503 802.034C507.781 799.671 515.979 796.723 520.078 799.278C524.074 801.769 524.124 796.432 522.859 792.079C524.438 790.357 526.903 789.388 529.574 790.029C533.739 791.029 535.322 790.112 533.906 788.362C532.49 786.613 533.073 785.446 533.906 785.696C534.739 785.946 539.154 783.78 538.904 781.863C538.827 781.274 538.666 780.347 538.476 779.33C535.288 777.854 531.736 777.031 527.991 777.031C514.189 777.031 503 788.222 503 802.027C503 802.029 503 802.032 503 802.034Z" fill="url(#paint12_linear_85_9)"/>
<path fill-rule="evenodd" clip-rule="evenodd" d="M550.76 804.5C548.861 806.642 547.279 808.425 544.319 806.579C541.031 804.53 541.695 809.597 542.102 812.704C542.407 815.028 542.567 816.255 540.82 812.579C539.201 809.171 535.332 804.92 534.749 808.502C534.166 812.085 530.501 815.002 526.335 814.002C522.17 813.002 520.587 813.918 522.004 815.668C523.42 817.418 522.837 818.584 522.004 818.334C521.171 818.084 516.755 820.251 517.005 822.167C517.082 822.756 517.243 823.684 517.433 824.7C520.622 826.176 524.174 827 527.918 827C541.625 827 552.754 815.964 552.908 802.291C552.108 802.981 551.415 803.762 550.76 804.5Z" fill="url(#paint13_linear_85_9)"/>
</g>
<path d="M496.5 845.531C500.383 845.531 503.531 842.383 503.531 838.5C503.531 834.617 500.383 831.469 496.5 831.469C492.617 831.469 489.469 834.617 489.469 838.5C489.469 842.383 492.617 845.531 496.5 845.531Z" fill="#9A9B9C"/>
<path d="M500.719 840.891C501.625 840.891 502.359 840.156 502.359 839.25C502.359 838.344 501.625 837.609 500.719 837.609C499.813 837.609 499.078 838.344 499.078 839.25C499.078 840.156 499.813 840.891 500.719 840.891Z" fill="#747678"/>
<path d="M493.242 841.547C494.019 841.547 494.648 840.917 494.648 840.141C494.648 839.364 494.019 838.734 493.242 838.734C492.466 838.734 491.836 839.364 491.836 840.141C491.836 840.917 492.466 841.547 493.242 841.547Z" fill="#747678"/>
<path d="M494.672 844.828C495.837 844.828 496.781 843.884 496.781 842.719C496.781 841.554 495.837 840.609 494.672 840.609C493.507 840.609 492.562 841.554 492.562 842.719C492.562 843.884 493.507 844.828 494.672 844.828Z" fill="#747678"/>
<path d="M494.625 835.969C495.143 835.969 495.562 835.549 495.562 835.031C495.562 834.513 495.143 834.094 494.625 834.094C494.107 834.094 493.688 834.513 493.688 835.031C493.688 835.549 494.107 835.969 494.625 835.969Z" fill="#747678"/>
<path d="M497.672 836.203C498.19 836.203 498.609 835.783 498.609 835.266C498.609 834.748 498.19 834.328 497.672 834.328C497.154 834.328 496.734 834.748 496.734 835.266C496.734 835.783 497.154 836.203 497.672 836.203Z" fill="#747678"/>
<path d="M491.836 838.008C492.354 838.008 492.773 837.588 492.773 837.07C492.773 836.553 492.354 836.133 491.836 836.133C491.318 836.133 490.898 836.553 490.898 837.07C490.898 837.588 491.318 838.008 491.836 838.008Z" fill="#747678"/>
<path d="M498.141 833.625C498.4 833.625 498.609 833.415 498.609 833.156C498.609 832.897 498.4 832.687 498.141 832.687C497.882 832.687 497.672 832.897 497.672 833.156C497.672 833.415 497.882 833.625 498.141 833.625Z" fill="#747678"/>
<path d="M490.898 840.609C491.157 840.609 491.367 840.4 491.367 840.141C491.367 839.882 491.157 839.672 490.898 839.672C490.64 839.672 490.43 839.882 490.43 840.141C490.43 840.4 490.64 840.609 490.898 840.609Z" fill="#747678"/>
<path d="M501.188 843.187C501.446 843.187 501.656 842.978 501.656 842.719C501.656 842.46 501.446 842.25 501.188 842.25C500.929 842.25 500.719 842.46 500.719 842.719C500.719 842.978 500.929 843.187 501.188 843.187Z" fill="#747678"/>
<path d="M494.859 838.711C495.248 838.711 495.562 838.396 495.562 838.008C495.562 837.619 495.248 837.305 494.859 837.305C494.471 837.305 494.156 837.619 494.156 838.008C494.156 838.396 494.471 838.711 494.859 838.711Z" fill="#747678"/>
<path d="M492.516 835.148C492.775 835.148 492.984 834.939 492.984 834.68C492.984 834.421 492.775 834.211 492.516 834.211C492.257 834.211 492.047 834.421 492.047 834.68C492.047 834.939 492.257 835.148 492.516 835.148Z" fill="#747678"/>
<path d="M499.781 844.266C500.299 844.266 500.719 843.846 500.719 843.328C500.719 842.81 500.299 842.391 499.781 842.391C499.263 842.391 498.844 842.81 498.844 843.328C498.844 843.846 499.263 844.266 499.781 844.266Z" fill="#747678"/>
<path d="M494.672 833.531C494.672 834.187 495.188 834.703 495.844 834.703C496.5 834.703 497.016 834.187 497.016 833.531C497.016 832.875 496.5 832.359 495.844 832.359C495.188 832.336 494.672 832.875 494.672 833.531" fill="#747678"/>
<path d="M98.5 62.5312C102.383 62.5312 105.531 59.3833 105.531 55.5C105.531 51.6167 102.383 48.4688 98.5 48.4688C94.6167 48.4688 91.4688 51.6167 91.4688 55.5C91.4688 59.3833 94.6167 62.5312 98.5 62.5312Z" fill="#9A9B9C"/>
<path d="M102.719 57.8906C103.625 57.8906 104.359 57.1561 104.359 56.25C104.359 55.3439 103.625 54.6094 102.719 54.6094C101.813 54.6094 101.078 55.3439 101.078 56.25C101.078 57.1561 101.813 57.8906 102.719 57.8906Z" fill="#747678"/>
<path d="M95.2422 58.5469C96.0188 58.5469 96.6484 57.9173 96.6484 57.1406C96.6484 56.364 96.0188 55.7344 95.2422 55.7344C94.4655 55.7344 93.8359 56.364 93.8359 57.1406C93.8359 57.9173 94.4655 58.5469 95.2422 58.5469Z" fill="#747678"/>
<path d="M96.6719 61.8281C97.8369 61.8281 98.7813 60.8837 98.7813 59.7188C98.7813 58.5538 97.8369 57.6094 96.6719 57.6094C95.5069 57.6094 94.5625 58.5538 94.5625 59.7188C94.5625 60.8837 95.5069 61.8281 96.6719 61.8281Z" fill="#747678"/>
<path d="M96.625 52.9688C97.1428 52.9688 97.5625 52.549 97.5625 52.0313C97.5625 51.5135 97.1428 51.0938 96.625 51.0938C96.1072 51.0938 95.6875 51.5135 95.6875 52.0313C95.6875 52.549 96.1072 52.9688 96.625 52.9688Z" fill="#747678"/>
<path d="M99.6719 53.2031C100.19 53.2031 100.609 52.7834 100.609 52.2656C100.609 51.7479 100.19 51.3281 99.6719 51.3281C99.1541 51.3281 98.7344 51.7479 98.7344 52.2656C98.7344 52.7834 99.1541 53.2031 99.6719 53.2031Z" fill="#747678"/>
<path d="M93.8359 55.0078C94.3537 55.0078 94.7734 54.5881 94.7734 54.0703C94.7734 53.5525 94.3537 53.1328 93.8359 53.1328C93.3182 53.1328 92.8984 53.5525 92.8984 54.0703C92.8984 54.5881 93.3182 55.0078 93.8359 55.0078Z" fill="#747678"/>
<path d="M100.141 50.625C100.4 50.625 100.609 50.4151 100.609 50.1562C100.609 49.8974 100.4 49.6875 100.141 49.6875C99.8817 49.6875 99.6719 49.8974 99.6719 50.1562C99.6719 50.4151 99.8817 50.625 100.141 50.625Z" fill="#747678"/>
<path d="M92.8984 57.6094C93.1573 57.6094 93.3672 57.3995 93.3672 57.1406C93.3672 56.8817 93.1573 56.6719 92.8984 56.6719C92.6396 56.6719 92.4297 56.8817 92.4297 57.1406C92.4297 57.3995 92.6396 57.6094 92.8984 57.6094Z" fill="#747678"/>
<path d="M103.188 60.1875C103.446 60.1875 103.656 59.9776 103.656 59.7188C103.656 59.4599 103.446 59.25 103.188 59.25C102.929 59.25 102.719 59.4599 102.719 59.7188C102.719 59.9776 102.929 60.1875 103.188 60.1875Z" fill="#747678"/>
<path d="M96.8594 55.7109C97.2477 55.7109 97.5625 55.3961 97.5625 55.0078C97.5625 54.6195 97.2477 54.3047 96.8594 54.3047C96.471 54.3047 96.1562 54.6195 96.1562 55.0078C96.1562 55.3961 96.471 55.7109 96.8594 55.7109Z" fill="#747678"/>
<path d="M94.5156 52.1484C94.7745 52.1484 94.9844 51.9386 94.9844 51.6797C94.9844 51.4208 94.7745 51.2109 94.5156 51.2109C94.2567 51.2109 94.0469 51.4208 94.0469 51.6797C94.0469 51.9386 94.2567 52.1484 94.5156 52.1484Z" fill="#747678"/>
<path d="M101.781 61.2656C102.299 61.2656 102.719 60.8459 102.719 60.3281C102.719 59.8104 102.299 59.3906 101.781 59.3906C101.263 59.3906 100.844 59.8104 100.844 60.3281C100.844 60.8459 101.263 61.2656 101.781 61.2656Z" fill="#747678"/>
<path d="M96.6719 50.5313C96.6719 51.1875 97.1875 51.7031 97.8438 51.7031C98.5 51.7031 99.0156 51.1875 99.0156 50.5313C99.0156 49.875 98.5 49.3594 97.8438 49.3594C97.1875 49.3359 96.6719 49.875 96.6719 50.5313" fill="#747678"/>
<path d="M581.17 83.6206L574.972 82.7197L572.201 77.1021C572.125 76.9483 572.001 76.8237 571.847 76.7481C571.461 76.5576 570.992 76.7163 570.799 77.1021L568.028 82.7197L561.83 83.6206C561.659 83.645 561.502 83.7256 561.383 83.8477C561.238 83.9963 561.159 84.1963 561.161 84.4037C561.164 84.6111 561.249 84.8089 561.397 84.9536L565.882 89.3262L564.823 95.5005C564.798 95.6441 564.814 95.7918 564.869 95.9269C564.923 96.062 565.015 96.1789 565.133 96.2646C565.251 96.3503 565.391 96.4012 565.536 96.4115C565.681 96.4219 565.827 96.3913 565.956 96.3233L571.5 93.4082L577.044 96.3233C577.196 96.4038 577.372 96.4307 577.54 96.4014C577.965 96.3281 578.251 95.9253 578.177 95.5005L577.118 89.3262L581.603 84.9536C581.725 84.834 581.805 84.6777 581.83 84.5068C581.896 84.0796 581.598 83.6841 581.17 83.6206V83.6206Z" fill="url(#paint14_linear_85_9)"/>
<path d="M22.1704 637.621L15.9717 636.72L13.2007 631.102C13.125 630.948 13.0005 630.824 12.8467 630.748C12.4609 630.558 11.9922 630.716 11.7993 631.102L9.02831 636.72L2.82958 637.621C2.65868 637.645 2.50243 637.726 2.3828 637.848C2.23818 637.996 2.15849 638.196 2.16123 638.404C2.16398 638.611 2.24894 638.809 2.39745 638.954L6.88232 643.326L5.82275 649.5C5.7979 649.644 5.81379 649.792 5.86863 649.927C5.92346 650.062 6.01503 650.179 6.13297 650.265C6.25091 650.35 6.39049 650.401 6.53588 650.412C6.68127 650.422 6.82666 650.391 6.95556 650.323L12.5 647.408L18.0444 650.323C18.1958 650.404 18.3716 650.431 18.54 650.401C18.9648 650.328 19.2505 649.925 19.1772 649.5L18.1177 643.326L22.6025 638.954C22.7246 638.834 22.8052 638.678 22.8296 638.507C22.8955 638.08 22.5976 637.684 22.1704 637.621V637.621Z" fill="url(#paint15_linear_85_9)"/>
<g filter="url(#filter1_d_85_9)">
<path d="M128.009 47.7051C141.811 47.7051 153 37.0259 153 23.8525C153 10.6791 141.811 0 128.009 0C114.206 0 103.018 10.6791 103.018 23.8525C103.018 37.0259 114.206 47.7051 128.009 47.7051Z" fill="url(#paint16_linear_85_9)"/>
<path d="M128.009 47.7051C141.811 47.7051 153 37.0259 153 23.8525C153 10.6791 141.811 0 128.009 0C114.206 0 103.018 10.6791 103.018 23.8525C103.018 37.0259 114.206 47.7051 128.009 47.7051Z" fill="url(#paint17_linear_85_9)"/>
<path fill-rule="evenodd" clip-rule="evenodd" d="M103 23.8879C107.781 21.6335 115.979 18.82 120.078 21.2579C125.826 24.6767 138.071 23.7226 135.322 21.2579C134.08 20.144 130.949 20.0044 127.944 19.8705C124.3 19.7079 120.841 19.5539 121.16 17.68C121.744 14.2611 125.409 11.4783 129.574 12.4324C133.739 13.3865 135.322 12.512 133.906 10.8423C132.49 9.1726 133.073 8.05948 133.906 8.29801C134.739 8.53653 139.154 6.46931 138.904 4.64062C138.827 4.07865 138.666 3.19369 138.476 2.22366C135.288 0.815103 131.736 0.0291138 127.991 0.0291138C114.189 0.0291138 103 10.7083 103 23.8817C103 23.8837 103 23.8858 103 23.8879Z" fill="url(#paint18_linear_85_9)"/>
<path fill-rule="evenodd" clip-rule="evenodd" d="M103 23.8879C107.781 21.6335 115.979 18.82 120.078 21.2579C125.826 24.6767 138.071 23.7226 135.322 21.2579C134.08 20.144 130.949 20.0044 127.944 19.8705C124.3 19.7079 120.841 19.5539 121.16 17.68C121.744 14.2611 125.409 11.4783 129.574 12.4324C133.739 13.3865 135.322 12.512 133.906 10.8423C132.49 9.1726 133.073 8.05948 133.906 8.29801C134.739 8.53653 139.154 6.46931 138.904 4.64062C138.827 4.07865 138.666 3.19369 138.476 2.22366C135.288 0.815103 131.736 0.0291138 127.991 0.0291138C114.189 0.0291138 103 10.7083 103 23.8817C103 23.8837 103 23.8858 103 23.8879Z" fill="url(#paint19_linear_85_9)"/>
</g>
<defs>
<filter id="filter0_d_85_9" x="499" y="777" width="58.0001" height="58" filterUnits="userSpaceOnUse" color-interpolation-filters="sRGB">
<feFlood flood-opacity="0" result="BackgroundImageFix"/>
<feColorMatrix in="SourceAlpha" type="matrix" values="0 0 0 0 0 0 0 0 0 0 0 0 0 0 0 0 0 0 127 0" result="hardAlpha"/>
<feOffset dy="4"/>
<feGaussianBlur stdDeviation="2"/>
<feColorMatrix type="matrix" values="0 0 0 0 0 0 0 0 0 0 0 0 0 0 0 0 0 0 0.25 0"/>
<feBlend mode="normal" in2="BackgroundImageFix" result="effect1_dropShadow_85_9"/>
<feBlend mode="normal" in="SourceGraphic" in2="effect1_dropShadow_85_9" result="shape"/>
</filter>
<filter id="filter1_d_85_9" x="99" y="0" width="58" height="55.7051" filterUnits="userSpaceOnUse" color-interpolation-filters="sRGB">
<feFlood flood-opacity="0" result="BackgroundImageFix"/>
<feColorMatrix in="SourceAlpha" type="matrix" values="0 0 0 0 0 0 0 0 0 0 0 0 0 0 0 0 0 0 127 0" result="hardAlpha"/>
<feOffset dy="4"/>
<feGaussianBlur stdDeviation="2"/>
<feColorMatrix type="matrix" values="0 0 0 0 0 0 0 0 0 0 0 0 0 0 0 0 0 0 0.25 0"/>
<feBlend mode="normal" in2="BackgroundImageFix" result="effect1_dropShadow_85_9"/>
<feBlend mode="normal" in="SourceGraphic" in2="effect1_dropShadow_85_9" result="shape"/>
</filter>
<linearGradient id="paint0_linear_85_9" x1="323.994" y1="148.686" x2="323.994" y2="692" gradientUnits="userSpaceOnUse">
<stop stop-color="#8C46ED"/>
<stop offset="1" stop-color="#8C46ED" stop-opacity="0"/>
</linearGradient>
<linearGradient id="paint1_linear_85_9" x1="499.879" y1="501.073" x2="499.879" y2="628.203" gradientUnits="userSpaceOnUse">
<stop stop-color="#FF6584"/>
<stop offset="1" stop-color="#FF6584" stop-opacity="0"/>
</linearGradient>
<linearGradient id="paint2_linear_85_9" x1="461.074" y1="481.283" x2="461.074" y2="629.757" gradientUnits="userSpaceOnUse">
<stop stop-color="#FF6584"/>
<stop offset="1" stop-color="#FF6584" stop-opacity="0"/>
</linearGradient>
<linearGradient id="paint3_linear_85_9" x1="73.5158" y1="374.224" x2="73.5158" y2="507.274" gradientUnits="userSpaceOnUse">
<stop stop-color="#FF6584"/>
<stop offset="1" stop-color="#FF6584" stop-opacity="0"/>
</linearGradient>
<linearGradient id="paint4_linear_85_9" x1="111.279" y1="362.049" x2="111.279" y2="508.874" gradientUnits="userSpaceOnUse">
<stop stop-color="#FF6584"/>
<stop offset="1" stop-color="#FF6584" stop-opacity="0"/>
</linearGradient>
<linearGradient id="paint5_linear_85_9" x1="300.608" y1="132.369" x2="300.608" y2="210.711" gradientUnits="userSpaceOnUse">
<stop stop-color="#7331CE"/>
<stop offset="1" stop-color="#AA24B7"/>
</linearGradient>
<linearGradient id="paint6_linear_85_9" x1="353.556" y1="139.954" x2="353.556" y2="178.481" gradientUnits="userSpaceOnUse">
<stop stop-color="#FFB8B8"/>
<stop offset="1" stop-color="#FFB8B8" stop-opacity="0"/>
</linearGradient>
<linearGradient id="paint7_linear_85_9" x1="277.03" y1="192.184" x2="277.03" y2="230.714" gradientUnits="userSpaceOnUse">
<stop stop-color="#FFB8B8"/>
<stop offset="1" stop-color="#FFB8B8" stop-opacity="0"/>
</linearGradient>
<linearGradient id="paint8_linear_85_9" x1="331.396" y1="443.148" x2="331.396" y2="628.198" gradientUnits="userSpaceOnUse">
<stop stop-color="#6C63FF"/>
<stop offset="1" stop-color="#304EEB"/>
</linearGradient>
<linearGradient id="paint9_linear_85_9" x1="474.693" y1="568.89" x2="474.693" y2="621.608" gradientUnits="userSpaceOnUse">
<stop stop-color="#AA24B7"/>
<stop offset="1" stop-color="#EB30EB"/>
</linearGradient>
<linearGradient id="paint10_linear_85_9" x1="328.392" y1="429.563" x2="328.392" y2="581.298" gradientUnits="userSpaceOnUse">
<stop stop-color="#2F2E41"/>
<stop offset="1"/>
</linearGradient>
<linearGradient id="paint11_linear_85_9" x1="538.172" y1="775.167" x2="524.504" y2="829.325" gradientUnits="userSpaceOnUse">
<stop stop-color="#A046E8"/>
<stop offset="1" stop-color="#742BE8"/>
</linearGradient>
<linearGradient id="paint12_linear_85_9" x1="518.033" y1="771.395" x2="532.078" y2="806.661" gradientUnits="userSpaceOnUse">
<stop stop-color="#640FD8"/>
<stop offset="1" stop-color="#6500F0"/>
</linearGradient>
<linearGradient id="paint13_linear_85_9" x1="537.877" y1="832.636" x2="523.831" y2="797.369" gradientUnits="userSpaceOnUse">
<stop stop-color="#731CFF"/>
<stop offset="1" stop-color="#540DC7"/>
</linearGradient>
<linearGradient id="paint14_linear_85_9" x1="569.833" y1="78.75" x2="574.797" y2="103.086" gradientUnits="userSpaceOnUse">
<stop offset="0.197917" stop-color="#AA24B7"/>
<stop offset="0.708333" stop-color="#5A23AD"/>
</linearGradient>
<linearGradient id="paint15_linear_85_9" x1="10.8333" y1="632.75" x2="15.7966" y2="657.086" gradientUnits="userSpaceOnUse">
<stop offset="0.197917" stop-color="#5A23AD"/>
<stop offset="0.828125" stop-color="#AA24B7"/>
</linearGradient>
<linearGradient id="paint16_linear_85_9" x1="138.172" y1="-1.74919" x2="125.66" y2="50.2082" gradientUnits="userSpaceOnUse">
<stop stop-color="#FF3E3E"/>
<stop offset="1" stop-color="#E43700"/>
</linearGradient>
<linearGradient id="paint17_linear_85_9" x1="138.172" y1="-1.74919" x2="125.66" y2="50.2082" gradientUnits="userSpaceOnUse">
<stop stop-color="#EB30EB"/>
<stop offset="1" stop-color="#742BE8"/>
</linearGradient>
<linearGradient id="paint18_linear_85_9" x1="118.033" y1="-5.34871" x2="118.033" y2="24.6767" gradientUnits="userSpaceOnUse">
<stop stop-color="#BA0ED6"/>
<stop offset="1" stop-color="#FE6B00"/>
</linearGradient>
<linearGradient id="paint19_linear_85_9" x1="118.033" y1="-5.3487" x2="130.981" y2="28.7206" gradientUnits="userSpaceOnUse">
<stop stop-color="#EB30EB"/>
<stop offset="1" stop-color="#6500F0"/>
</linearGradient>
<clipPath id="clip0_85_9">
<rect width="559" height="578" fill="white" transform="translate(30 114)"/>
</clipPath>
</defs>
</svg>
