<svg width="35" height="35" viewBox="0 0 35 35" fill="none" xmlns="http://www.w3.org/2000/svg">
<path fill-rule="evenodd" clip-rule="evenodd" d="M10.8865 1.55458C12.5971 1.47583 13.1425 1.45833 17.5 1.45833C21.8575 1.45833 22.4029 1.47729 24.1121 1.55458C25.8212 1.63188 26.9879 1.90458 28.0087 2.29979C29.0777 2.70375 30.0475 3.33521 30.8496 4.15188C31.6662 4.9525 32.2962 5.92083 32.6987 6.99125C33.0954 8.01208 33.3667 9.17875 33.4454 10.885C33.5242 12.5985 33.5417 13.144 33.5417 17.5C33.5417 21.8575 33.5227 22.4029 33.4454 24.1135C33.3681 25.8198 33.0954 26.9865 32.6987 28.0073C32.2962 29.0778 31.6652 30.0478 30.8496 30.8496C30.0475 31.6663 29.0777 32.2963 28.0087 32.6988C26.9879 33.0954 25.8212 33.3667 24.115 33.4454C22.4029 33.5242 21.8575 33.5417 17.5 33.5417C13.1425 33.5417 12.5971 33.5227 10.8865 33.4454C9.1802 33.3681 8.01354 33.0954 6.9927 32.6988C5.92217 32.2962 4.95223 31.6652 4.15041 30.8496C3.3343 30.0485 2.70275 29.079 2.29979 28.0088C1.90458 26.9879 1.63333 25.8213 1.55458 24.115C1.47583 22.4015 1.45833 21.856 1.45833 17.5C1.45833 13.1425 1.47729 12.5971 1.55458 10.8879C1.63187 9.17875 1.90458 8.01208 2.29979 6.99125C2.70334 5.92095 3.33538 4.9515 4.15187 4.15042C4.95255 3.33448 5.92152 2.70294 6.99124 2.29979C8.01208 1.90458 9.17874 1.63333 10.885 1.55458H10.8865ZM23.9823 4.44208C22.2906 4.36479 21.7831 4.34875 17.5 4.34875C13.2169 4.34875 12.7094 4.36479 11.0177 4.44208C9.45291 4.51354 8.60416 4.77458 8.03833 4.99479C7.2902 5.28646 6.75499 5.63208 6.19354 6.19354C5.66131 6.71133 5.25172 7.34166 4.99479 8.03833C4.77458 8.60417 4.51354 9.45292 4.44208 11.0177C4.36479 12.7094 4.34874 13.2169 4.34874 17.5C4.34874 21.7831 4.36479 22.2906 4.44208 23.9823C4.51354 25.5471 4.77458 26.3958 4.99479 26.9617C5.25145 27.6573 5.66124 28.2888 6.19354 28.8065C6.71125 29.3388 7.3427 29.7485 8.03833 30.0052C8.60416 30.2254 9.45291 30.4865 11.0177 30.5579C12.7094 30.6352 13.2154 30.6513 17.5 30.6513C21.7846 30.6513 22.2906 30.6352 23.9823 30.5579C25.5471 30.4865 26.3958 30.2254 26.9617 30.0052C27.7098 29.7135 28.245 29.3679 28.8065 28.8065C29.3387 28.2888 29.7485 27.6573 30.0052 26.9617C30.2254 26.3958 30.4865 25.5471 30.5579 23.9823C30.6352 22.2906 30.6512 21.7831 30.6512 17.5C30.6512 13.2169 30.6352 12.7094 30.5579 11.0177C30.4865 9.45292 30.2254 8.60417 30.0052 8.03833C29.7135 7.29021 29.3679 6.755 28.8065 6.19354C28.2886 5.66135 27.6583 5.25177 26.9617 4.99479C26.3958 4.77458 25.5471 4.51354 23.9823 4.44208ZM15.451 22.4452C16.5953 22.9215 17.8695 22.9858 19.0559 22.6271C20.2424 22.2684 21.2674 21.5088 21.9561 20.4783C22.6447 19.4477 22.9542 18.21 22.8317 16.9766C22.7092 15.7432 22.1623 14.5906 21.2844 13.7156C20.7247 13.1563 20.048 12.7281 19.303 12.4617C18.5579 12.1953 17.7631 12.0974 16.9757 12.1751C16.1883 12.2527 15.4279 12.504 14.7493 12.9108C14.0707 13.3176 13.4907 13.8698 13.0511 14.5277C12.6115 15.1856 12.3232 15.9327 12.207 16.7154C12.0908 17.498 12.1496 18.2967 12.3791 19.0539C12.6086 19.8111 13.0032 20.508 13.5344 21.0944C14.0656 21.6808 14.7202 22.1421 15.451 22.4452ZM11.6696 11.6696C12.4352 10.9039 13.3442 10.2966 14.3446 9.88219C15.345 9.46782 16.4172 9.25455 17.5 9.25455C18.5828 9.25455 19.655 9.46782 20.6554 9.88219C21.6558 10.2966 22.5647 10.9039 23.3304 11.6696C24.0961 12.4352 24.7034 13.3442 25.1178 14.3446C25.5322 15.345 25.7454 16.4172 25.7454 17.5C25.7454 18.5828 25.5322 19.655 25.1178 20.6554C24.7034 21.6558 24.0961 22.5648 23.3304 23.3304C21.7841 24.8767 19.6868 25.7455 17.5 25.7455C15.3132 25.7455 13.2159 24.8767 11.6696 23.3304C10.1233 21.7841 9.25454 19.6868 9.25454 17.5C9.25454 15.3132 10.1233 13.2159 11.6696 11.6696ZM27.5742 10.4825C27.7639 10.3035 27.9158 10.0883 28.0209 9.84955C28.1259 9.61081 28.182 9.35341 28.1858 9.09261C28.1896 8.8318 28.141 8.57288 28.043 8.33118C27.9449 8.08948 27.7994 7.86991 27.6149 7.68547C27.4305 7.50104 27.2109 7.35548 26.9692 7.25742C26.7275 7.15936 26.4686 7.1108 26.2078 7.1146C25.947 7.1184 25.6896 7.1745 25.4509 7.27956C25.2121 7.38462 24.9969 7.53651 24.8179 7.72625C24.4698 8.09525 24.2792 8.58539 24.2866 9.09261C24.294 9.59983 24.4988 10.0842 24.8575 10.4429C25.2162 10.8016 25.7006 11.0064 26.2078 11.0138C26.715 11.0212 27.2052 10.8306 27.5742 10.4825Z" fill="#FD25FD"/>
</svg>
