<svg width="40" height="40" viewBox="0 0 40 40" fill="none" xmlns="http://www.w3.org/2000/svg">
<g clip-path="url(#clip0_40_224)">
<path d="M38.5317 1.45335C38.0107 0.933666 37.381 0.536001 36.6879 0.289012C35.9948 0.0420225 35.2555 -0.0481411 34.5233 0.0250179C29.8683 0.475018 14.2133 2.41335 8.16665 8.45335C5.27626 11.3516 3.5623 15.2181 3.35577 19.306C3.14923 23.394 4.46476 27.4135 7.04831 30.5884L0.481647 37.155C0.17805 37.4694 0.0100596 37.8904 0.0138569 38.3274C0.0176543 38.7644 0.192936 39.1824 0.501949 39.4914C0.810963 39.8004 1.22898 39.9757 1.66598 39.9795C2.10297 39.9833 2.52398 39.8153 2.83831 39.5117L9.40498 32.945C12.5792 35.532 16.5998 36.8503 20.6895 36.645C24.7792 36.4396 28.6476 34.7253 31.5466 31.8334C37.6733 25.705 39.5466 10.0984 39.9783 5.46169C40.0489 4.72814 39.9557 3.98807 39.7055 3.2949C39.4554 2.60173 39.0544 1.97275 38.5317 1.45335ZM29.1983 29.47C26.9258 31.7342 23.907 33.0939 20.7054 33.2954C17.5039 33.4969 14.3384 32.5264 11.8 30.565L27.8533 14.5117C28.1569 14.1974 28.3249 13.7763 28.3211 13.3394C28.3173 12.9024 28.142 12.4843 27.833 12.1753C27.524 11.8663 27.106 11.691 26.669 11.6872C26.232 11.6834 25.811 11.8514 25.4966 12.155L9.43498 28.2084C7.47327 25.6701 6.50253 22.5045 6.70403 19.3029C6.90554 16.1012 8.26551 13.0823 10.53 10.81C14.7116 6.63002 26.2416 4.16669 34.845 3.34169C35.0886 3.31797 35.3346 3.34823 35.5652 3.43032C35.7958 3.5124 36.0056 3.64429 36.1795 3.8166C36.3534 3.98892 36.4872 4.19743 36.5714 4.42731C36.6556 4.6572 36.6881 4.90281 36.6666 5.14669C35.8333 14.125 33.4316 25.2284 29.19 29.47H29.1983Z" fill="white"/>
</g>
<defs>
<clipPath id="clip0_40_224">
<rect width="40" height="40" fill="white"/>
</clipPath>
</defs>
</svg>
