<svg width="40" height="40" viewBox="0 0 40 40" fill="none" xmlns="http://www.w3.org/2000/svg">
<g clip-path="url(#clip0_40_216)">
<path d="M6.25 20C6.58152 20 6.89946 19.8683 7.13388 19.6339C7.3683 19.3995 7.5 19.0815 7.5 18.75C7.5 18.4185 7.3683 18.1005 7.13388 17.8661C6.89946 17.6317 6.58152 17.5 6.25 17.5C5.91848 17.5 5.60054 17.6317 5.36612 17.8661C5.1317 18.1005 5 18.4185 5 18.75C5 19.0815 5.1317 19.3995 5.36612 19.6339C5.60054 19.8683 5.91848 20 6.25 20Z" fill="white"/>
<path d="M12.5 2.5C11.1739 2.5 9.90215 3.02678 8.96447 3.96447C8.02678 4.90215 7.5 6.17392 7.5 7.5V12.5H5C3.67392 12.5 2.40215 13.0268 1.46447 13.9645C0.526784 14.9021 0 16.1739 0 17.5L0 25C0 26.3261 0.526784 27.5979 1.46447 28.5355C2.40215 29.4732 3.67392 30 5 30H7.5V32.5C7.5 33.8261 8.02678 35.0979 8.96447 36.0355C9.90215 36.9732 11.1739 37.5 12.5 37.5H27.5C28.8261 37.5 30.0979 36.9732 31.0355 36.0355C31.9732 35.0979 32.5 33.8261 32.5 32.5V30H35C36.3261 30 37.5979 29.4732 38.5355 28.5355C39.4732 27.5979 40 26.3261 40 25V17.5C40 16.1739 39.4732 14.9021 38.5355 13.9645C37.5979 13.0268 36.3261 12.5 35 12.5H32.5V7.5C32.5 6.17392 31.9732 4.90215 31.0355 3.96447C30.0979 3.02678 28.8261 2.5 27.5 2.5H12.5ZM10 7.5C10 6.83696 10.2634 6.20107 10.7322 5.73223C11.2011 5.26339 11.837 5 12.5 5H27.5C28.163 5 28.7989 5.26339 29.2678 5.73223C29.7366 6.20107 30 6.83696 30 7.5V12.5H10V7.5ZM12.5 20C11.1739 20 9.90215 20.5268 8.96447 21.4645C8.02678 22.4021 7.5 23.6739 7.5 25V27.5H5C4.33696 27.5 3.70107 27.2366 3.23223 26.7678C2.76339 26.2989 2.5 25.663 2.5 25V17.5C2.5 16.837 2.76339 16.2011 3.23223 15.7322C3.70107 15.2634 4.33696 15 5 15H35C35.663 15 36.2989 15.2634 36.7678 15.7322C37.2366 16.2011 37.5 16.837 37.5 17.5V25C37.5 25.663 37.2366 26.2989 36.7678 26.7678C36.2989 27.2366 35.663 27.5 35 27.5H32.5V25C32.5 23.6739 31.9732 22.4021 31.0355 21.4645C30.0979 20.5268 28.8261 20 27.5 20H12.5ZM30 25V32.5C30 33.163 29.7366 33.7989 29.2678 34.2678C28.7989 34.7366 28.163 35 27.5 35H12.5C11.837 35 11.2011 34.7366 10.7322 34.2678C10.2634 33.7989 10 33.163 10 32.5V25C10 24.337 10.2634 23.7011 10.7322 23.2322C11.2011 22.7634 11.837 22.5 12.5 22.5H27.5C28.163 22.5 28.7989 22.7634 29.2678 23.2322C29.7366 23.7011 30 24.337 30 25Z" fill="white"/>
</g>
<defs>
<clipPath id="clip0_40_216">
<rect width="40" height="40" fill="white"/>
</clipPath>
</defs>
</svg>
