<svg width="35" height="34" viewBox="0 0 35 34" fill="none" xmlns="http://www.w3.org/2000/svg">
<path fill-rule="evenodd" clip-rule="evenodd" d="M25.5191 20.0111C25.0824 19.8038 22.9415 18.8048 22.543 18.6656C22.1444 18.5279 21.8543 18.4597 21.5626 18.8743C21.2725 19.2862 20.4387 20.2184 20.1852 20.4939C19.9302 20.7708 19.6767 20.8042 19.2415 20.5983C18.8063 20.3896 17.4025 19.9541 15.7393 18.546C14.4454 17.4496 13.5706 16.0957 13.3171 15.6811C13.0636 15.2678 13.2893 15.0438 13.5076 14.8379C13.704 14.6528 13.9428 14.3551 14.1612 14.1144C14.3795 13.8723 14.4513 13.6997 14.5964 13.4229C14.7429 13.1474 14.6696 12.9066 14.5597 12.6993C14.4513 12.492 13.5809 10.4564 13.2175 9.62852C12.8643 8.8229 12.5053 8.93282 12.2386 8.9189C11.9836 8.90777 11.6935 8.90499 11.4034 8.90499C11.1132 8.90499 10.6414 9.00795 10.2428 9.42259C9.84276 9.83583 8.71884 10.8362 8.71884 12.8719C8.71884 14.9061 10.278 16.8721 10.4963 17.149C10.7146 17.4245 13.5662 21.6015 17.9344 23.3922C18.9748 23.818 19.7852 24.0726 20.4167 24.2618C21.4601 24.5777 22.4096 24.5331 23.1599 24.426C23.9951 24.3077 25.736 23.4256 26.0994 22.46C26.4613 21.4943 26.4613 20.6665 26.3529 20.4939C26.2444 20.3214 25.9543 20.2184 25.5176 20.0111H25.5191ZM17.574 30.3116H17.5681C14.9736 30.3121 12.4267 29.6498 10.1944 28.3943L9.66692 28.0965L4.18358 29.4629L5.64746 24.3871L5.30311 23.8667C3.85261 21.6743 3.085 19.137 3.08896 16.5479C3.09189 8.96482 9.58926 2.79537 17.5798 2.79537C21.4483 2.79537 25.0854 4.22851 27.8197 6.82764C29.1684 8.10296 30.2373 9.61956 30.9647 11.2897C31.6921 12.9598 32.0636 14.7504 32.0575 16.5577C32.0546 24.1408 25.5572 30.3116 17.574 30.3116V30.3116ZM29.9005 4.85325C28.286 3.31008 26.3649 2.08651 24.2488 1.25343C22.1326 0.420347 19.8633 -0.00567167 17.5725 5.7016e-05C7.96858 5.7016e-05 0.149466 7.42315 0.146535 16.5465C0.14507 19.4629 0.946617 22.3097 2.47205 24.8184L0 33.3936L9.23757 31.0922C11.793 32.4142 14.6566 33.1069 17.5666 33.1069H17.574C27.1779 33.1069 34.997 25.6838 34.9999 16.5591C35.007 14.3847 34.56 12.2306 33.6847 10.2213C32.8094 8.21203 31.5232 6.3875 29.9005 4.85325" fill="#FD25FD"/>
</svg>
