<svg width="1360" height="980" viewBox="0 0 1360 980" fill="none" xmlns="http://www.w3.org/2000/svg">
<rect width="1360" height="768" fill="#161A23"/>
<path d="M1254.5 979.531C1258.38 979.531 1261.53 976.383 1261.53 972.5C1261.53 968.617 1258.38 965.469 1254.5 965.469C1250.62 965.469 1247.47 968.617 1247.47 972.5C1247.47 976.383 1250.62 979.531 1254.5 979.531Z" fill="#9A9B9C"/>
<path d="M1258.72 974.891C1259.62 974.891 1260.36 974.156 1260.36 973.25C1260.36 972.344 1259.62 971.609 1258.72 971.609C1257.81 971.609 1257.08 972.344 1257.08 973.25C1257.08 974.156 1257.81 974.891 1258.72 974.891Z" fill="#747678"/>
<path d="M1251.24 975.547C1252.02 975.547 1252.65 974.917 1252.65 974.141C1252.65 973.364 1252.02 972.734 1251.24 972.734C1250.47 972.734 1249.84 973.364 1249.84 974.141C1249.84 974.917 1250.47 975.547 1251.24 975.547Z" fill="#747678"/>
<path d="M1252.67 978.828C1253.84 978.828 1254.78 977.884 1254.78 976.719C1254.78 975.554 1253.84 974.609 1252.67 974.609C1251.51 974.609 1250.56 975.554 1250.56 976.719C1250.56 977.884 1251.51 978.828 1252.67 978.828Z" fill="#747678"/>
<path d="M1252.62 969.969C1253.14 969.969 1253.56 969.549 1253.56 969.031C1253.56 968.513 1253.14 968.094 1252.62 968.094C1252.11 968.094 1251.69 968.513 1251.69 969.031C1251.69 969.549 1252.11 969.969 1252.62 969.969Z" fill="#747678"/>
<path d="M1255.67 970.203C1256.19 970.203 1256.61 969.783 1256.61 969.266C1256.61 968.748 1256.19 968.328 1255.67 968.328C1255.15 968.328 1254.73 968.748 1254.73 969.266C1254.73 969.783 1255.15 970.203 1255.67 970.203Z" fill="#747678"/>
<path d="M1249.84 972.008C1250.35 972.008 1250.77 971.588 1250.77 971.07C1250.77 970.553 1250.35 970.133 1249.84 970.133C1249.32 970.133 1248.9 970.553 1248.9 971.07C1248.9 971.588 1249.32 972.008 1249.84 972.008Z" fill="#747678"/>
<path d="M1256.14 967.625C1256.4 967.625 1256.61 967.415 1256.61 967.156C1256.61 966.897 1256.4 966.688 1256.14 966.688C1255.88 966.688 1255.67 966.897 1255.67 967.156C1255.67 967.415 1255.88 967.625 1256.14 967.625Z" fill="#747678"/>
<path d="M1248.9 974.609C1249.16 974.609 1249.37 974.4 1249.37 974.141C1249.37 973.882 1249.16 973.672 1248.9 973.672C1248.64 973.672 1248.43 973.882 1248.43 974.141C1248.43 974.4 1248.64 974.609 1248.9 974.609Z" fill="#747678"/>
<path d="M1259.19 977.188C1259.45 977.188 1259.66 976.978 1259.66 976.719C1259.66 976.46 1259.45 976.25 1259.19 976.25C1258.93 976.25 1258.72 976.46 1258.72 976.719C1258.72 976.978 1258.93 977.188 1259.19 977.188Z" fill="#747678"/>
<path d="M1252.86 972.711C1253.25 972.711 1253.56 972.396 1253.56 972.008C1253.56 971.619 1253.25 971.305 1252.86 971.305C1252.47 971.305 1252.16 971.619 1252.16 972.008C1252.16 972.396 1252.47 972.711 1252.86 972.711Z" fill="#747678"/>
<path d="M1250.52 969.148C1250.77 969.148 1250.98 968.939 1250.98 968.68C1250.98 968.421 1250.77 968.211 1250.52 968.211C1250.26 968.211 1250.05 968.421 1250.05 968.68C1250.05 968.939 1250.26 969.148 1250.52 969.148Z" fill="#747678"/>
<path d="M1257.78 978.266C1258.3 978.266 1258.72 977.846 1258.72 977.328C1258.72 976.81 1258.3 976.391 1257.78 976.391C1257.26 976.391 1256.84 976.81 1256.84 977.328C1256.84 977.846 1257.26 978.266 1257.78 978.266Z" fill="#747678"/>
<path d="M1252.67 967.531C1252.67 968.188 1253.19 968.703 1253.84 968.703C1254.5 968.703 1255.02 968.188 1255.02 967.531C1255.02 966.875 1254.5 966.359 1253.84 966.359C1253.19 966.336 1252.67 966.875 1252.67 967.531" fill="#747678"/>
<path d="M510.009 699.529L504.154 698.844L501.537 694.572C501.466 694.455 501.348 694.361 501.203 694.303C500.839 694.158 500.396 694.279 500.214 694.572L497.597 698.844L491.742 699.529C491.581 699.547 491.433 699.609 491.32 699.701C491.184 699.814 491.109 699.967 491.111 700.124C491.114 700.282 491.194 700.432 491.334 700.542L495.57 703.867L494.569 708.562C494.546 708.671 494.561 708.784 494.613 708.886C494.664 708.989 494.751 709.078 494.862 709.143C494.974 709.208 495.105 709.247 495.243 709.255C495.38 709.263 495.517 709.24 495.639 709.188L500.876 706.971L506.112 709.188C506.255 709.249 506.421 709.269 506.58 709.247C506.981 709.191 507.251 708.885 507.182 708.562L506.181 703.867L510.417 700.542C510.532 700.451 510.608 700.333 510.631 700.203C510.694 699.878 510.412 699.577 510.009 699.529V699.529Z" fill="url(#paint0_linear_42_227)"/>
<g filter="url(#filter0_d_42_227)">
<path d="M1223.07 717.798C1238.71 717.798 1251.39 707.588 1251.39 694.994C1251.39 682.4 1238.71 672.19 1223.07 672.19C1207.42 672.19 1194.74 682.4 1194.74 694.994C1194.74 707.588 1207.42 717.798 1223.07 717.798Z" fill="url(#paint1_linear_42_227)"/>
<path fill-rule="evenodd" clip-rule="evenodd" d="M1248.85 697.278C1246.7 699.232 1244.91 700.858 1241.55 699.175C1237.82 697.305 1238.58 701.928 1239.04 704.762C1239.38 706.883 1239.57 708.002 1237.59 704.648C1235.75 701.539 1231.37 697.661 1230.7 700.929C1230.04 704.198 1225.89 706.858 1221.17 705.946C1216.45 705.034 1214.65 705.87 1216.26 707.466C1217.86 709.062 1217.2 710.127 1216.26 709.899C1215.32 709.671 1210.31 711.647 1210.59 713.395C1210.68 713.932 1210.86 714.778 1211.08 715.706C1214.69 717.052 1218.72 717.804 1222.96 717.804C1238.5 717.804 1251.11 707.736 1251.28 695.262C1250.38 695.892 1249.59 696.604 1248.85 697.278Z" fill="url(#paint2_linear_42_227)"/>
<path fill-rule="evenodd" clip-rule="evenodd" d="M1194.72 695.027C1200.14 692.872 1209.43 690.182 1214.08 692.512C1218.61 694.785 1218.66 689.916 1217.23 685.945C1219.02 684.374 1221.81 683.49 1224.84 684.075C1229.56 684.987 1231.35 684.151 1229.75 682.555C1228.14 680.959 1228.8 679.894 1229.75 680.122C1230.69 680.35 1235.7 678.374 1235.41 676.626C1235.33 676.089 1235.14 675.242 1234.93 674.315C1231.32 672.968 1227.29 672.217 1223.05 672.217C1207.4 672.217 1194.72 682.427 1194.72 695.021C1194.72 695.023 1194.72 695.025 1194.72 695.027Z" fill="url(#paint3_linear_42_227)"/>
</g>
<path d="M1289.18 539.846L1283.32 539.161L1280.7 534.889C1280.63 534.772 1280.51 534.677 1280.37 534.62C1280.01 534.475 1279.56 534.596 1279.38 534.889L1276.76 539.161L1270.91 539.846C1270.75 539.864 1270.6 539.925 1270.49 540.018C1270.35 540.131 1270.28 540.283 1270.28 540.441C1270.28 540.599 1270.36 540.749 1270.5 540.859L1274.74 544.184L1273.74 548.879C1273.71 548.988 1273.73 549.101 1273.78 549.203C1273.83 549.306 1273.92 549.395 1274.03 549.46C1274.14 549.525 1274.27 549.564 1274.41 549.572C1274.55 549.58 1274.68 549.556 1274.81 549.505L1280.04 547.288L1285.28 549.505C1285.42 549.566 1285.59 549.586 1285.75 549.564C1286.15 549.508 1286.42 549.202 1286.35 548.879L1285.35 544.184L1289.58 540.859C1289.7 540.768 1289.77 540.649 1289.8 540.519C1289.86 540.195 1289.58 539.894 1289.18 539.846V539.846Z" fill="url(#paint4_linear_42_227)"/>
<path d="M132.231 196.147L126.377 195.461L123.76 191.19C123.688 191.073 123.57 190.978 123.425 190.921C123.061 190.776 122.618 190.897 122.436 191.19L119.819 195.461L113.965 196.147C113.803 196.165 113.656 196.226 113.543 196.319C113.406 196.432 113.331 196.584 113.333 196.742C113.336 196.9 113.416 197.05 113.557 197.16L117.792 200.485L116.792 205.18C116.768 205.289 116.783 205.401 116.835 205.504C116.887 205.607 116.973 205.696 117.084 205.761C117.196 205.826 117.328 205.865 117.465 205.873C117.602 205.881 117.74 205.857 117.861 205.806L123.098 203.589L128.334 205.806C128.477 205.867 128.643 205.887 128.802 205.865C129.203 205.809 129.473 205.503 129.404 205.18L128.403 200.485L132.639 197.16C132.754 197.069 132.83 196.95 132.854 196.82C132.916 196.496 132.634 196.195 132.231 196.147V196.147Z" fill="url(#paint5_linear_42_227)"/>
<g clip-path="url(#clip0_42_227)">
<path d="M150.734 125.629C150.418 125.944 149.996 126.105 149.58 126.105C149.165 126.105 148.743 125.944 148.427 125.629L125.363 102.565C124.725 101.927 124.725 100.897 125.363 100.259C128.754 96.8682 133.251 95.0001 138.049 95C142.838 95.0078 147.343 96.8682 150.734 100.259L150.826 100.351C154.162 103.733 155.984 108.2 155.992 112.944C155.984 117.733 154.124 122.238 150.734 125.629Z" fill="#E2E7EC"/>
<path d="M148.427 125.628C148.742 125.944 149.165 126.105 149.58 126.105C149.996 126.105 150.418 125.944 150.734 125.628C154.124 122.238 155.984 117.733 155.992 112.943C155.984 108.2 154.162 103.733 150.826 100.35L150.734 100.258L136.895 114.096L148.427 125.628Z" fill="#CCD5E0"/>
<path d="M132.574 135.612C130.397 135.612 128.349 134.764 126.808 133.223L117.583 123.998C114.404 120.818 114.404 115.645 117.583 112.466C118.194 111.854 119.277 111.854 119.889 112.466L138.34 130.917C138.977 131.554 138.977 132.586 138.34 133.223C136.8 134.763 134.752 135.612 132.574 135.612Z" fill="#777675"/>
<path d="M138.34 130.917L129.207 121.785L122.288 128.704L126.808 133.223C128.348 134.764 130.397 135.612 132.574 135.612C134.752 135.612 136.8 134.763 138.34 133.223C138.977 132.586 138.977 131.554 138.34 130.917Z" fill="#434242"/>
<path d="M146.505 140.132C145.198 140.132 143.97 139.623 143.046 138.699L112.108 107.76C111.183 106.837 110.674 105.608 110.674 104.301C110.674 102.994 111.183 101.766 112.108 100.842C114.264 98.6858 117.131 97.4982 120.179 97.4982C123.229 97.4982 126.095 98.6858 128.252 100.842L149.965 122.555C154.415 127.005 154.415 134.248 149.965 138.699C149.041 139.623 147.812 140.132 146.505 140.132Z" fill="#8D78E2"/>
<path d="M120.685 144.907C120.36 144.907 120.033 144.811 119.747 144.61C119.01 144.092 118.834 143.074 119.352 142.338L123.683 136.185C124.201 135.448 125.218 135.271 125.955 135.79C126.692 136.308 126.868 137.326 126.35 138.062L122.019 144.215C121.702 144.666 121.197 144.907 120.685 144.907Z" fill="#8B8AC8"/>
<path d="M149.964 122.554L139.201 111.791L127.67 123.323L143.046 138.699C143.97 139.623 145.198 140.132 146.505 140.132C147.812 140.132 149.041 139.623 149.965 138.699C154.415 134.248 154.415 127.005 149.964 122.554Z" fill="#9F6BC8"/>
<path d="M141.979 128.909C142.879 128.909 143.61 128.179 143.61 127.278C143.61 126.377 142.879 125.647 141.979 125.647C141.078 125.647 140.348 126.377 140.348 127.278C140.348 128.179 141.078 128.909 141.979 128.909Z" fill="#EFC36C"/>
<path d="M107.64 131.861C107.127 131.861 106.622 131.62 106.305 131.168C105.787 130.432 105.963 129.414 106.7 128.896L112.853 124.566C113.59 124.048 114.606 124.224 115.125 124.961C115.643 125.697 115.467 126.715 114.73 127.233L108.577 131.563C108.292 131.764 107.965 131.861 107.64 131.861Z" fill="#CFA7E2"/>
<path d="M106.578 144.523C105.942 143.886 105.941 142.853 106.578 142.216L117.438 131.357C118.075 130.72 119.107 130.72 119.744 131.357C120.381 131.994 120.381 133.026 119.744 133.663L108.885 144.523C108.248 145.16 107.215 145.159 106.578 144.523Z" fill="#BDA7E2"/>
<path d="M108.885 144.522L119.744 133.663C120.381 133.026 120.381 131.994 119.744 131.357L106.579 144.522C107.215 145.159 108.248 145.159 108.885 144.522Z" fill="#938AC8"/>
<path d="M132.847 119.776C133.748 119.776 134.478 119.046 134.478 118.145C134.478 117.244 133.748 116.514 132.847 116.514C131.947 116.514 131.216 117.244 131.216 118.145C131.216 119.046 131.947 119.776 132.847 119.776Z" fill="#F3D583"/>
<path d="M134 119.299C134.637 118.662 134.637 117.629 134 116.993L131.693 119.299C132.33 119.936 133.363 119.936 134 119.299Z" fill="#EFC36C"/>
<path d="M123.528 110.458C124.429 110.458 125.159 109.728 125.159 108.827C125.159 107.927 124.429 107.197 123.528 107.197C122.628 107.197 121.898 107.927 121.898 108.827C121.898 109.728 122.628 110.458 123.528 110.458Z" fill="#F3D583"/>
</g>
<defs>
<filter id="filter0_d_42_227" x="1190.72" y="672.19" width="64.6667" height="53.6138" filterUnits="userSpaceOnUse" color-interpolation-filters="sRGB">
<feFlood flood-opacity="0" result="BackgroundImageFix"/>
<feColorMatrix in="SourceAlpha" type="matrix" values="0 0 0 0 0 0 0 0 0 0 0 0 0 0 0 0 0 0 127 0" result="hardAlpha"/>
<feOffset dy="4"/>
<feGaussianBlur stdDeviation="2"/>
<feColorMatrix type="matrix" values="0 0 0 0 0 0 0 0 0 0 0 0 0 0 0 0 0 0 0.25 0"/>
<feBlend mode="normal" in2="BackgroundImageFix" result="effect1_dropShadow_42_227"/>
<feBlend mode="normal" in="SourceGraphic" in2="effect1_dropShadow_42_227" result="shape"/>
</filter>
<linearGradient id="paint0_linear_42_227" x1="496.778" y1="695.382" x2="507.393" y2="703.418" gradientUnits="userSpaceOnUse">
<stop offset="0.197917" stop-color="#5A23AD"/>
<stop offset="0.828125" stop-color="#AA24B7"/>
</linearGradient>
<linearGradient id="paint1_linear_42_227" x1="1234.58" y1="670.518" x2="1224.33" y2="720.989" gradientUnits="userSpaceOnUse">
<stop stop-color="#EB30EB"/>
<stop offset="1" stop-color="#742BE8"/>
</linearGradient>
<linearGradient id="paint2_linear_42_227" x1="1234.25" y1="722.945" x2="1223.41" y2="689.143" gradientUnits="userSpaceOnUse">
<stop stop-color="#BA0ED6"/>
<stop offset="1" stop-color="#540DC7"/>
</linearGradient>
<linearGradient id="paint3_linear_42_227" x1="1211.76" y1="667.076" x2="1222.6" y2="700.877" gradientUnits="userSpaceOnUse">
<stop stop-color="#EB30EB"/>
<stop offset="1" stop-color="#6500F0"/>
</linearGradient>
<linearGradient id="paint4_linear_42_227" x1="1278.47" y1="536.142" x2="1281.55" y2="554.911" gradientUnits="userSpaceOnUse">
<stop offset="0.197917" stop-color="#5A23AD"/>
<stop offset="0.828125" stop-color="#AA24B7"/>
</linearGradient>
<linearGradient id="paint5_linear_42_227" x1="118.056" y1="204.927" x2="122.736" y2="199.489" gradientUnits="userSpaceOnUse">
<stop offset="0.197917" stop-color="#5A23AD"/>
<stop offset="0.828125" stop-color="#AA24B7"/>
</linearGradient>
<clipPath id="clip0_42_227">
<rect width="50" height="50" fill="white" transform="translate(106 95)"/>
</clipPath>
</defs>
</svg>
