<svg width="1440" height="1032" viewBox="0 0 1440 1032" fill="none" xmlns="http://www.w3.org/2000/svg">
<rect width="1440" height="1032" fill="#161A23"/>
<path d="M1254.5 979.531C1258.38 979.531 1261.53 976.383 1261.53 972.5C1261.53 968.617 1258.38 965.469 1254.5 965.469C1250.62 965.469 1247.47 968.617 1247.47 972.5C1247.47 976.383 1250.62 979.531 1254.5 979.531Z" fill="#9A9B9C"/>
<path d="M1258.72 974.891C1259.62 974.891 1260.36 974.156 1260.36 973.25C1260.36 972.344 1259.62 971.609 1258.72 971.609C1257.81 971.609 1257.08 972.344 1257.08 973.25C1257.08 974.156 1257.81 974.891 1258.72 974.891Z" fill="#747678"/>
<path d="M1251.24 975.547C1252.02 975.547 1252.65 974.917 1252.65 974.141C1252.65 973.364 1252.02 972.734 1251.24 972.734C1250.47 972.734 1249.84 973.364 1249.84 974.141C1249.84 974.917 1250.47 975.547 1251.24 975.547Z" fill="#747678"/>
<path d="M1252.67 978.828C1253.84 978.828 1254.78 977.884 1254.78 976.719C1254.78 975.554 1253.84 974.609 1252.67 974.609C1251.51 974.609 1250.56 975.554 1250.56 976.719C1250.56 977.884 1251.51 978.828 1252.67 978.828Z" fill="#747678"/>
<path d="M1252.62 969.969C1253.14 969.969 1253.56 969.549 1253.56 969.031C1253.56 968.513 1253.14 968.094 1252.62 968.094C1252.11 968.094 1251.69 968.513 1251.69 969.031C1251.69 969.549 1252.11 969.969 1252.62 969.969Z" fill="#747678"/>
<path d="M1255.67 970.203C1256.19 970.203 1256.61 969.783 1256.61 969.266C1256.61 968.748 1256.19 968.328 1255.67 968.328C1255.15 968.328 1254.73 968.748 1254.73 969.266C1254.73 969.783 1255.15 970.203 1255.67 970.203Z" fill="#747678"/>
<path d="M1249.84 972.008C1250.35 972.008 1250.77 971.588 1250.77 971.07C1250.77 970.553 1250.35 970.133 1249.84 970.133C1249.32 970.133 1248.9 970.553 1248.9 971.07C1248.9 971.588 1249.32 972.008 1249.84 972.008Z" fill="#747678"/>
<path d="M1256.14 967.625C1256.4 967.625 1256.61 967.415 1256.61 967.156C1256.61 966.897 1256.4 966.688 1256.14 966.688C1255.88 966.688 1255.67 966.897 1255.67 967.156C1255.67 967.415 1255.88 967.625 1256.14 967.625Z" fill="#747678"/>
<path d="M1248.9 974.609C1249.16 974.609 1249.37 974.4 1249.37 974.141C1249.37 973.882 1249.16 973.672 1248.9 973.672C1248.64 973.672 1248.43 973.882 1248.43 974.141C1248.43 974.4 1248.64 974.609 1248.9 974.609Z" fill="#747678"/>
<path d="M1259.19 977.188C1259.45 977.188 1259.66 976.978 1259.66 976.719C1259.66 976.46 1259.45 976.25 1259.19 976.25C1258.93 976.25 1258.72 976.46 1258.72 976.719C1258.72 976.978 1258.93 977.188 1259.19 977.188Z" fill="#747678"/>
<path d="M1252.86 972.711C1253.25 972.711 1253.56 972.396 1253.56 972.008C1253.56 971.619 1253.25 971.305 1252.86 971.305C1252.47 971.305 1252.16 971.619 1252.16 972.008C1252.16 972.396 1252.47 972.711 1252.86 972.711Z" fill="#747678"/>
<path d="M1250.52 969.148C1250.77 969.148 1250.98 968.939 1250.98 968.68C1250.98 968.421 1250.77 968.211 1250.52 968.211C1250.26 968.211 1250.05 968.421 1250.05 968.68C1250.05 968.939 1250.26 969.148 1250.52 969.148Z" fill="#747678"/>
<path d="M1257.78 978.266C1258.3 978.266 1258.72 977.846 1258.72 977.328C1258.72 976.81 1258.3 976.391 1257.78 976.391C1257.26 976.391 1256.84 976.81 1256.84 977.328C1256.84 977.846 1257.26 978.266 1257.78 978.266Z" fill="#747678"/>
<path d="M1252.67 967.531C1252.67 968.188 1253.19 968.703 1253.84 968.703C1254.5 968.703 1255.02 968.188 1255.02 967.531C1255.02 966.875 1254.5 966.359 1253.84 966.359C1253.19 966.336 1252.67 966.875 1252.67 967.531Z" fill="#747678"/>
<path d="M540.009 939.992L533.811 939.071L531.04 933.331C530.964 933.174 530.839 933.047 530.686 932.97C530.3 932.775 529.831 932.937 529.638 933.331L526.867 939.071L520.668 939.992C520.498 940.017 520.341 940.099 520.222 940.224C520.077 940.376 519.997 940.58 520 940.792C520.003 941.004 520.088 941.206 520.236 941.354L524.721 945.822L523.662 952.13C523.637 952.277 523.653 952.428 523.707 952.566C523.762 952.704 523.854 952.824 523.972 952.911C524.09 952.999 524.229 953.051 524.375 953.061C524.52 953.072 524.665 953.041 524.794 952.971L530.339 949.993L535.883 952.971C536.035 953.053 536.21 953.081 536.379 953.051C536.804 952.976 537.089 952.564 537.016 952.13L535.956 945.822L540.441 941.354C540.563 941.232 540.644 941.072 540.668 940.897C540.734 940.461 540.436 940.057 540.009 939.992Z" fill="url(#paint0_linear_42_227)"/>
<g filter="url(#filter0_d_42_227)">
<path d="M1295.01 964.541C1311.57 964.541 1325 950.822 1325 933.898C1325 916.975 1311.57 903.255 1295.01 903.255C1278.45 903.255 1265.02 916.975 1265.02 933.898C1265.02 950.822 1278.45 964.541 1295.01 964.541Z" fill="url(#paint1_linear_42_227)"/>
<path fill-rule="evenodd" clip-rule="evenodd" d="M1322.31 936.967C1320.03 939.593 1318.14 941.778 1314.58 939.516C1310.64 937.004 1311.43 943.215 1311.92 947.023C1312.29 949.873 1312.48 951.377 1310.38 946.87C1308.44 942.693 1303.8 937.481 1303.1 941.873C1302.4 946.265 1298 949.84 1293 948.615C1288 947.389 1286.1 948.513 1287.8 950.658C1289.5 952.803 1288.8 954.233 1287.8 953.926C1286.8 953.62 1281.51 956.275 1281.81 958.624C1281.9 959.346 1282.09 960.483 1282.32 961.73C1286.15 963.539 1290.41 964.549 1294.9 964.549C1311.35 964.549 1324.7 951.02 1324.89 934.259C1323.93 935.104 1323.1 936.062 1322.31 936.967Z" fill="url(#paint2_linear_42_227)"/>
<path fill-rule="evenodd" clip-rule="evenodd" d="M1265 933.942C1270.74 931.046 1280.57 927.432 1285.49 930.564C1290.29 933.617 1290.35 927.075 1288.83 921.739C1290.73 919.628 1293.68 918.44 1296.89 919.226C1301.89 920.451 1303.79 919.328 1302.09 917.183C1300.39 915.038 1301.09 913.608 1302.09 913.914C1303.09 914.221 1308.39 911.565 1308.09 909.216C1307.99 908.494 1307.8 907.357 1307.57 906.111C1303.75 904.301 1299.48 903.292 1294.99 903.292C1278.43 903.292 1265 917.011 1265 933.934C1265 933.937 1265 933.94 1265 933.942Z" fill="url(#paint3_linear_42_227)"/>
</g>
<path d="M1365.01 725.417L1358.81 724.497L1356.04 718.757C1355.96 718.6 1355.84 718.473 1355.69 718.395C1355.3 718.201 1354.83 718.363 1354.64 718.757L1351.87 724.497L1345.67 725.417C1345.5 725.442 1345.34 725.525 1345.22 725.649C1345.08 725.801 1345 726.006 1345 726.218C1345 726.429 1345.09 726.632 1345.24 726.78L1349.72 731.247L1348.66 737.556C1348.64 737.703 1348.65 737.854 1348.71 737.992C1348.76 738.13 1348.85 738.249 1348.97 738.337C1349.09 738.424 1349.23 738.476 1349.37 738.487C1349.52 738.498 1349.67 738.466 1349.79 738.397L1355.34 735.418L1360.88 738.397C1361.03 738.479 1361.21 738.507 1361.38 738.477C1361.8 738.402 1362.09 737.99 1362.02 737.556L1360.96 731.247L1365.44 726.78C1365.56 726.657 1365.64 726.498 1365.67 726.323C1365.73 725.886 1365.44 725.482 1365.01 725.417Z" fill="url(#paint4_linear_42_227)"/>
<path d="M140.009 263.572L133.811 262.651L131.04 256.911C130.964 256.754 130.839 256.627 130.686 256.55C130.3 256.355 129.831 256.517 129.638 256.911L126.867 262.651L120.668 263.572C120.498 263.597 120.341 263.679 120.222 263.804C120.077 263.956 119.997 264.16 120 264.372C120.003 264.584 120.088 264.786 120.236 264.934L124.721 269.402L123.662 275.711C123.637 275.857 123.653 276.008 123.707 276.146C123.762 276.284 123.854 276.404 123.972 276.491C124.09 276.579 124.229 276.631 124.375 276.641C124.52 276.652 124.665 276.621 124.794 276.551L130.339 273.573L135.883 276.551C136.035 276.634 136.21 276.661 136.379 276.631C136.804 276.556 137.089 276.145 137.016 275.711L135.956 269.402L140.441 264.934C140.563 264.812 140.644 264.652 140.668 264.477C140.734 264.041 140.436 263.637 140.009 263.572Z" fill="url(#paint5_linear_42_227)"/>
<g clip-path="url(#clip0_42_227)">
<path d="M150.734 125.629C150.418 125.944 149.996 126.105 149.58 126.105C149.165 126.105 148.743 125.944 148.427 125.629L125.363 102.565C124.725 101.927 124.725 100.897 125.363 100.259C128.754 96.8682 133.251 95.0001 138.049 95C142.838 95.0078 147.343 96.8682 150.734 100.259L150.826 100.351C154.162 103.733 155.984 108.2 155.992 112.944C155.984 117.733 154.124 122.238 150.734 125.629Z" fill="#E2E7EC"/>
<path d="M148.427 125.628C148.742 125.944 149.165 126.105 149.58 126.105C149.996 126.105 150.418 125.944 150.734 125.628C154.124 122.238 155.984 117.733 155.992 112.943C155.984 108.2 154.162 103.733 150.826 100.35L150.734 100.258L136.895 114.096L148.427 125.628Z" fill="#CCD5E0"/>
<path d="M132.574 135.612C130.397 135.612 128.349 134.764 126.808 133.223L117.583 123.998C114.404 120.818 114.404 115.645 117.583 112.466C118.194 111.854 119.277 111.854 119.889 112.466L138.34 130.917C138.977 131.554 138.977 132.586 138.34 133.223C136.8 134.763 134.752 135.612 132.574 135.612Z" fill="#777675"/>
<path d="M138.34 130.917L129.207 121.785L122.288 128.704L126.808 133.223C128.348 134.764 130.397 135.612 132.574 135.612C134.752 135.612 136.8 134.763 138.34 133.223C138.977 132.586 138.977 131.554 138.34 130.917Z" fill="#434242"/>
<path d="M146.505 140.132C145.198 140.132 143.97 139.623 143.046 138.699L112.108 107.76C111.183 106.837 110.674 105.608 110.674 104.301C110.674 102.994 111.183 101.766 112.108 100.842C114.264 98.6858 117.131 97.4982 120.179 97.4982C123.229 97.4982 126.095 98.6858 128.252 100.842L149.965 122.555C154.415 127.005 154.415 134.248 149.965 138.699C149.041 139.623 147.812 140.132 146.505 140.132Z" fill="#8D78E2"/>
<path d="M120.685 144.907C120.36 144.907 120.033 144.811 119.747 144.61C119.01 144.092 118.834 143.074 119.352 142.338L123.683 136.185C124.201 135.448 125.218 135.271 125.955 135.79C126.692 136.308 126.868 137.326 126.35 138.062L122.019 144.215C121.702 144.666 121.197 144.907 120.685 144.907Z" fill="#8B8AC8"/>
<path d="M149.964 122.554L139.201 111.791L127.67 123.323L143.046 138.699C143.97 139.623 145.198 140.132 146.505 140.132C147.812 140.132 149.041 139.623 149.965 138.699C154.415 134.248 154.415 127.005 149.964 122.554Z" fill="#9F6BC8"/>
<path d="M141.979 128.909C142.879 128.909 143.61 128.179 143.61 127.278C143.61 126.377 142.879 125.647 141.979 125.647C141.078 125.647 140.348 126.377 140.348 127.278C140.348 128.179 141.078 128.909 141.979 128.909Z" fill="#EFC36C"/>
<path d="M107.64 131.861C107.127 131.861 106.622 131.62 106.305 131.168C105.787 130.432 105.963 129.414 106.7 128.896L112.853 124.566C113.59 124.048 114.606 124.224 115.125 124.961C115.643 125.697 115.467 126.715 114.73 127.233L108.577 131.563C108.292 131.764 107.965 131.861 107.64 131.861Z" fill="#CFA7E2"/>
<path d="M106.578 144.523C105.942 143.886 105.941 142.853 106.578 142.216L117.438 131.357C118.075 130.72 119.107 130.72 119.744 131.357C120.381 131.994 120.381 133.026 119.744 133.663L108.885 144.523C108.248 145.16 107.215 145.159 106.578 144.523Z" fill="#BDA7E2"/>
<path d="M108.885 144.522L119.744 133.663C120.381 133.026 120.381 131.994 119.744 131.357L106.579 144.522C107.215 145.159 108.248 145.159 108.885 144.522Z" fill="#938AC8"/>
<path d="M132.847 119.776C133.748 119.776 134.478 119.046 134.478 118.145C134.478 117.244 133.748 116.514 132.847 116.514C131.947 116.514 131.216 117.244 131.216 118.145C131.216 119.046 131.947 119.776 132.847 119.776Z" fill="#F3D583"/>
<path d="M134 119.299C134.637 118.662 134.637 117.629 134 116.993L131.693 119.299C132.33 119.936 133.363 119.936 134 119.299Z" fill="#EFC36C"/>
<path d="M123.528 110.458C124.429 110.458 125.159 109.728 125.159 108.827C125.159 107.927 124.429 107.197 123.528 107.197C122.628 107.197 121.898 107.927 121.898 108.827C121.898 109.728 122.628 110.458 123.528 110.458Z" fill="#F3D583"/>
</g>
<defs>
<filter id="filter0_d_42_227" x="1261" y="903.255" width="68" height="69.2935" filterUnits="userSpaceOnUse" color-interpolation-filters="sRGB">
<feFlood flood-opacity="0" result="BackgroundImageFix"/>
<feColorMatrix in="SourceAlpha" type="matrix" values="0 0 0 0 0 0 0 0 0 0 0 0 0 0 0 0 0 0 127 0" result="hardAlpha"/>
<feOffset dy="4"/>
<feGaussianBlur stdDeviation="2"/>
<feColorMatrix type="matrix" values="0 0 0 0 0 0 0 0 0 0 0 0 0 0 0 0 0 0 0.25 0"/>
<feBlend mode="normal" in2="BackgroundImageFix" result="effect1_dropShadow_42_227"/>
<feBlend mode="normal" in="SourceGraphic" in2="effect1_dropShadow_42_227" result="shape"/>
</filter>
<linearGradient id="paint0_linear_42_227" x1="526" y1="934.42" x2="539.041" y2="942.199" gradientUnits="userSpaceOnUse">
<stop offset="0.197917" stop-color="#5A23AD"/>
<stop offset="0.828125" stop-color="#AA24B7"/>
</linearGradient>
<linearGradient id="paint1_linear_42_227" x1="1307.21" y1="901.008" x2="1290.13" y2="967.226" gradientUnits="userSpaceOnUse">
<stop stop-color="#EB30EB"/>
<stop offset="1" stop-color="#742BE8"/>
</linearGradient>
<linearGradient id="paint2_linear_42_227" x1="1306.85" y1="971.458" x2="1289.37" y2="928.482" gradientUnits="userSpaceOnUse">
<stop stop-color="#BA0ED6"/>
<stop offset="1" stop-color="#540DC7"/>
</linearGradient>
<linearGradient id="paint3_linear_42_227" x1="1283.04" y1="896.383" x2="1300.52" y2="939.358" gradientUnits="userSpaceOnUse">
<stop stop-color="#EB30EB"/>
<stop offset="1" stop-color="#6500F0"/>
</linearGradient>
<linearGradient id="paint4_linear_42_227" x1="1353.67" y1="720.441" x2="1358.84" y2="745.263" gradientUnits="userSpaceOnUse">
<stop offset="0.197917" stop-color="#5A23AD"/>
<stop offset="0.828125" stop-color="#AA24B7"/>
</linearGradient>
<linearGradient id="paint5_linear_42_227" x1="125" y1="275.37" x2="131.335" y2="269.57" gradientUnits="userSpaceOnUse">
<stop offset="0.197917" stop-color="#5A23AD"/>
<stop offset="0.828125" stop-color="#AA24B7"/>
</linearGradient>
<clipPath id="clip0_42_227">
<rect width="50" height="50" fill="white" transform="translate(106 95)"/>
</clipPath>
</defs>
</svg>
